<svg width="70" height="69" viewBox="0 0 70 69" fill="none" xmlns="http://www.w3.org/2000/svg">
<g opacity="0.8" filter="url(#filter0_f_264_1000)">
<ellipse cx="35.1429" cy="34.5144" rx="9.14286" ry="9.14286" fill="white"/>
</g>
<path d="M28.7349 43.4873C27.9017 44.2437 27.0301 44.5825 26.1201 44.5038C25.2101 44.4252 24.4265 44.0895 23.7693 43.4967C23.112 42.904 22.6682 42.1266 22.4378 41.1646C22.2093 40.2037 22.3727 39.2249 22.9278 38.2283L25.7745 33.1376C25.1853 32.6624 24.7143 32.0581 24.3614 31.3248C24.0094 30.5936 23.8334 29.7963 23.8334 28.9329C23.8334 27.4642 24.3064 26.2189 25.2524 25.1971C26.1984 24.1764 27.3519 23.666 28.713 23.666C30.0741 23.666 31.2277 24.1764 32.1736 25.1971C33.1196 26.2179 33.5926 27.4626 33.5926 28.9313C33.5926 30.4 33.1201 31.6453 32.1751 32.6671C31.2301 33.6889 30.0766 34.1993 28.7145 34.1982C28.4209 34.1982 28.137 34.1752 27.8628 34.129C27.5886 34.0828 27.3261 34.0031 27.0753 33.8898L24.1834 39.0639C23.8412 39.6776 23.7372 40.2797 23.8714 40.8704C24.0055 41.461 24.2777 41.9404 24.688 42.3087C25.0983 42.6769 25.5873 42.8867 26.1551 42.9381C26.7229 42.9864 27.2698 42.7765 27.7957 42.3087L42.2945 29.0147C43.1092 28.2584 43.9638 27.9158 44.8582 27.9872C45.7517 28.0585 46.5368 28.3911 47.2134 28.9848C47.8901 29.5776 48.3509 30.3544 48.5959 31.3154C48.8409 32.2763 48.6766 33.2656 48.103 34.2832L45.2257 39.4022C45.8149 39.8785 46.2859 40.4775 46.6389 41.1993C46.9918 41.921 47.1677 42.7141 47.1668 43.5786C47.1668 45.0473 46.6889 46.292 45.7332 47.3128C44.7785 48.3335 43.6201 48.8439 42.258 48.8439C40.9164 48.8439 39.7725 48.3283 38.8266 47.297C37.8806 46.2658 37.4076 45.0263 37.4076 43.5786C37.4076 42.1308 37.8806 40.8913 38.8266 39.8601C39.7725 38.8289 40.9164 38.3132 42.258 38.3132C42.5516 38.3132 42.8394 38.3416 43.1214 38.3982C43.4033 38.4549 43.6692 38.5393 43.9191 38.6516L46.8197 33.4476C47.1609 32.8339 47.2689 32.2317 47.1434 31.6411C47.018 31.0505 46.7507 30.571 46.3414 30.2028C45.933 29.8335 45.4445 29.619 44.8757 29.5592C44.307 29.4994 43.7601 29.7139 43.2351 30.2028L28.7349 43.4873Z" fill="white"/>
<defs>
<filter id="filter0_f_264_1000" x="0.799999" y="0.17152" width="68.6856" height="68.6857" filterUnits="userSpaceOnUse" color-interpolation-filters="sRGB">
<feFlood flood-opacity="0" result="BackgroundImageFix"/>
<feBlend mode="normal" in="SourceGraphic" in2="BackgroundImageFix" result="shape"/>
<feGaussianBlur stdDeviation="12.6" result="effect1_foregroundBlur_264_1000"/>
</filter>
</defs>
</svg>
