<svg width="34" height="33" viewBox="0 0 34 33" fill="none" xmlns="http://www.w3.org/2000/svg">
<path d="M13.1143 7.7797C13.4273 7.7797 13.681 7.52599 13.681 7.21303C13.681 6.90007 13.4273 6.64636 13.1143 6.64636C12.8013 6.64636 12.5476 6.90007 12.5476 7.21303C12.5476 7.52599 12.8013 7.7797 13.1143 7.7797Z" fill="white"/>
<path d="M8.0143 23.9863C7.70263 23.9863 7.44763 24.2413 7.44763 24.553C7.44763 24.8647 7.70263 25.1197 8.0143 25.1197C9.52163 25.1197 10.8476 26.525 10.8476 28.123C10.8476 28.4347 11.1026 28.6897 11.4143 28.6897C11.726 28.6897 11.981 28.4347 11.981 28.123C11.981 25.879 10.1676 23.9863 8.0143 23.9863Z" fill="white"/>
<path d="M12.5476 19.453C10.6266 19.453 8.97762 20.507 8.11062 22.037C7.95762 22.309 8.05395 22.6547 8.32595 22.8077C8.59795 22.9607 8.94362 22.8643 9.09662 22.5923C9.77095 21.3967 11.0573 20.5807 12.5476 20.5807C12.8593 20.5807 13.1143 20.3257 13.1143 20.014C13.1143 19.7023 12.865 19.453 12.5476 19.453Z" fill="white"/>
<path d="M21.6313 11.2987L21.977 11.48C22.0223 11.5027 22.0676 11.514 22.113 11.514C21.994 11.4517 21.875 11.3894 21.7503 11.327C21.7106 11.31 21.671 11.2987 21.6313 11.2987Z" fill="black"/>
<path d="M30.9416 26.0093C30.3636 26.0093 29.8763 26.389 29.7006 26.899H27.281L24.4476 25.1423C24.357 25.0517 24.2493 25.012 24.136 25.012H23.0706C23.0706 24.8987 23.065 24.7797 23.048 24.6493C23.0366 24.536 22.9573 24.4397 22.8496 24.4L22.334 24.2187C22.3056 24.1337 22.2716 24.0543 22.232 23.975L22.47 23.4763C22.521 23.3743 22.504 23.2497 22.436 23.159C22.283 22.9663 22.113 22.7907 21.9146 22.6377C21.824 22.5697 21.6993 22.5527 21.5973 22.6037L21.0986 22.8417C21.0193 22.802 20.9343 22.768 20.855 22.7397L20.668 22.224C20.6283 22.1163 20.532 22.037 20.4186 22.0257C20.277 22.0087 20.158 22.003 20.039 22.003L20.1466 21.4987C20.328 21.459 20.5036 21.4137 20.6736 21.357L21.3933 22.1503C21.484 22.2467 21.6256 22.275 21.7446 22.2183C21.9373 22.1277 22.1186 22.0313 22.2886 21.9237V22.0653H24.323L25.1276 23.618C25.2183 23.7087 25.326 23.7483 25.4393 23.7483H26.6803C26.856 24.2583 27.3433 24.638 27.9213 24.638C28.6523 24.638 29.253 24.0373 29.253 23.3063C29.253 22.5753 28.6523 21.9747 27.9213 21.9747C27.3433 21.9747 26.856 22.3543 26.6576 22.8643H25.6206L24.8386 21.289C24.748 21.1983 24.6403 21.1587 24.527 21.1587H22.6286L22.3736 20.3767C22.5096 20.252 22.64 20.1217 22.7646 19.9857L23.7846 20.3143C23.9093 20.354 24.051 20.3087 24.1246 20.201C24.3003 19.9517 24.459 19.6683 24.6063 19.3623C24.663 19.2433 24.6346 19.096 24.5383 19.011L23.745 18.2913C23.7733 18.2007 23.8016 18.11 23.8243 18.0137V18.195H26.261L27.3943 19.3283C27.485 19.419 27.5926 19.4587 27.706 19.4587H29.7006C29.8763 19.9687 30.3636 20.3483 30.9416 20.3483C31.6726 20.3483 32.2733 19.7477 32.2733 19.0167C32.2733 18.2857 31.6726 17.685 30.9416 17.685C30.3636 17.685 29.8763 18.0647 29.7006 18.5747H27.9043L26.771 17.4413C26.6803 17.3507 26.5726 17.311 26.4593 17.311H25.1673C25.173 17.294 25.173 17.2827 25.173 17.2657C25.1843 17.107 25.1956 16.9427 25.1956 16.7783C25.1956 16.614 25.1843 16.4553 25.173 16.291C25.1616 16.1607 25.0653 16.0473 24.935 16.019L23.881 15.7923C23.8413 15.611 23.796 15.4353 23.7393 15.2653L24.476 14.5967H26.754C26.9296 15.1067 27.417 15.4863 27.995 15.4863C28.726 15.4863 29.3266 14.8857 29.3266 14.1547C29.3266 13.4237 28.726 12.823 27.995 12.823C27.417 12.823 26.9296 13.2027 26.7313 13.7127H24.391V13.7807C24.306 13.6333 24.221 13.4917 24.1246 13.3557C24.051 13.248 23.9093 13.197 23.7846 13.2423L22.7646 13.571C22.64 13.435 22.5096 13.3047 22.3736 13.18L22.7023 12.16C22.742 12.0353 22.6966 11.8937 22.589 11.82C22.4416 11.718 22.2773 11.616 22.1073 11.5253C22.062 11.5253 22.0166 11.514 21.9713 11.4913L21.6256 11.31C21.5406 11.31 21.4556 11.344 21.3933 11.4063L20.6736 12.1997C20.6453 12.1883 20.617 12.1827 20.5886 12.1713C20.6566 12.1317 20.7076 12.075 20.7303 12.0013L20.991 11.1627C21.059 11.14 21.127 11.1117 21.195 11.0777L21.6256 11.3043C21.6653 11.3043 21.7106 11.3157 21.7503 11.3327C21.875 11.3893 21.994 11.4517 22.113 11.5197C22.181 11.5197 22.249 11.497 22.3056 11.4573C22.5266 11.2817 22.725 11.0833 22.9006 10.8623C22.929 10.8283 22.946 10.7887 22.9573 10.749H25.7113C25.8246 10.749 25.9323 10.7037 26.023 10.6187L27.1563 9.48533H28.9526C29.1283 9.99533 29.6156 10.375 30.1936 10.375C30.9246 10.375 31.5253 9.77433 31.5253 9.04333C31.5253 8.31233 30.9246 7.71166 30.1936 7.71166C29.661 7.71166 29.1736 8.09133 28.998 8.60133H27.0033C26.89 8.60133 26.7823 8.64666 26.6916 8.73166L25.5583 9.865H22.589L22.5323 9.75733C22.5606 9.68933 22.589 9.627 22.6173 9.55333L23.456 9.29266C23.5693 9.25866 23.6486 9.15666 23.6656 9.03766C23.6826 8.88466 23.694 8.74866 23.694 8.61833C23.694 8.488 23.6883 8.352 23.6656 8.199C23.6543 8.08 23.5693 7.98366 23.456 7.944L22.6343 7.689H24.425C24.5383 7.689 24.646 7.64366 24.7366 7.55866L25.5073 5.972H26.55C26.7256 6.482 27.213 6.86166 27.791 6.86166C28.522 6.86166 29.1226 6.261 29.1226 5.53C29.1226 4.799 28.522 4.19833 27.791 4.19833C27.2356 4.19833 26.7483 4.578 26.55 5.088H25.309C25.1956 5.088 25.088 5.13333 24.9973 5.21833L24.2153 6.79366H22.878L22.929 6.69733C22.9856 6.58966 22.9743 6.465 22.9006 6.36866C22.725 6.14766 22.5266 5.94933 22.3056 5.77366C22.2093 5.7 22.0846 5.68866 21.977 5.74533L21.2006 6.142C21.1326 6.11366 21.0703 6.08533 20.9966 6.057L20.736 5.21833C20.702 5.105 20.6 5.02566 20.481 5.00866C20.175 4.97466 19.9426 4.97466 19.6366 5.00866C19.5176 5.02 19.4213 5.105 19.3816 5.21833L19.121 6.057C19.053 6.07966 18.985 6.108 18.917 6.142L18.1406 5.734C18.033 5.67733 17.9083 5.68866 17.812 5.76233C17.591 5.938 17.3926 6.13633 17.217 6.35733C17.1433 6.45366 17.132 6.57833 17.1886 6.686L17.591 7.46233C17.5626 7.53033 17.5343 7.59266 17.506 7.66633L16.6673 7.927C16.554 7.961 16.4746 8.063 16.4576 8.182C16.4406 8.335 16.4293 8.471 16.4293 8.60133C16.4293 8.73166 16.435 8.86766 16.4576 9.02066C16.469 9.13966 16.554 9.236 16.6673 9.27566L17.506 9.53633C17.5286 9.60433 17.557 9.67233 17.591 9.74033L17.183 10.5167C17.1263 10.6243 17.1376 10.749 17.2113 10.8453C17.387 11.0663 17.5853 11.2647 17.8063 11.4403C17.897 11.514 18.0273 11.5253 18.135 11.4687L18.3163 11.3723L18.1746 12.041C17.9933 12.0807 17.8176 12.126 17.6476 12.1827L16.928 11.3893C16.8373 11.293 16.6956 11.2647 16.5766 11.3213C16.4576 11.378 16.3443 11.4403 16.231 11.5027V4.77633C15.891 3.626 14.5876 1.926 12.5476 1.943C11.0176 1.95433 9.56696 2.96866 8.91529 4.476C7.24362 4.884 6.12729 6.47066 6.33696 8.182C4.96562 8.86766 4.04762 10.341 4.04762 11.9163C4.04762 12.4263 4.14962 12.925 4.34796 13.4067C3.44129 14.1547 2.91429 15.2597 2.91429 16.4497C2.91429 17.243 3.15796 18.1553 3.64529 18.8807C3.16929 19.5493 2.91429 20.3427 2.91429 21.153C2.91429 22.207 3.33929 23.21 4.09862 23.958C3.70762 26.3097 5.58329 28.6897 8.01429 28.6897C8.03129 28.6897 8.04829 28.6897 8.06529 28.6897C8.86996 30.078 10.366 30.9563 11.981 30.9563C13.664 30.9563 15.4943 29.976 16.231 27.8113V22.037C16.3443 22.0993 16.4576 22.1617 16.5766 22.2183C16.6956 22.275 16.843 22.2467 16.928 22.1503L17.6476 21.357C17.8233 21.4137 17.999 21.459 18.1746 21.4987L18.4013 22.5527C18.4013 22.564 18.407 22.5753 18.4126 22.581C18.4466 22.5867 18.475 22.5923 18.509 22.6093L18.9226 22.8077C18.9736 22.8077 19.0246 22.8133 19.0756 22.8133C19.053 22.8247 19.0246 22.836 19.002 22.8473L18.9226 22.8077C18.8376 22.802 18.7583 22.7963 18.6733 22.7907C18.5543 22.7793 18.4523 22.7 18.4126 22.5867C18.3333 22.5753 18.254 22.598 18.1916 22.649C17.999 22.802 17.8233 22.972 17.6703 23.1703C17.6023 23.261 17.5853 23.38 17.6363 23.4877L17.8743 23.9863C17.8346 24.0657 17.8006 24.1507 17.7723 24.23L17.2566 24.417C17.149 24.4567 17.0696 24.553 17.0583 24.6663C17.0413 24.8023 17.0356 24.9213 17.0356 25.0347C17.0356 25.148 17.0413 25.267 17.0583 25.403C17.0696 25.5163 17.149 25.6127 17.2566 25.6523L17.7723 25.8337C17.8006 25.9187 17.8346 25.998 17.8743 26.0773L17.6363 26.576C17.5853 26.678 17.6023 26.8027 17.6703 26.8933C17.8233 27.086 17.9933 27.2617 18.1916 27.4147C18.2823 27.4827 18.4013 27.4997 18.509 27.4487L19.0076 27.2107C19.087 27.2503 19.172 27.2843 19.2513 27.3127L19.4383 27.8283C19.478 27.936 19.5743 28.0153 19.6876 28.0267C19.8236 28.0437 19.9426 28.0493 20.056 28.0493C20.1693 28.0493 20.2883 28.0437 20.4243 28.0267C20.5376 28.0153 20.634 27.936 20.6736 27.8283L20.855 27.3127C20.94 27.2843 21.0193 27.2503 21.0986 27.2107L21.5973 27.4487C21.6993 27.4997 21.824 27.4827 21.9146 27.4147C22.1073 27.2617 22.283 27.0917 22.436 26.8933C22.504 26.8027 22.521 26.6837 22.47 26.576L22.232 26.0773C22.2716 25.998 22.3056 25.913 22.334 25.8337L22.5266 25.7657V25.9187H23.9433L26.7766 27.6753C26.8673 27.766 26.975 27.8057 27.0883 27.8057H29.7006C29.8763 28.3157 30.3636 28.6953 30.9416 28.6953C31.6726 28.6953 32.2733 28.0947 32.2733 27.3637C32.2733 26.6043 31.6783 26.0093 30.9416 26.0093ZM27.927 22.8643C28.1706 22.8643 28.369 23.0627 28.369 23.3063C28.369 23.55 28.1706 23.7483 27.927 23.7483C27.6833 23.7483 27.485 23.55 27.485 23.3063C27.485 23.0627 27.6833 22.8643 27.927 22.8643ZM30.9643 18.5633C31.208 18.5633 31.4063 18.7617 31.4063 19.0053C31.4063 19.249 31.208 19.4473 30.9643 19.4473C30.7206 19.4473 30.5223 19.249 30.5223 19.0053C30.5223 18.7617 30.7206 18.5633 30.9643 18.5633ZM28.0176 13.7013C28.2613 13.7013 28.4596 13.8997 28.4596 14.1433C28.4596 14.387 28.2613 14.5853 28.0176 14.5853C27.774 14.5853 27.5756 14.387 27.5756 14.1433C27.5756 13.9053 27.774 13.7013 28.0176 13.7013ZM30.2276 8.59C30.4713 8.59 30.6696 8.78833 30.6696 9.032C30.6696 9.27566 30.4713 9.474 30.2276 9.474C29.984 9.474 29.7856 9.27566 29.7856 9.032C29.7856 8.78833 29.984 8.59 30.2276 8.59ZM27.8136 5.08233C28.0573 5.08233 28.2556 5.28066 28.2556 5.52433C28.2556 5.768 28.0573 5.96633 27.8136 5.96633C27.57 5.96633 27.3716 5.768 27.3716 5.52433C27.3716 5.28066 27.57 5.08233 27.8136 5.08233ZM18.0443 10.851C17.965 10.7773 17.8913 10.7037 17.8176 10.6243L18.203 9.89333C18.2483 9.80266 18.2483 9.70066 18.203 9.61C18.135 9.48533 18.084 9.355 18.0443 9.219C18.016 9.12266 17.9423 9.049 17.846 9.015L17.0526 8.76566C17.047 8.709 17.047 8.658 17.047 8.607C17.047 8.556 17.047 8.505 17.0526 8.44833L17.846 8.199C17.9423 8.17066 18.016 8.09133 18.0443 7.995C18.084 7.859 18.1406 7.72866 18.203 7.604C18.2483 7.51333 18.254 7.41133 18.203 7.32066L17.8176 6.58966C17.8913 6.51033 17.965 6.43666 18.0443 6.363L18.7753 6.74833C18.866 6.79366 18.968 6.79366 19.0586 6.74833C19.1833 6.68033 19.3136 6.62933 19.4496 6.58966C19.546 6.56133 19.6196 6.48766 19.6536 6.39133L19.903 5.598C20.0106 5.59233 20.1126 5.59233 20.2203 5.598L20.4696 6.39133C20.498 6.48766 20.5773 6.56133 20.6736 6.58966C20.8096 6.62933 20.94 6.686 21.0646 6.74833C21.1553 6.79366 21.2573 6.79933 21.348 6.74833L22.079 6.363C22.1583 6.43666 22.232 6.51033 22.3056 6.58966L21.9203 7.32066C21.875 7.41133 21.875 7.51333 21.9203 7.604C21.9883 7.72866 22.0393 7.859 22.079 7.995C22.1073 8.09133 22.181 8.165 22.2773 8.199L23.0706 8.44833C23.0763 8.505 23.0763 8.556 23.0763 8.607C23.0763 8.658 23.0763 8.709 23.0706 8.76566L22.2773 9.015C22.181 9.04333 22.1073 9.12266 22.079 9.219C22.0393 9.355 21.9826 9.48533 21.9203 9.61C21.875 9.70066 21.8693 9.80266 21.9203 9.89333L22.3056 10.6243C22.232 10.7037 22.1583 10.7773 22.079 10.851L21.348 10.4657C21.2573 10.4203 21.1553 10.4203 21.0646 10.4657C20.94 10.5337 20.8096 10.5847 20.6736 10.6243C20.5773 10.6527 20.5036 10.7263 20.4696 10.8227L20.2203 11.616C20.1636 11.6217 20.1126 11.6217 20.056 11.6217C20.005 11.6217 19.954 11.6217 19.903 11.616L19.6536 10.8227C19.648 10.8 19.6366 10.7773 19.6196 10.7547C19.58 10.6923 19.5233 10.647 19.4496 10.6243C19.3136 10.5847 19.1833 10.528 19.0586 10.4657C18.968 10.4203 18.866 10.4147 18.7753 10.4657L18.0443 10.851ZM15.381 23.261C14.548 22.3203 13.3353 21.7197 11.981 21.7197C11.6693 21.7197 11.4143 21.9747 11.4143 22.2863C11.4143 22.598 11.6693 22.853 11.981 22.853C13.8566 22.853 15.381 24.3773 15.381 26.253C15.381 28.1853 13.8226 29.823 11.981 29.823C10.6663 29.823 9.45929 29.0467 8.90396 27.8453C8.80196 27.6243 8.56962 27.494 8.32596 27.5223C8.28629 27.528 8.24662 27.5337 8.20696 27.5393C6.59196 27.7603 4.77862 25.9357 5.27162 23.89C5.32262 23.6803 5.24896 23.4593 5.08462 23.3233C4.42729 22.7793 4.05329 21.986 4.05329 21.153C4.05329 20.6373 4.20062 20.1387 4.46696 19.6967C5.14696 20.252 5.99129 20.5863 6.88663 20.5863C7.19829 20.5863 7.45329 20.3313 7.45329 20.0197C7.45329 19.708 7.19829 19.453 6.88663 19.453C5.35096 19.453 4.05329 18.0477 4.05329 16.4497C4.05329 15.4807 4.54629 14.5853 5.37929 14.064C5.63429 13.8997 5.71929 13.571 5.56629 13.3047C5.31696 12.8627 5.18662 12.3923 5.18662 11.9163C5.18662 10.3863 6.43329 8.913 8.01996 8.913C9.52729 8.913 10.8533 10.3183 10.8533 11.9163C10.8533 12.228 11.1083 12.483 11.42 12.483C11.7316 12.483 11.9866 12.228 11.9866 11.9163C11.9866 9.67233 10.1676 7.77966 8.01996 7.77966C7.83296 7.77966 7.64029 7.79666 7.45329 7.825C7.45329 7.808 7.45329 7.79666 7.45329 7.77966C7.45329 6.516 8.47896 5.513 9.71996 5.513C10.3263 5.513 10.893 5.751 11.3236 6.176C11.5446 6.397 11.9016 6.397 12.1226 6.176C12.3436 5.955 12.3436 5.598 12.1226 5.377C11.607 4.86133 10.9496 4.53266 10.2413 4.41933C10.74 3.677 11.573 3.07633 12.5476 3.07633C14.055 3.07633 15.381 4.48166 15.381 6.07966V10.5223C15.0466 10.3297 14.6613 10.2163 14.2476 10.2163C13.936 10.2163 13.681 10.4713 13.681 10.783C13.681 11.0947 13.936 11.3497 14.2476 11.3497C14.871 11.3497 15.381 11.8597 15.381 12.483V13.503L14.5423 13.231C14.4176 13.1913 14.276 13.2367 14.2023 13.3443C14.0833 13.52 13.9643 13.707 13.8566 13.911C13.6696 13.8487 13.46 13.8883 13.3013 14.0243C11.4823 15.6507 8.58096 14.353 8.58096 11.9107C8.58096 11.599 8.32596 11.344 8.01429 11.344C7.70262 11.344 7.44762 11.599 7.44762 11.9107C7.44762 13.877 8.88696 15.5147 10.7683 15.8263C10.553 16.512 9.90696 17.0107 9.14762 17.0107C8.83596 17.0107 8.58096 17.2657 8.58096 17.5773C8.58096 17.889 8.83596 18.144 9.14762 18.144C10.5303 18.144 11.6806 17.1523 11.93 15.8433C12.7176 15.7413 13.46 15.4013 14.0606 14.8687C14.0776 14.8517 14.0946 14.8403 14.106 14.8233L14.582 15.2597C14.5253 15.4353 14.48 15.611 14.4403 15.7867L13.3863 16.0133C13.256 16.0417 13.1596 16.1493 13.1483 16.2853C13.137 16.444 13.1256 16.6083 13.1256 16.7727C13.1256 16.937 13.137 17.0957 13.1483 17.26C13.1596 17.3903 13.256 17.5037 13.3863 17.532L14.4403 17.7587C14.48 17.94 14.5253 18.1157 14.582 18.2857L13.7886 19.0053C13.6923 19.096 13.664 19.2377 13.7206 19.3567C13.868 19.6627 14.0266 19.946 14.2023 20.1953C14.276 20.303 14.4176 20.354 14.5423 20.3087L15.381 20.0367V23.261ZM18.951 22.1957L18.73 21.17C18.7016 21.051 18.6053 20.9547 18.4863 20.9377C18.2086 20.8923 17.9366 20.8187 17.676 20.7223C17.5626 20.677 17.4266 20.711 17.3473 20.8017L16.6446 21.578C16.5143 21.51 16.3896 21.442 16.2763 21.3683L16.5993 20.3767C16.639 20.2577 16.5993 20.1273 16.503 20.048C16.4123 19.9743 16.3273 19.895 16.2423 19.8157C16.1233 19.7023 16.01 19.5777 15.908 19.453C15.8286 19.3567 15.6983 19.317 15.5793 19.3567L15.3923 19.419L14.5876 19.6797C14.514 19.5607 14.446 19.436 14.378 19.3113L15.1543 18.6087C15.245 18.5237 15.279 18.3933 15.2336 18.28C15.1373 18.0193 15.0636 17.7473 15.0183 17.4697C14.9956 17.345 14.905 17.2487 14.786 17.226L13.7603 17.005C13.7546 16.9313 13.7546 16.8633 13.7546 16.7897C13.7546 16.716 13.7546 16.648 13.7603 16.5743L14.786 16.3533C14.905 16.325 15.0013 16.2287 15.0183 16.1097C15.0636 15.832 15.1373 15.56 15.2336 15.2993C15.279 15.186 15.245 15.05 15.1543 14.9707L14.3666 14.2453C14.4346 14.115 14.5026 13.9903 14.5763 13.877L15.381 14.1377L15.568 14.2C15.687 14.2397 15.8173 14.2 15.8966 14.1037C15.9986 13.9733 16.112 13.8543 16.231 13.741C16.316 13.6617 16.401 13.5823 16.4916 13.5087C16.588 13.4293 16.6276 13.299 16.588 13.18L16.265 12.1883C16.384 12.1147 16.5086 12.0467 16.6333 11.9787L17.336 12.755C17.421 12.8457 17.5513 12.8797 17.6646 12.8343C17.9253 12.738 18.1973 12.6643 18.475 12.619C18.5996 12.5963 18.696 12.5057 18.7186 12.3867L18.9396 11.361C19.0133 11.3553 19.0926 11.3553 19.172 11.3553C19.24 11.3553 19.3023 11.3553 19.3703 11.361L19.5516 12.194L19.5913 12.3867C19.6196 12.5057 19.716 12.602 19.835 12.619C20.1126 12.6643 20.3846 12.738 20.6453 12.8343C20.7586 12.8797 20.8946 12.8457 20.974 12.755L21.6766 11.9787C21.807 12.0467 21.9316 12.1147 22.045 12.1883L21.722 13.18C21.6823 13.299 21.722 13.4293 21.8183 13.5087C22.0336 13.6843 22.2376 13.8883 22.4133 14.1037C22.4926 14.2 22.623 14.2397 22.742 14.2L23.7336 13.877C23.8073 13.996 23.8753 14.1207 23.9433 14.2453L23.167 14.948C23.0763 15.033 23.0423 15.1633 23.0876 15.2767C23.184 15.5373 23.2576 15.8093 23.303 16.087C23.3256 16.2117 23.4163 16.308 23.5353 16.3307L24.561 16.5517C24.5666 16.6253 24.5666 16.6933 24.5666 16.767C24.5666 16.8407 24.5666 16.9087 24.561 16.9823L23.5353 17.2033C23.4163 17.2317 23.32 17.328 23.303 17.447C23.2576 17.7247 23.184 17.9967 23.0876 18.2573C23.0423 18.3707 23.0763 18.5067 23.167 18.586L23.9433 19.2887C23.8753 19.419 23.8073 19.5437 23.7336 19.657L22.742 19.334C22.623 19.2943 22.4926 19.334 22.4133 19.4303C22.2376 19.6457 22.0336 19.8497 21.8183 20.0253C21.722 20.1047 21.6823 20.235 21.722 20.3483L22.045 21.34C21.926 21.4137 21.8013 21.4817 21.6766 21.5497L20.974 20.7733C20.889 20.6827 20.7586 20.6487 20.6453 20.694C20.3846 20.7903 20.1126 20.864 19.835 20.9093C19.7103 20.932 19.614 21.0227 19.5913 21.1417L19.3703 22.1673C19.24 22.2013 19.0926 22.2013 18.951 22.1957ZM22.4643 25.1197L21.9883 25.2897C21.8976 25.3237 21.824 25.3973 21.8013 25.4937C21.7616 25.6353 21.705 25.7713 21.6313 25.9017C21.5803 25.9867 21.5803 26.0887 21.62 26.1793L21.8353 26.6383C21.7843 26.695 21.7333 26.746 21.6766 26.797L21.2176 26.5817C21.127 26.542 21.025 26.542 20.94 26.593C20.8153 26.6667 20.6793 26.7233 20.532 26.763C20.4356 26.7913 20.362 26.8593 20.328 26.95L20.158 27.426C20.0843 27.4317 20.0106 27.4317 19.937 27.426L19.767 26.95C19.733 26.8593 19.6593 26.7857 19.563 26.763C19.4213 26.7233 19.2853 26.6667 19.155 26.593C19.07 26.5477 18.968 26.542 18.8773 26.5817L18.4183 26.797C18.3616 26.746 18.3106 26.695 18.2596 26.6383L18.475 26.1793C18.5146 26.0887 18.5146 25.9867 18.4636 25.9017C18.39 25.777 18.3333 25.641 18.2936 25.4937C18.2653 25.3973 18.1973 25.3237 18.1066 25.2897L17.6306 25.1197C17.6306 25.0857 17.625 25.046 17.625 25.012C17.625 24.9723 17.625 24.9383 17.6306 24.9043L18.1066 24.7343C18.1973 24.7003 18.271 24.6267 18.2936 24.5303C18.3333 24.3887 18.39 24.2527 18.4636 24.1223C18.5146 24.0373 18.5146 23.9353 18.475 23.8447L18.2596 23.3857C18.3106 23.329 18.3616 23.278 18.4183 23.227L18.8773 23.4423C18.968 23.482 19.07 23.482 19.155 23.431C19.2796 23.3573 19.4156 23.3007 19.563 23.261C19.6593 23.2327 19.733 23.1647 19.767 23.074L19.937 22.598C20.0106 22.5923 20.0843 22.5923 20.158 22.598L20.328 23.074C20.362 23.1647 20.4356 23.2383 20.532 23.261C20.6736 23.3007 20.8096 23.3573 20.94 23.431C21.025 23.482 21.127 23.482 21.2176 23.4423L21.6766 23.227C21.7333 23.278 21.7843 23.329 21.8353 23.3857L21.62 23.8447C21.5803 23.9353 21.5803 24.0373 21.6313 24.1223C21.705 24.247 21.7616 24.383 21.8013 24.5303C21.8296 24.6267 21.8976 24.7003 21.9883 24.7343L22.4643 24.9043C22.4643 24.9383 22.47 24.978 22.47 25.012C22.47 25.046 22.47 25.0857 22.4643 25.1197ZM30.9643 27.783C30.7206 27.783 30.5223 27.5847 30.5223 27.341C30.5223 27.0973 30.7206 26.899 30.9643 26.899C31.208 26.899 31.4063 27.0973 31.4063 27.341C31.412 27.5847 31.208 27.783 30.9643 27.783Z" fill="white"/>
<path d="M18.679 22.7794C18.764 22.785 18.8433 22.7907 18.9283 22.7964L18.5146 22.598C18.4863 22.581 18.4523 22.5754 18.4183 22.5697C18.458 22.6887 18.56 22.768 18.679 22.7794Z" fill="white"/>
<path d="M19.1663 13.452C17.897 13.452 16.792 14.1717 16.2366 15.22C15.993 15.6847 15.8513 16.2117 15.8513 16.7727C15.8513 17.3337 15.993 17.8607 16.2366 18.3254C16.792 19.3737 17.897 20.0934 19.1663 20.0934C20.9966 20.0934 22.487 18.603 22.487 16.7727C22.487 14.9424 20.9966 13.452 19.1663 13.452ZM19.1663 19.487C17.6703 19.487 16.452 18.2687 16.452 16.7727C16.452 15.2767 17.6703 14.0584 19.1663 14.0584C20.6623 14.0584 21.8806 15.2767 21.8806 16.7727C21.8806 18.2687 20.6623 19.487 19.1663 19.487Z" fill="white"/>
<path d="M21.569 8.60694C21.569 7.77394 20.8946 7.09961 20.0616 7.09961C19.2286 7.09961 18.5543 7.77394 18.5543 8.60694C18.5543 9.43994 19.2286 10.1143 20.0616 10.1143C20.8946 10.1143 21.569 9.43994 21.569 8.60694ZM20.0616 9.51361C19.563 9.51361 19.155 9.10561 19.155 8.60694C19.155 8.10828 19.563 7.70028 20.0616 7.70028C20.5603 7.70028 20.9683 8.10828 20.9683 8.60694C20.9626 9.10561 20.5603 9.51361 20.0616 9.51361Z" fill="white"/>
<path d="M20.056 23.8049C19.393 23.8049 18.849 24.3489 18.849 25.0119C18.849 25.6749 19.393 26.2189 20.056 26.2189C20.719 26.2189 21.263 25.6749 21.263 25.0119C21.263 24.3433 20.719 23.8049 20.056 23.8049ZM20.056 25.6126C19.7216 25.6126 19.4553 25.3406 19.4553 25.0119C19.4553 24.6776 19.7273 24.4113 20.056 24.4113C20.3903 24.4113 20.6566 24.6833 20.6566 25.0119C20.6566 25.3406 20.3903 25.6126 20.056 25.6126Z" fill="white"/>
</svg>
