<svg width="70" height="70" viewBox="0 0 70 70" fill="none" xmlns="http://www.w3.org/2000/svg">
<g opacity="0.8" filter="url(#filter0_f_1_414)">
<ellipse cx="35.1429" cy="35.1429" rx="9.14286" ry="9.14286" fill="white"/>
</g>
<path d="M28.7348 42.2025C27.9016 42.9035 27.03 43.2175 26.12 43.1446C25.21 43.0717 24.4264 42.7606 23.7691 42.2113C23.1119 41.662 22.6681 40.9416 22.4377 40.05C22.2092 39.1595 22.3726 38.2524 22.9277 37.3288L25.7744 32.6111C25.1852 32.1707 24.7141 31.6107 24.3612 30.9311C24.0093 30.2534 23.8333 29.5146 23.8333 28.7144C23.8333 27.3533 24.3063 26.1993 25.2523 25.2523C26.1982 24.3064 27.3518 23.8334 28.7129 23.8334C30.074 23.8334 31.2276 24.3064 32.1735 25.2523C33.1195 26.1983 33.5925 27.3518 33.5925 28.713C33.5925 30.0741 33.12 31.2281 32.175 32.175C31.23 33.122 30.0764 33.595 28.7144 33.594C28.4207 33.594 28.1369 33.5726 27.8627 33.5298C27.5885 33.4871 27.326 33.4132 27.0752 33.3082L24.1833 38.1032C23.8411 38.6719 23.7371 39.23 23.8712 39.7773C24.0054 40.3247 24.2776 40.769 24.6879 41.1103C25.0982 41.4515 25.5872 41.6459 26.155 41.6936C26.7228 41.7383 27.2696 41.5439 27.7956 41.1103L42.2944 28.7902C43.1091 28.0893 43.9637 27.7718 44.8581 27.838C45.7516 27.9041 46.5366 28.2123 47.2133 28.7625C47.89 29.3118 48.3508 30.0318 48.5958 30.9223C48.8408 31.8129 48.6765 32.7297 48.1029 33.6727L45.2256 38.4167C45.8148 38.8581 46.2858 39.4132 46.6387 40.0821C46.9916 40.751 47.1676 41.486 47.1666 42.2871C47.1666 43.6482 46.6888 44.8018 45.7331 45.7477C44.7784 46.6937 43.62 47.1667 42.2579 47.1667C40.9162 47.1667 39.7724 46.6889 38.8264 45.7332C37.8805 44.7775 37.4075 43.6288 37.4075 42.2871C37.4075 40.9455 37.8805 39.7968 38.8264 38.8411C39.7724 37.8854 40.9162 37.4075 42.2579 37.4075C42.5515 37.4075 42.8393 37.4338 43.1212 37.4863C43.4032 37.5388 43.6691 37.6171 43.9189 37.7211L46.8196 32.8984C47.1608 32.3296 47.2687 31.7716 47.1433 31.2242C47.0179 30.6768 46.7505 30.2325 46.3412 29.8913C45.9329 29.5491 45.4444 29.3502 44.8756 29.2948C44.3069 29.2394 43.76 29.4382 43.235 29.8913L28.7348 42.2025Z" fill="white"/>
<defs>
<filter id="filter0_f_1_414" x="0.799999" y="0.799999" width="68.6857" height="68.6858" filterUnits="userSpaceOnUse" color-interpolation-filters="sRGB">
<feFlood flood-opacity="0" result="BackgroundImageFix"/>
<feBlend mode="normal" in="SourceGraphic" in2="BackgroundImageFix" result="shape"/>
<feGaussianBlur stdDeviation="12.6" result="effect1_foregroundBlur_1_414"/>
</filter>
</defs>
</svg>
