<svg width="72" height="72" viewBox="0 0 72 72" fill="none" xmlns="http://www.w3.org/2000/svg">
<g opacity="0.8" filter="url(#filter0_f_1_491)">
<ellipse cx="35.6667" cy="35.6667" rx="10.6667" ry="10.6667" fill="white"/>
</g>
<g clip-path="url(#clip0_1_491)">
<path d="M51.5417 35.5C51.5417 33.1794 50.6198 30.9538 48.9789 29.3128C47.3379 27.6719 45.1124 26.75 42.7917 26.75C39 26.75 35.8646 29.7396 34.1146 35.0625C32.8021 39.0729 30.6146 41.3334 28.2084 41.3334C26.6613 41.3334 25.1775 40.7188 24.0836 39.6248C22.9896 38.5309 22.375 37.0471 22.375 35.5C22.375 33.9529 22.9896 32.4692 24.0836 31.3752C25.1775 30.2813 26.6613 29.6667 28.2084 29.6667H29.0834L29.0736 29.6765L27.9167 30.8334C27.7582 30.9737 27.6339 31.1484 27.5535 31.3442C27.473 31.5401 27.4385 31.7517 27.4526 31.9629C27.4667 32.1741 27.529 32.3793 27.6347 32.5627C27.7405 32.7461 27.8868 32.9028 28.0625 33.0209C28.3552 33.2327 28.7133 33.3343 29.0736 33.3076C29.4338 33.2809 29.7731 33.1277 30.0313 32.875L33.6042 29.2292C33.7457 29.0994 33.8586 28.9417 33.9358 28.7659C34.0131 28.5902 34.053 28.4003 34.053 28.2084C34.053 28.0164 34.0131 27.8265 33.9358 27.6508C33.8586 27.4751 33.7457 27.3173 33.6042 27.1875L30.0313 23.5417C29.7731 23.2891 29.4338 23.1359 29.0736 23.1092C28.7133 23.0825 28.3552 23.184 28.0625 23.3959C27.8868 23.5139 27.7405 23.6706 27.6347 23.854C27.529 24.0374 27.4667 24.2426 27.4526 24.4538C27.4385 24.665 27.473 24.8767 27.5535 25.0725C27.6339 25.2683 27.7582 25.4431 27.9167 25.5834L29.0834 26.75H28.2084C25.8877 26.75 23.6621 27.6719 22.0212 29.3128C20.3802 30.9538 19.4584 33.1794 19.4584 35.5C19.4584 37.8207 20.3802 40.0463 22.0212 41.6872C23.6621 43.3282 25.8877 44.25 28.2084 44.25C32 44.25 35.1355 41.2604 36.8855 35.9375C38.198 31.9271 40.3855 29.6667 42.7917 29.6667C44.3388 29.6667 45.8225 30.2813 46.9165 31.3752C48.0105 32.4692 48.625 33.9529 48.625 35.5C48.625 37.0471 48.0105 38.5309 46.9165 39.6248C45.8225 40.7188 44.3388 41.3334 42.7917 41.3334H41.9167L43.0834 40.1667C43.2419 40.0264 43.3661 39.8516 43.4466 39.6558C43.527 39.46 43.5615 39.2484 43.5475 39.0371C43.5334 38.8259 43.4711 38.6207 43.3654 38.4373C43.2596 38.254 43.1133 38.0972 42.9375 37.9792C42.6449 37.7674 42.2868 37.6658 41.9265 37.6925C41.5663 37.7192 41.227 37.8724 40.9688 38.125L37.3959 41.7709C37.2544 41.9006 37.1415 42.0584 37.0642 42.2341C36.987 42.4099 36.9471 42.5997 36.9471 42.7917C36.9471 42.9837 36.987 43.1735 37.0642 43.3493C37.1415 43.525 37.2544 43.6828 37.3959 43.8125L40.9688 47.4584C41.227 47.711 41.5663 47.8642 41.9265 47.8909C42.2868 47.9176 42.6449 47.816 42.9375 47.6042C43.1133 47.4862 43.2596 47.3294 43.3654 47.146C43.4711 46.9627 43.5334 46.7575 43.5475 46.5462C43.5615 46.335 43.527 46.1234 43.4466 45.9276C43.3661 45.7318 43.2419 45.557 43.0834 45.4167L41.9167 44.25H42.7917C45.1124 44.25 47.3379 43.3282 48.9789 41.6872C50.6198 40.0463 51.5417 37.8207 51.5417 35.5Z" fill="white"/>
<g clip-path="url(#clip1_1_491)">
<path opacity="0.34" d="M43.4625 35.0625C43.9458 35.0625 44.3375 34.6708 44.3375 34.1875C44.3375 33.7042 43.9458 33.3125 43.4625 33.3125C42.9793 33.3125 42.5875 33.7042 42.5875 34.1875C42.5875 34.6708 42.9793 35.0625 43.4625 35.0625Z" stroke="white" stroke-width="0.5" stroke-miterlimit="10" stroke-linecap="round" stroke-linejoin="round"/>
<path d="M40.5459 34.4441V33.9308C40.5459 33.6274 40.7938 33.3766 41.1001 33.3766C41.628 33.3766 41.8438 33.0033 41.5784 32.5454C41.4267 32.2829 41.5171 31.9416 41.7826 31.79L42.2871 31.5012C42.5176 31.3641 42.8151 31.4458 42.9521 31.6762L42.9842 31.7316C43.2467 32.1895 43.6784 32.1895 43.9438 31.7316L43.9759 31.6762C44.113 31.4458 44.4105 31.3641 44.6409 31.5012L45.1455 31.79C45.4109 31.9416 45.5013 32.2829 45.3496 32.5454C45.0842 33.0033 45.3001 33.3766 45.828 33.3766C46.1313 33.3766 46.3821 33.6245 46.3821 33.9308V34.4441C46.3821 34.7474 46.1342 34.9983 45.828 34.9983C45.3001 34.9983 45.0842 35.3716 45.3496 35.8295C45.5013 36.0949 45.4109 36.4333 45.1455 36.5849L44.6409 36.8737C44.4105 37.0108 44.113 36.9291 43.9759 36.6987L43.9438 36.6433C43.6813 36.1854 43.2496 36.1854 42.9842 36.6433L42.9521 36.6987C42.8151 36.9291 42.5176 37.0108 42.2871 36.8737L41.7826 36.5849C41.5171 36.4333 41.4267 36.092 41.5784 35.8295C41.8438 35.3716 41.628 34.9983 41.1001 34.9983C40.7938 34.9983 40.5459 34.7474 40.5459 34.4441Z" stroke="white" stroke-width="0.5" stroke-miterlimit="10" stroke-linecap="round" stroke-linejoin="round"/>
</g>
<g clip-path="url(#clip2_1_491)">
<path opacity="0.34" d="M27.5813 37.8187C28.0646 37.8187 28.4563 37.427 28.4563 36.9437C28.4563 36.4605 28.0646 36.0687 27.5813 36.0687C27.098 36.0687 26.7063 36.4605 26.7063 36.9437C26.7063 37.427 27.098 37.8187 27.5813 37.8187Z" stroke="white" stroke-width="0.5" stroke-miterlimit="10" stroke-linecap="round" stroke-linejoin="round"/>
<path d="M24.6647 37.2003V36.687C24.6647 36.3837 24.9126 36.1329 25.2188 36.1329C25.7468 36.1329 25.9626 35.7595 25.6972 35.3016C25.5455 35.0391 25.6359 34.6979 25.9013 34.5462L26.4059 34.2574C26.6363 34.1204 26.9338 34.202 27.0709 34.4324L27.103 34.4879C27.3655 34.9458 27.7972 34.9458 28.0626 34.4879L28.0947 34.4324C28.2318 34.202 28.5293 34.1204 28.7597 34.2574L29.2643 34.5462C29.5297 34.6979 29.6201 35.0391 29.4684 35.3016C29.203 35.7595 29.4188 36.1329 29.9468 36.1329C30.2501 36.1329 30.5009 36.3808 30.5009 36.687V37.2003C30.5009 37.5037 30.253 37.7545 29.9468 37.7545C29.4188 37.7545 29.203 38.1278 29.4684 38.5858C29.6201 38.8512 29.5297 39.1895 29.2643 39.3412L28.7597 39.6299C28.5293 39.767 28.2318 39.6853 28.0947 39.4549L28.0626 39.3995C27.8001 38.9416 27.3684 38.9416 27.103 39.3995L27.0709 39.4549C26.9338 39.6853 26.6363 39.767 26.4059 39.6299L25.9013 39.3412C25.6359 39.1895 25.5455 38.8483 25.6972 38.5858C25.9626 38.1278 25.7468 37.7545 25.2188 37.7545C24.9126 37.7545 24.6647 37.5037 24.6647 37.2003Z" stroke="white" stroke-width="0.5" stroke-miterlimit="10" stroke-linecap="round" stroke-linejoin="round"/>
</g>
</g>
<defs>
<filter id="filter0_f_1_491" x="0" y="0" width="71.3334" height="71.3334" filterUnits="userSpaceOnUse" color-interpolation-filters="sRGB">
<feFlood flood-opacity="0" result="BackgroundImageFix"/>
<feBlend mode="normal" in="SourceGraphic" in2="BackgroundImageFix" result="shape"/>
<feGaussianBlur stdDeviation="12.5" result="effect1_foregroundBlur_1_491"/>
</filter>
<clipPath id="clip0_1_491">
<rect width="35" height="35" fill="white" transform="translate(18 18)"/>
</clipPath>
<clipPath id="clip1_1_491">
<rect width="7" height="7" fill="white" transform="translate(39.9625 30.6875)"/>
</clipPath>
<clipPath id="clip2_1_491">
<rect width="7" height="7" fill="white" transform="translate(24.0813 33.4437)"/>
</clipPath>
</defs>
</svg>
