<svg width="385" height="387" viewBox="0 0 385 387" fill="none" xmlns="http://www.w3.org/2000/svg">
<g filter="url(#filter0_f_52_142)">
<path d="M299.932 296.909C299.932 292.541 251.815 292.541 192.466 292.541C133.117 292.541 85 292.541 85 296.909C85 301.278 133.117 301.278 192.466 301.278C251.815 301.278 299.932 301.278 299.932 296.909Z" fill="#2BFF63" fill-opacity="0.69"/>
</g>
<path d="M145.96 249.072C145.166 261.278 138.488 272.975 128.379 279.857C124.683 282.372 119.868 284.652 119.623 289.121L243.213 288.47C246.451 274.716 250.411 260.178 253.648 246.435C217.477 246.7 182.131 248.817 145.96 249.072Z" fill="url(#paint0_linear_52_142)"/>
<path d="M198.806 251.464C197.982 262.795 192.403 273.698 183.699 280.997C180.94 283.308 177.214 285.049 175.707 288.317" stroke="black" stroke-linecap="round" stroke-linejoin="round"/>
<path d="M178.079 286.668C200.283 285.762 222.486 284.866 244.689 283.96" stroke="black" stroke-linecap="round" stroke-linejoin="round"/>
<path d="M120.957 286.505C139.587 286.322 158.207 286.138 176.837 285.955" stroke="black" stroke-linecap="round" stroke-linejoin="round"/>
<path d="M324.107 131.651C324.107 131.656 324.102 131.66 324.097 131.659C290.224 122.971 253.732 122.246 220.157 131.958C218.036 132.572 216.599 134.577 216.163 136.741C215.647 139.297 213.532 141.518 210.928 141.641C203.965 141.969 196.959 141.795 190.021 142.412C181.469 142.096 173.814 148.5 169.049 155.605C164.285 162.711 162.076 171.171 159.948 179.458C155.091 198.345 150.241 217.232 145.386 236.119C143.447 243.665 149.099 251.03 156.89 251.107L245.404 251.988C251.094 252.044 256.032 248.094 257.366 242.563C260.488 229.625 264.12 216.652 267.207 203.711C268.384 198.775 272.459 195.074 277.476 194.315C283.103 193.465 288.684 192.375 294.075 190.585C302.137 187.898 309.844 183.5 315.138 176.852C324.911 164.554 324.748 147.349 324.107 131.651Z" fill="url(#paint1_linear_52_142)"/>
<path d="M272.4 182.186C271.311 186.88 270.232 191.573 269.143 196.266C270.446 194.607 271.739 192.947 273.042 191.298" stroke="#060305" stroke-linecap="round" stroke-linejoin="round"/>
<path d="M197.259 250.772C203.754 222.267 210.239 193.751 216.734 165.246C219.086 154.934 226.986 146.087 237.38 144.122" stroke="#060305" stroke-linecap="round" stroke-linejoin="round"/>
<path d="M230.966 153.447C235.435 150.037 241.951 149.569 246.868 152.287" stroke="#060305" stroke-linecap="round" stroke-linejoin="round"/>
<path d="M179.097 150.963C181.245 148.581 184.391 147.125 187.598 147.023C190.805 146.922 194.032 148.174 196.333 150.413" stroke="#060305" stroke-linecap="round" stroke-linejoin="round"/>
<path d="M144.148 242.862C144.148 242.862 243.59 243.483 255.379 243.635" stroke="#060305" stroke-linecap="round" stroke-linejoin="round"/>
<path d="M306.403 36.6782C297.444 34.3062 289.493 33.0031 280.392 31.2012C279.7 33.9193 277.094 36.0267 274.294 36.1386C271.495 36.2608 268.899 34.4691 267.972 31.8222C260.988 33.8888 254.015 35.9656 247.031 38.0322C236.372 41.1983 227.006 48.4671 219.412 56.5911C213.232 63.1879 206.788 69.3471 200.558 75.8931C208.335 98.3103 215.065 112.695 225.255 134.115L323.129 124.891C328.454 106.577 334.338 96.5491 339.662 78.2345C342.157 76.117 345.343 73.9791 347.837 71.8616C340.426 54.9215 329.625 42.817 306.393 36.668L306.403 36.6782Z" fill="url(#paint2_linear_52_142)"/>
<path d="M259.217 34.5301C260.113 39.0808 263.941 42.7355 268.379 44.0793C272.818 45.4231 277.715 44.6494 281.889 42.6439C286.063 40.6384 289.595 37.4824 292.67 34.0109" stroke="#060305" stroke-linecap="round" stroke-linejoin="round"/>
<path d="M232.738 45.3315C231.19 55.0538 229.653 64.7863 228.106 74.5085" stroke="#060305" stroke-linecap="round" stroke-linejoin="round"/>
<path d="M316.38 40.2617C312.42 40.4347 308.602 42.5217 306.301 45.7591C304.011 48.9863 303.726 53.1907 304.448 57.0797C306.403 67.6367 308.195 75.781 311.025 84.9739" stroke="#060305" stroke-linecap="round" stroke-linejoin="round"/>
<path d="M310.058 80.6982C322.274 76.7788 334.491 72.8491 346.707 68.9297" stroke="#060305" stroke-linecap="round" stroke-linejoin="round"/>
<path d="M353.294 94.0345C351.818 86.6028 348.825 79.558 345.852 72.5844L313.315 84.6176C314.354 89.0461 315.392 93.4847 316.431 97.9132C307.91 100.367 299.032 102.281 290.522 104.734C280.972 107.483 271.535 110.547 262.709 115.128C259.604 121.623 256.59 127.935 253.485 134.43C252.976 135.489 253.221 137.199 254.106 137.973C254.982 138.747 256.265 139.042 257.395 138.716C263.401 137.016 268.583 132.282 273.968 129.116C270.039 133.29 266.262 137.607 262.668 142.076C264.083 143.369 266.252 143.308 267.829 142.208C272.665 138.818 277.745 136.171 282.652 132.903C280.85 135.621 279.048 138.329 277.246 141.048C277.369 141.75 278.03 142.076 278.743 142.035C279.445 141.984 280.087 141.597 280.687 141.231C283.141 139.694 285.604 138.166 288.058 136.629C292.731 137.281 298.126 136.263 302.697 135.072C313.845 132.17 326.071 134.705 336.71 130.287C343.348 127.528 348.631 122.926 351.563 116.36C354.658 109.437 354.78 101.476 353.294 94.0447V94.0345Z" fill="#C38989"/>
<path d="M315.637 97.9437C318.141 97.5161 320.635 97.0886 323.14 96.661" stroke="#060305" stroke-linecap="round" stroke-linejoin="round"/>
<path d="M254.646 136.721C259.349 131.407 264.053 126.103 268.766 120.788" stroke="#060305" stroke-linecap="round" stroke-linejoin="round"/>
<path d="M275.74 127.497C274.61 128.699 273.48 129.9 272.349 131.091" stroke="#060305" stroke-linecap="round" stroke-linejoin="round"/>
<path d="M236.311 77.5121L256.458 137.729H295.439C297.414 137.729 298.676 139.959 297.556 141.598C296.294 143.44 294.217 144.54 291.998 144.54H155.102C152.303 144.54 149.819 142.748 148.923 140.081L127.982 77.5121C127.249 75.3233 128.867 73.053 131.168 73.053H230.111C232.911 73.053 235.395 74.8448 236.291 77.5121H236.311Z" fill="url(#paint3_linear_52_142)"/>
<path d="M184.015 109.845C184.015 107.452 185.949 105.518 188.321 105.518C190.693 105.518 192.627 107.452 192.627 109.845C192.627 112.237 190.693 114.171 188.321 114.171C185.949 114.171 184.015 112.237 184.015 109.845Z" fill="url(#paint4_linear_52_142)"/>
<path d="M230.132 73.0425L254.198 144.539" stroke="white" stroke-linecap="round" stroke-linejoin="round"/>
<path d="M130.079 75.6793H178.833" stroke="white" stroke-linecap="round" stroke-linejoin="round"/>
<path d="M261.253 141.139C261.253 140.203 260.49 139.439 259.553 139.439C258.616 139.439 257.853 140.203 257.853 141.139C257.853 142.076 258.616 142.839 259.553 142.839C260.49 142.839 261.253 142.076 261.253 141.139Z" stroke="white" stroke-linecap="round" stroke-linejoin="round"/>
<path d="M265.722 141.139H270.354" stroke="white" stroke-linecap="round" stroke-linejoin="round"/>
<path d="M289.534 13.355C289.605 16.2463 290.847 19.107 292.995 21.3365C294.156 22.5377 295.581 23.566 296.599 24.8589C297.617 26.1518 298.208 27.8621 297.454 29.2873" stroke="#060305" stroke-linecap="round" stroke-linejoin="round"/>
<path d="M284.21 4.65078C284.586 4.35555 284.953 4.0705 285.33 3.77527" stroke="#060305" stroke-linecap="round" stroke-linejoin="round"/>
<path d="M294.767 25.2966C293.973 24.1156 292.832 23.179 292.069 21.9778C290.593 19.6363 290.735 16.6636 290.226 13.9352C289.055 7.6743 283.863 2.36014 277.633 1.04687C271.403 -0.2664 264.511 2.49249 260.907 7.73539C258.922 10.6266 257.934 14.0574 256.682 17.3355C255.43 20.6034 253.77 23.912 250.91 25.9379L295.123 29.3076C295.948 28.1471 295.551 26.4877 294.746 25.3067L294.767 25.2966Z" fill="#060305"/>
<path d="M287.579 33.492C285.839 33.2375 283.69 33.0949 281.939 32.8404C281.817 30.8044 281.705 28.7886 281.593 26.7526C283.772 26.722 285.849 25.1848 286.51 23.0978C287.172 21.021 286.348 18.5574 284.586 17.2848C282.815 16.0123 280.229 16.0123 278.458 17.295C278.091 15.8392 277.491 14.1085 277.124 12.6527C275.617 13.1007 273.683 11.8179 273.408 10.2705C273.103 10.973 271.84 11.2275 271.087 11.1257C270.334 11.0239 269.662 10.5861 269.071 10.1076C268.481 9.62916 267.921 9.08959 267.249 8.7231C266.221 8.16318 264.948 8.08174 263.859 8.48896C262.77 8.89617 261.864 9.80223 261.456 10.8915C260.062 14.587 258.27 18.2723 258.27 22.2223C258.27 24.635 259.166 26.8035 260.785 28.585C262.403 30.3666 264.724 31.4966 267.127 31.6595C267.137 32.4536 267.178 32.9015 267.188 33.6956C265.854 33.9501 263.971 34.1842 262.637 34.4387C263.655 37.727 266.089 39.9871 269.428 40.8524C272.767 41.7177 276.361 41.1069 279.486 39.6409C282.611 38.1749 285.207 35.976 287.579 33.4818V33.492Z" fill="#C38989"/>
<path d="M280.178 20.695C281.003 20.4506 281.828 20.2165 282.652 19.9722" stroke="#060305" stroke-linecap="round" stroke-linejoin="round"/>
<path d="M279.71 26.8337C280.362 26.9152 281.013 27.0068 281.675 27.0882" stroke="#060305" stroke-linecap="round" stroke-linejoin="round"/>
<path d="M266.536 31.8731C268.766 32.433 271.179 32.1989 273.266 31.2318" stroke="#060305" stroke-linecap="round" stroke-linejoin="round"/>
<path d="M263.961 8.38691C264.623 8.05096 265.457 8.2851 266.027 8.76358C266.598 9.24206 266.944 9.92415 267.28 10.5859" stroke="#060305" stroke-linecap="round" stroke-linejoin="round"/>
<path d="M271.861 19.4529C272.423 19.4529 272.879 18.9972 272.879 18.4349C272.879 17.8727 272.423 17.4169 271.861 17.4169C271.299 17.4169 270.843 17.8727 270.843 18.4349C270.843 18.9972 271.299 19.4529 271.861 19.4529Z" fill="#060305"/>
<path d="M261.884 17.6511C262.446 17.6511 262.902 17.1953 262.902 16.6331C262.902 16.0708 262.446 15.6151 261.884 15.6151C261.322 15.6151 260.866 16.0708 260.866 16.6331C260.866 17.1953 261.322 17.6511 261.884 17.6511Z" fill="#060305"/>
<path d="M266.333 16.8468C265.916 17.875 265.498 18.9032 265.071 19.9315C265.427 20.0129 265.732 20.2267 266.089 20.3081" stroke="#060305" stroke-linecap="round" stroke-linejoin="round"/>
<path d="M267.626 22.273C267.799 22.7515 268.359 23.0671 268.858 22.9652C269.357 22.8634 269.754 22.3646 269.733 21.8454" stroke="#060305" stroke-linecap="round" stroke-linejoin="round"/>
<path d="M260.886 12.571C261.497 12.0009 262.414 11.7769 263.218 12.0111C264.022 12.2452 264.684 12.9172 264.898 13.7214" stroke="#060305" stroke-linecap="round" stroke-linejoin="round"/>
<path d="M269.886 14.2305C270.904 14.3119 271.912 14.3933 272.93 14.4748" stroke="#060305" stroke-linecap="round" stroke-linejoin="round"/>
<defs>
<filter id="filter0_f_52_142" x="0" y="207.541" width="384.932" height="178.737" filterUnits="userSpaceOnUse" color-interpolation-filters="sRGB">
<feFlood flood-opacity="0" result="BackgroundImageFix"/>
<feBlend mode="normal" in="SourceGraphic" in2="BackgroundImageFix" result="shape"/>
<feGaussianBlur stdDeviation="42.5" result="effect1_foregroundBlur_52_142"/>
</filter>
<linearGradient id="paint0_linear_52_142" x1="145.303" y1="287.813" x2="153.734" y2="241.298" gradientUnits="userSpaceOnUse">
<stop stop-color="#9299A4"/>
<stop offset="0.81" stop-color="#E9E9E8"/>
<stop offset="1" stop-color="#FFFDFA"/>
</linearGradient>
<linearGradient id="paint1_linear_52_142" x1="232.966" y1="124.908" x2="232.966" y2="252.085" gradientUnits="userSpaceOnUse">
<stop stop-color="#1AB5E9"/>
<stop offset="1" stop-color="#4F73F6"/>
</linearGradient>
<linearGradient id="paint2_linear_52_142" x1="228.777" y1="130.961" x2="268.549" y2="30.948" gradientUnits="userSpaceOnUse">
<stop stop-color="#9299A4"/>
<stop offset="0.81" stop-color="#E9E9E8"/>
<stop offset="1" stop-color="#FFFDFA"/>
</linearGradient>
<linearGradient id="paint3_linear_52_142" x1="245.657" y1="109.081" x2="127.803" y2="108.796" gradientUnits="userSpaceOnUse">
<stop stop-color="#1F1F1F"/>
<stop offset="0.634" stop-color="#4A4A4A"/>
<stop offset="1" stop-color="#858585"/>
</linearGradient>
<linearGradient id="paint4_linear_52_142" x1="188.321" y1="105.518" x2="188.321" y2="114.171" gradientUnits="userSpaceOnUse">
<stop stop-color="#1AB5E9"/>
<stop offset="1" stop-color="#4F73F6"/>
</linearGradient>
</defs>
</svg>
