<svg width="1040" height="980" viewBox="0 0 1040 980" fill="none" xmlns="http://www.w3.org/2000/svg">
<g opacity="0.2" filter="url(#filter0_f_1_528)">
<ellipse cx="519.5" cy="487.5" rx="377.5" ry="357.5" fill="url(#paint0_linear_1_528)"/>
<path d="M896 487.5C896 684.339 727.487 844 519.5 844C311.513 844 143 684.339 143 487.5C143 290.661 311.513 131 519.5 131C727.487 131 896 290.661 896 487.5Z" stroke="white" stroke-opacity="0.2" stroke-width="2"/>
</g>
<g opacity="0.2">
<g filter="url(#filter1_i_1_528)">
<ellipse cx="519.5" cy="500.5" rx="377.5" ry="345.5" fill="url(#paint1_linear_1_528)"/>
</g>
<path d="M896 500.5C896 690.681 727.52 845 519.5 845C311.48 845 143 690.681 143 500.5C143 310.319 311.48 156 519.5 156C727.52 156 896 310.319 896 500.5Z" stroke="white" stroke-opacity="0.2" stroke-width="2"/>
</g>
<path d="M886.339 500.713C886.339 677.31 719.614 820.594 513.782 820.594C307.951 820.594 141.225 677.31 141.225 500.713C141.225 324.116 307.951 180.831 513.782 180.831C719.614 180.831 886.339 324.116 886.339 500.713Z" stroke="url(#paint2_linear_1_528)"/>
<g filter="url(#filter2_ddddd_1_528)">
<ellipse cx="513.782" cy="500.713" rx="373.057" ry="320.381" fill="url(#paint3_linear_1_528)"/>
</g>
<g filter="url(#filter3_i_1_528)">
<ellipse cx="514.197" cy="513.731" rx="377.617" ry="333.731" fill="url(#paint4_linear_1_528)"/>
</g>
<g filter="url(#filter4_f_1_528)">
<ellipse cx="520" cy="521.429" rx="400" ry="337.902" fill="url(#paint5_linear_1_528)"/>
</g>
<mask id="mask0_1_528" style="mask-type:alpha" maskUnits="userSpaceOnUse" x="293" y="179" width="453" height="156">
<g style="mix-blend-mode:overlay" opacity="0.3">
<path d="M304.253 180H294V188.09M304.253 180V188.09M304.253 180H314.506M304.253 188.09H294M304.253 188.09V196.18M304.253 188.09H314.506M294 188.09V196.18M304.253 196.18H294M304.253 196.18V204.27M304.253 196.18H314.506M294 196.18V204.27M304.253 204.27H294M304.253 204.27V212.36M304.253 204.27H314.506M294 204.27V212.36M304.253 212.36H294M304.253 212.36V220.45M304.253 212.36H314.506M294 212.36V220.45M304.253 220.45H294M304.253 220.45V228.54M304.253 220.45H314.506M294 220.45V228.54M304.253 228.54H294M304.253 228.54V236.631M304.253 228.54H314.506M294 228.54V236.631M304.253 236.631H294M304.253 236.631V244.721M304.253 236.631H314.506M294 236.631V244.721M304.253 244.721H294M304.253 244.721V252.811M304.253 244.721H314.506M294 244.721V252.811M304.253 252.811H294M304.253 252.811V260.901M304.253 252.811H314.506M294 252.811V260.901M304.253 260.901H294M304.253 260.901V268.991M304.253 260.901H314.506M294 260.901V268.991M304.253 268.991H294M304.253 268.991V277.081M304.253 268.991H314.506M294 268.991V277.081M304.253 277.081H294M304.253 277.081V285.171M304.253 277.081H314.506M294 277.081V285.171M304.253 285.171H294M304.253 285.171V293.261M304.253 285.171H314.506M294 285.171V293.261M304.253 293.261H294M304.253 293.261V301.351M304.253 293.261H314.506M294 293.261V301.351M304.253 301.351H294M304.253 301.351V309.441M304.253 301.351H314.506M294 301.351V309.441M304.253 309.441H294M304.253 309.441V317.531M304.253 309.441H314.506M294 309.441V317.531M304.253 317.531H294M304.253 317.531V325.621M304.253 317.531H314.506M294 317.531V325.621M304.253 325.621H294M304.253 325.621V333.712M304.253 325.621H314.506M294 325.621V333.712H304.253M304.253 333.712H314.506M314.506 180V188.09M314.506 180H324.759M314.506 188.09V196.18M314.506 188.09H324.759M314.506 196.18V204.27M314.506 196.18H324.759M314.506 204.27V212.36M314.506 204.27H324.759M314.506 212.36V220.45M314.506 212.36H324.759M314.506 220.45V228.54M314.506 220.45H324.759M314.506 228.54V236.631M314.506 228.54H324.759M314.506 236.631V244.721M314.506 236.631H324.759M314.506 244.721V252.811M314.506 244.721H324.759M314.506 252.811V260.901M314.506 252.811H324.759M314.506 260.901V268.991M314.506 260.901H324.759M314.506 268.991V277.081M314.506 268.991H324.759M314.506 277.081V285.171M314.506 277.081H324.759M314.506 285.171V293.261M314.506 285.171H324.759M314.506 293.261V301.351M314.506 293.261H324.759M314.506 301.351V309.441M314.506 301.351H324.759M314.506 309.441V317.531M314.506 309.441H324.759M314.506 317.531V325.621M314.506 317.531H324.759M314.506 325.621V333.712M314.506 325.621H324.759M314.506 333.712H324.759M324.759 180V188.09M324.759 180H335.012M324.759 188.09V196.18M324.759 188.09H335.012M324.759 196.18V204.27M324.759 196.18H335.012M324.759 204.27V212.36M324.759 204.27H335.012M324.759 212.36V220.45M324.759 212.36H335.012M324.759 220.45V228.54M324.759 220.45H335.012M324.759 228.54V236.631M324.759 228.54H335.012M324.759 236.631V244.721M324.759 236.631H335.012M324.759 244.721V252.811M324.759 244.721H335.012M324.759 252.811V260.901M324.759 252.811H335.012M324.759 260.901V268.991M324.759 260.901H335.012M324.759 268.991V277.081M324.759 268.991H335.012M324.759 277.081V285.171M324.759 277.081H335.012M324.759 285.171V293.261M324.759 285.171H335.012M324.759 293.261V301.351M324.759 293.261H335.012M324.759 301.351V309.441M324.759 301.351H335.012M324.759 309.441V317.531M324.759 309.441H335.012M324.759 317.531V325.621M324.759 317.531H335.012M324.759 325.621V333.712M324.759 325.621H335.012M324.759 333.712H335.012M335.012 180V188.09M335.012 180H345.266M335.012 188.09V196.18M335.012 188.09H345.266M335.012 196.18V204.27M335.012 196.18H345.266M335.012 204.27V212.36M335.012 204.27H345.266M335.012 212.36V220.45M335.012 212.36H345.266M335.012 220.45V228.54M335.012 220.45H345.266M335.012 228.54V236.631M335.012 228.54H345.266M335.012 236.631V244.721M335.012 236.631H345.266M335.012 244.721V252.811M335.012 244.721H345.266M335.012 252.811V260.901M335.012 252.811H345.266M335.012 260.901V268.991M335.012 260.901H345.266M335.012 268.991V277.081M335.012 268.991H345.266M335.012 277.081V285.171M335.012 277.081H345.266M335.012 285.171V293.261M335.012 285.171H345.266M335.012 293.261V301.351M335.012 293.261H345.266M335.012 301.351V309.441M335.012 301.351H345.266M335.012 309.441V317.531M335.012 309.441H345.266M335.012 317.531V325.621M335.012 317.531H345.266M335.012 325.621V333.712M335.012 325.621H345.266M335.012 333.712H345.266M345.266 180V188.09M345.266 180H355.519M345.266 188.09V196.18M345.266 188.09H355.519M345.266 196.18V204.27M345.266 196.18H355.519M345.266 204.27V212.36M345.266 204.27H355.519M345.266 212.36V220.45M345.266 212.36H355.519M345.266 220.45V228.54M345.266 220.45H355.519M345.266 228.54V236.631M345.266 228.54H355.519M345.266 236.631V244.721M345.266 236.631H355.519M345.266 244.721V252.811M345.266 244.721H355.519M345.266 252.811V260.901M345.266 252.811H355.519M345.266 260.901V268.991M345.266 260.901H355.519M345.266 268.991V277.081M345.266 268.991H355.519M345.266 277.081V285.171M345.266 277.081H355.519M345.266 285.171V293.261M345.266 285.171H355.519M345.266 293.261V301.351M345.266 293.261H355.519M345.266 301.351V309.441M345.266 301.351H355.519M345.266 309.441V317.531M345.266 309.441H355.519M345.266 317.531V325.621M345.266 317.531H355.519M345.266 325.621V333.712M345.266 325.621H355.519M345.266 333.712H355.519M355.519 180V188.09M355.519 180H365.772M355.519 188.09V196.18M355.519 188.09H365.772M355.519 196.18V204.27M355.519 196.18H365.772M355.519 204.27V212.36M355.519 204.27H365.772M355.519 212.36V220.45M355.519 212.36H365.772M355.519 220.45V228.54M355.519 220.45H365.772M355.519 228.54V236.631M355.519 228.54H365.772M355.519 236.631V244.721M355.519 236.631H365.772M355.519 244.721V252.811M355.519 244.721H365.772M355.519 252.811V260.901M355.519 252.811H365.772M355.519 260.901V268.991M355.519 260.901H365.772M355.519 268.991V277.081M355.519 268.991H365.772M355.519 277.081V285.171M355.519 277.081H365.772M355.519 285.171V293.261M355.519 285.171H365.772M355.519 293.261V301.351M355.519 293.261H365.772M355.519 301.351V309.441M355.519 301.351H365.772M355.519 309.441V317.531M355.519 309.441H365.772M355.519 317.531V325.621M355.519 317.531H365.772M355.519 325.621V333.712M355.519 325.621H365.772M355.519 333.712H365.772M365.772 180V188.09M365.772 180H376.025M365.772 188.09V196.18M365.772 188.09H376.025M365.772 196.18V204.27M365.772 196.18H376.025M365.772 204.27V212.36M365.772 204.27H376.025M365.772 212.36V220.45M365.772 212.36H376.025M365.772 220.45V228.54M365.772 220.45H376.025M365.772 228.54V236.631M365.772 228.54H376.025M365.772 236.631V244.721M365.772 236.631H376.025M365.772 244.721V252.811M365.772 244.721H376.025M365.772 252.811V260.901M365.772 252.811H376.025M365.772 260.901V268.991M365.772 260.901H376.025M365.772 268.991V277.081M365.772 268.991H376.025M365.772 277.081V285.171M365.772 277.081H376.025M365.772 285.171V293.261M365.772 285.171H376.025M365.772 293.261V301.351M365.772 293.261H376.025M365.772 301.351V309.441M365.772 301.351H376.025M365.772 309.441V317.531M365.772 309.441H376.025M365.772 317.531V325.621M365.772 317.531H376.025M365.772 325.621V333.712M365.772 325.621H376.025M365.772 333.712H376.025M376.025 180V188.09M376.025 180H386.278M376.025 188.09V196.18M376.025 188.09H386.278M376.025 196.18V204.27M376.025 196.18H386.278M376.025 204.27V212.36M376.025 204.27H386.278M376.025 212.36V220.45M376.025 212.36H386.278M376.025 220.45V228.54M376.025 220.45H386.278M376.025 228.54V236.631M376.025 228.54H386.278M376.025 236.631V244.721M376.025 236.631H386.278M376.025 244.721V252.811M376.025 244.721H386.278M376.025 252.811V260.901M376.025 252.811H386.278M376.025 260.901V268.991M376.025 260.901H386.278M376.025 268.991V277.081M376.025 268.991H386.278M376.025 277.081V285.171M376.025 277.081H386.278M376.025 285.171V293.261M376.025 285.171H386.278M376.025 293.261V301.351M376.025 293.261H386.278M376.025 301.351V309.441M376.025 301.351H386.278M376.025 309.441V317.531M376.025 309.441H386.278M376.025 317.531V325.621M376.025 317.531H386.278M376.025 325.621V333.712M376.025 325.621H386.278M376.025 333.712H386.278M386.278 180V188.09M386.278 180H396.531M386.278 188.09V196.18M386.278 188.09H396.531M386.278 196.18V204.27M386.278 196.18H396.531M386.278 204.27V212.36M386.278 204.27H396.531M386.278 212.36V220.45M386.278 212.36H396.531M386.278 220.45V228.54M386.278 220.45H396.531M386.278 228.54V236.631M386.278 228.54H396.531M386.278 236.631V244.721M386.278 236.631H396.531M386.278 244.721V252.811M386.278 244.721H396.531M386.278 252.811V260.901M386.278 252.811H396.531M386.278 260.901V268.991M386.278 260.901H396.531M386.278 268.991V277.081M386.278 268.991H396.531M386.278 277.081V285.171M386.278 277.081H396.531M386.278 285.171V293.261M386.278 285.171H396.531M386.278 293.261V301.351M386.278 293.261H396.531M386.278 301.351V309.441M386.278 301.351H396.531M386.278 309.441V317.531M386.278 309.441H396.531M386.278 317.531V325.621M386.278 317.531H396.531M386.278 325.621V333.712M386.278 325.621H396.531M386.278 333.712H396.531M396.531 180V188.09M396.531 180H406.784M396.531 188.09V196.18M396.531 188.09H406.784M396.531 196.18V204.27M396.531 196.18H406.784M396.531 204.27V212.36M396.531 204.27H406.784M396.531 212.36V220.45M396.531 212.36H406.784M396.531 220.45V228.54M396.531 220.45H406.784M396.531 228.54V236.631M396.531 228.54H406.784M396.531 236.631V244.721M396.531 236.631H406.784M396.531 244.721V252.811M396.531 244.721H406.784M396.531 252.811V260.901M396.531 252.811H406.784M396.531 260.901V268.991M396.531 260.901H406.784M396.531 268.991V277.081M396.531 268.991H406.784M396.531 277.081V285.171M396.531 277.081H406.784M396.531 285.171V293.261M396.531 285.171H406.784M396.531 293.261V301.351M396.531 293.261H406.784M396.531 301.351V309.441M396.531 301.351H406.784M396.531 309.441V317.531M396.531 309.441H406.784M396.531 317.531V325.621M396.531 317.531H406.784M396.531 325.621V333.712M396.531 325.621H406.784M396.531 333.712H406.784M406.784 180V188.09M406.784 180H417.037M406.784 188.09V196.18M406.784 188.09H417.037M406.784 196.18V204.27M406.784 196.18H417.037M406.784 204.27V212.36M406.784 204.27H417.037M406.784 212.36V220.45M406.784 212.36H417.037M406.784 220.45V228.54M406.784 220.45H417.037M406.784 228.54V236.631M406.784 228.54H417.037M406.784 236.631V244.721M406.784 236.631H417.037M406.784 244.721V252.811M406.784 244.721H417.037M406.784 252.811V260.901M406.784 252.811H417.037M406.784 260.901V268.991M406.784 260.901H417.037M406.784 268.991V277.081M406.784 268.991H417.037M406.784 277.081V285.171M406.784 277.081H417.037M406.784 285.171V293.261M406.784 285.171H417.037M406.784 293.261V301.351M406.784 293.261H417.037M406.784 301.351V309.441M406.784 301.351H417.037M406.784 309.441V317.531M406.784 309.441H417.037M406.784 317.531V325.621M406.784 317.531H417.037M406.784 325.621V333.712M406.784 325.621H417.037M406.784 333.712H417.037M417.037 180V188.09M417.037 180H427.29M417.037 188.09V196.18M417.037 188.09H427.29M417.037 196.18V204.27M417.037 196.18H427.29M417.037 204.27V212.36M417.037 204.27H427.29M417.037 212.36V220.45M417.037 212.36H427.29M417.037 220.45V228.54M417.037 220.45H427.29M417.037 228.54V236.631M417.037 228.54H427.29M417.037 236.631V244.721M417.037 236.631H427.29M417.037 244.721V252.811M417.037 244.721H427.29M417.037 252.811V260.901M417.037 252.811H427.29M417.037 260.901V268.991M417.037 260.901H427.29M417.037 268.991V277.081M417.037 268.991H427.29M417.037 277.081V285.171M417.037 277.081H427.29M417.037 285.171V293.261M417.037 285.171H427.29M417.037 293.261V301.351M417.037 293.261H427.29M417.037 301.351V309.441M417.037 301.351H427.29M417.037 309.441V317.531M417.037 309.441H427.29M417.037 317.531V325.621M417.037 317.531H427.29M417.037 325.621V333.712M417.037 325.621H427.29M417.037 333.712H427.29M427.29 180V188.09M427.29 180H437.543M427.29 188.09V196.18M427.29 188.09H437.543M427.29 196.18V204.27M427.29 196.18H437.543M427.29 204.27V212.36M427.29 204.27H437.543M427.29 212.36V220.45M427.29 212.36H437.543M427.29 220.45V228.54M427.29 220.45H437.543M427.29 228.54V236.631M427.29 228.54H437.543M427.29 236.631V244.721M427.29 236.631H437.543M427.29 244.721V252.811M427.29 244.721H437.543M427.29 252.811V260.901M427.29 252.811H437.543M427.29 260.901V268.991M427.29 260.901H437.543M427.29 268.991V277.081M427.29 268.991H437.543M427.29 277.081V285.171M427.29 277.081H437.543M427.29 285.171V293.261M427.29 285.171H437.543M427.29 293.261V301.351M427.29 293.261H437.543M427.29 301.351V309.441M427.29 301.351H437.543M427.29 309.441V317.531M427.29 309.441H437.543M427.29 317.531V325.621M427.29 317.531H437.543M427.29 325.621V333.712M427.29 325.621H437.543M427.29 333.712H437.543M437.543 180V188.09M437.543 180H447.797M437.543 188.09V196.18M437.543 188.09H447.797M437.543 196.18V204.27M437.543 196.18H447.797M437.543 204.27V212.36M437.543 204.27H447.797M437.543 212.36V220.45M437.543 212.36H447.797M437.543 220.45V228.54M437.543 220.45H447.797M437.543 228.54V236.631M437.543 228.54H447.797M437.543 236.631V244.721M437.543 236.631H447.797M437.543 244.721V252.811M437.543 244.721H447.797M437.543 252.811V260.901M437.543 252.811H447.797M437.543 260.901V268.991M437.543 260.901H447.797M437.543 268.991V277.081M437.543 268.991H447.797M437.543 277.081V285.171M437.543 277.081H447.797M437.543 285.171V293.261M437.543 285.171H447.797M437.543 293.261V301.351M437.543 293.261H447.797M437.543 301.351V309.441M437.543 301.351H447.797M437.543 309.441V317.531M437.543 309.441H447.797M437.543 317.531V325.621M437.543 317.531H447.797M437.543 325.621V333.712M437.543 325.621H447.797M437.543 333.712H447.797M447.797 180V188.09M447.797 180H458.05M447.797 188.09V196.18M447.797 188.09H458.05M447.797 196.18V204.27M447.797 196.18H458.05M447.797 204.27V212.36M447.797 204.27H458.05M447.797 212.36V220.45M447.797 212.36H458.05M447.797 220.45V228.54M447.797 220.45H458.05M447.797 228.54V236.631M447.797 228.54H458.05M447.797 236.631V244.721M447.797 236.631H458.05M447.797 244.721V252.811M447.797 244.721H458.05M447.797 252.811V260.901M447.797 252.811H458.05M447.797 260.901V268.991M447.797 260.901H458.05M447.797 268.991V277.081M447.797 268.991H458.05M447.797 277.081V285.171M447.797 277.081H458.05M447.797 285.171V293.261M447.797 285.171H458.05M447.797 293.261V301.351M447.797 293.261H458.05M447.797 301.351V309.441M447.797 301.351H458.05M447.797 309.441V317.531M447.797 309.441H458.05M447.797 317.531V325.621M447.797 317.531H458.05M447.797 325.621V333.712M447.797 325.621H458.05M447.797 333.712H458.05M458.05 180V188.09M458.05 180H468.303M458.05 188.09V196.18M458.05 188.09H468.303M458.05 196.18V204.27M458.05 196.18H468.303M458.05 204.27V212.36M458.05 204.27H468.303M458.05 212.36V220.45M458.05 212.36H468.303M458.05 220.45V228.54M458.05 220.45H468.303M458.05 228.54V236.631M458.05 228.54H468.303M458.05 236.631V244.721M458.05 236.631H468.303M458.05 244.721V252.811M458.05 244.721H468.303M458.05 252.811V260.901M458.05 252.811H468.303M458.05 260.901V268.991M458.05 260.901H468.303M458.05 268.991V277.081M458.05 268.991H468.303M458.05 277.081V285.171M458.05 277.081H468.303M458.05 285.171V293.261M458.05 285.171H468.303M458.05 293.261V301.351M458.05 293.261H468.303M458.05 301.351V309.441M458.05 301.351H468.303M458.05 309.441V317.531M458.05 309.441H468.303M458.05 317.531V325.621M458.05 317.531H468.303M458.05 325.621V333.712M458.05 325.621H468.303M458.05 333.712H468.303M468.303 180V188.09M468.303 180H478.556M468.303 188.09V196.18M468.303 188.09H478.556M468.303 196.18V204.27M468.303 196.18H478.556M468.303 204.27V212.36M468.303 204.27H478.556M468.303 212.36V220.45M468.303 212.36H478.556M468.303 220.45V228.54M468.303 220.45H478.556M468.303 228.54V236.631M468.303 228.54H478.556M468.303 236.631V244.721M468.303 236.631H478.556M468.303 244.721V252.811M468.303 244.721H478.556M468.303 252.811V260.901M468.303 252.811H478.556M468.303 260.901V268.991M468.303 260.901H478.556M468.303 268.991V277.081M468.303 268.991H478.556M468.303 277.081V285.171M468.303 277.081H478.556M468.303 285.171V293.261M468.303 285.171H478.556M468.303 293.261V301.351M468.303 293.261H478.556M468.303 301.351V309.441M468.303 301.351H478.556M468.303 309.441V317.531M468.303 309.441H478.556M468.303 317.531V325.621M468.303 317.531H478.556M468.303 325.621V333.712M468.303 325.621H478.556M468.303 333.712H478.556M478.556 180V188.09M478.556 180H488.809M478.556 188.09V196.18M478.556 188.09H488.809M478.556 196.18V204.27M478.556 196.18H488.809M478.556 204.27V212.36M478.556 204.27H488.809M478.556 212.36V220.45M478.556 212.36H488.809M478.556 220.45V228.54M478.556 220.45H488.809M478.556 228.54V236.631M478.556 228.54H488.809M478.556 236.631V244.721M478.556 236.631H488.809M478.556 244.721V252.811M478.556 244.721H488.809M478.556 252.811V260.901M478.556 252.811H488.809M478.556 260.901V268.991M478.556 260.901H488.809M478.556 268.991V277.081M478.556 268.991H488.809M478.556 277.081V285.171M478.556 277.081H488.809M478.556 285.171V293.261M478.556 285.171H488.809M478.556 293.261V301.351M478.556 293.261H488.809M478.556 301.351V309.441M478.556 301.351H488.809M478.556 309.441V317.531M478.556 309.441H488.809M478.556 317.531V325.621M478.556 317.531H488.809M478.556 325.621V333.712M478.556 325.621H488.809M478.556 333.712H488.809M488.809 180V188.09M488.809 180H499.062M488.809 188.09V196.18M488.809 188.09H499.062M488.809 196.18V204.27M488.809 196.18H499.062M488.809 204.27V212.36M488.809 204.27H499.062M488.809 212.36V220.45M488.809 212.36H499.062M488.809 220.45V228.54M488.809 220.45H499.062M488.809 228.54V236.631M488.809 228.54H499.062M488.809 236.631V244.721M488.809 236.631H499.062M488.809 244.721V252.811M488.809 244.721H499.062M488.809 252.811V260.901M488.809 252.811H499.062M488.809 260.901V268.991M488.809 260.901H499.062M488.809 268.991V277.081M488.809 268.991H499.062M488.809 277.081V285.171M488.809 277.081H499.062M488.809 285.171V293.261M488.809 285.171H499.062M488.809 293.261V301.351M488.809 293.261H499.062M488.809 301.351V309.441M488.809 301.351H499.062M488.809 309.441V317.531M488.809 309.441H499.062M488.809 317.531V325.621M488.809 317.531H499.062M488.809 325.621V333.712M488.809 325.621H499.062M488.809 333.712H499.062M499.062 180V188.09M499.062 180L509.315 180M499.062 188.09V196.18M499.062 188.09H509.315M499.062 196.18V204.27M499.062 196.18H509.315M499.062 204.27V212.36M499.062 204.27H509.315M499.062 212.36V220.45M499.062 212.36H509.315M499.062 220.45V228.54M499.062 220.45H509.315M499.062 228.54V236.631M499.062 228.54H509.315M499.062 236.631V244.721M499.062 236.631H509.315M499.062 244.721V252.811M499.062 244.721H509.315M499.062 252.811V260.901M499.062 252.811H509.315M499.062 260.901V268.991M499.062 260.901H509.315M499.062 268.991V277.081M499.062 268.991H509.315M499.062 277.081V285.171M499.062 277.081H509.315M499.062 285.171V293.261M499.062 285.171H509.315M499.062 293.261V301.351M499.062 293.261H509.315M499.062 301.351V309.441M499.062 301.351H509.315M499.062 309.441V317.531M499.062 309.441H509.315M499.062 317.531V325.621M499.062 317.531H509.315M499.062 325.621V333.712M499.062 325.621H509.315M499.062 333.712H509.315M509.315 180V188.09M509.315 180H519.568M509.315 188.09V196.18M509.315 188.09L519.568 188.09M509.315 196.18V204.27M509.315 196.18H519.568M509.315 204.27V212.36M509.315 204.27H519.568M509.315 212.36V220.45M509.315 212.36H519.568M509.315 220.45V228.54M509.315 220.45H519.568M509.315 228.54V236.631M509.315 228.54H519.568M509.315 236.631V244.721M509.315 236.631H519.568M509.315 244.721V252.811M509.315 244.721H519.568M509.315 252.811V260.901M509.315 252.811H519.568M509.315 260.901V268.991M509.315 260.901H519.568M509.315 268.991V277.081M509.315 268.991H519.568M509.315 277.081V285.171M509.315 277.081H519.568M509.315 285.171V293.261M509.315 285.171H519.568M509.315 293.261V301.351M509.315 293.261H519.568M509.315 301.351V309.441M509.315 301.351H519.568M509.315 309.441V317.531M509.315 309.441H519.568M509.315 317.531V325.621M509.315 317.531H519.568M509.315 325.621V333.712M509.315 325.621H519.568M509.315 333.712H519.568M519.568 180V188.09M519.568 180H529.821M519.568 188.09V196.18M519.568 188.09H529.821M519.568 196.18V204.27M519.568 196.18H529.821M519.568 204.27V212.36M519.568 204.27H529.821M519.568 212.36V220.45M519.568 212.36H529.821M519.568 220.45V228.54M519.568 220.45H529.821M519.568 228.54V236.631M519.568 228.54H529.821M519.568 236.631V244.721M519.568 236.631H529.821M519.568 244.721V252.811M519.568 244.721H529.821M519.568 252.811V260.901M519.568 252.811H529.821M519.568 260.901V268.991M519.568 260.901H529.821M519.568 268.991V277.081M519.568 268.991H529.821M519.568 277.081V285.171M519.568 277.081H529.821M519.568 285.171V293.261M519.568 285.171H529.821M519.568 293.261V301.351M519.568 293.261H529.821M519.568 301.351V309.441M519.568 301.351H529.821M519.568 309.441V317.531M519.568 309.441H529.821M519.568 317.531V325.621M519.568 317.531H529.821M519.568 325.621V333.712M519.568 325.621H529.821M519.568 333.712H529.821M529.821 180V188.09M529.821 180H540.074M529.821 188.09V196.18M529.821 188.09H540.074M529.821 196.18V204.27M529.821 196.18L540.074 196.18M529.821 204.27V212.36M529.821 204.27L540.074 204.27M529.821 212.36V220.45M529.821 212.36H540.074M529.821 220.45V228.54M529.821 220.45H540.074M529.821 228.54V236.631M529.821 228.54H540.074M529.821 236.631V244.721M529.821 236.631H540.074M529.821 244.721V252.811M529.821 244.721H540.074M529.821 252.811V260.901M529.821 252.811H540.074M529.821 260.901V268.991M529.821 260.901H540.074M529.821 268.991V277.081M529.821 268.991H540.074M529.821 277.081V285.171M529.821 277.081H540.074M529.821 285.171V293.261M529.821 285.171H540.074M529.821 293.261V301.351M529.821 293.261H540.074M529.821 301.351V309.441M529.821 301.351H540.074M529.821 309.441V317.531M529.821 309.441H540.074M529.821 317.531V325.621M529.821 317.531H540.074M529.821 325.621V333.712M529.821 325.621H540.074M529.821 333.712H540.074M540.074 180V188.09M540.074 180H550.328M540.074 188.09V196.18M540.074 188.09H550.328M540.074 196.18V204.27M540.074 196.18H550.328M540.074 204.27V212.36M540.074 204.27H550.328M540.074 212.36V220.45M540.074 212.36H550.328M540.074 220.45V228.54M540.074 220.45H550.328M540.074 228.54V236.631M540.074 228.54H550.328M540.074 236.631V244.721M540.074 236.631H550.328M540.074 244.721V252.811M540.074 244.721H550.328M540.074 252.811V260.901M540.074 252.811H550.328M540.074 260.901V268.991M540.074 260.901H550.328M540.074 268.991V277.081M540.074 268.991H550.328M540.074 277.081V285.171M540.074 277.081H550.328M540.074 285.171V293.261M540.074 285.171H550.328M540.074 293.261V301.351M540.074 293.261H550.328M540.074 301.351V309.441M540.074 301.351H550.328M540.074 309.441V317.531M540.074 309.441H550.328M540.074 317.531V325.621M540.074 317.531H550.328M540.074 325.621V333.712M540.074 325.621H550.328M540.074 333.712H550.328M550.328 180V188.09M550.328 180H560.581M550.328 188.09V196.18M550.328 188.09H560.581M550.328 196.18V204.27M550.328 196.18H560.581M550.328 204.27V212.36M550.328 204.27H560.581M550.328 212.36V220.45M550.328 212.36L560.581 212.36M550.328 220.45V228.54M550.328 220.45L560.581 220.45M550.328 228.54V236.631M550.328 228.54L560.581 228.54M550.328 236.631V244.721M550.328 236.631L560.581 236.631M550.328 244.721V252.811M550.328 244.721H560.581M550.328 252.811V260.901M550.328 252.811H560.581M550.328 260.901V268.991M550.328 260.901H560.581M550.328 268.991V277.081M550.328 268.991H560.581M550.328 277.081V285.171M550.328 277.081H560.581M550.328 285.171V293.261M550.328 285.171H560.581M550.328 293.261V301.351M550.328 293.261H560.581M550.328 301.351V309.441M550.328 301.351H560.581M550.328 309.441V317.531M550.328 309.441H560.581M550.328 317.531V325.621M550.328 317.531H560.581M550.328 325.621V333.712M550.328 325.621H560.581M550.328 333.712H560.581M560.581 180V188.09M560.581 180H570.834M560.581 188.09V196.18M560.581 188.09H570.834M560.581 196.18V204.27M560.581 196.18H570.834M560.581 204.27V212.36M560.581 204.27H570.834M560.581 212.36V220.45M560.581 212.36H570.834M560.581 220.45V228.54M560.581 220.45H570.834M560.581 228.54V236.631M560.581 228.54H570.834M560.581 236.631V244.721M560.581 236.631H570.834M560.581 244.721V252.811M560.581 244.721H570.834M560.581 252.811V260.901M560.581 252.811H570.834M560.581 260.901V268.991M560.581 260.901H570.834M560.581 268.991V277.081M560.581 268.991H570.834M560.581 277.081V285.171M560.581 277.081H570.834M560.581 285.171V293.261M560.581 285.171H570.834M560.581 293.261V301.351M560.581 293.261H570.834M560.581 301.351V309.441M560.581 301.351H570.834M560.581 309.441V317.531M560.581 309.441H570.834M560.581 317.531V325.621M560.581 317.531H570.834M560.581 325.621V333.712M560.581 325.621H570.834M560.581 333.712H570.834M570.834 180V188.09M570.834 180H581.087M570.834 188.09V196.18M570.834 188.09H581.087M570.834 196.18V204.27M570.834 196.18H581.087M570.834 204.27V212.36M570.834 204.27H581.087M570.834 212.36V220.45M570.834 212.36H581.087M570.834 220.45V228.54M570.834 220.45H581.087M570.834 228.54V236.631M570.834 228.54H581.087M570.834 236.631V244.721M570.834 236.631H581.087M570.834 244.721V252.811M570.834 244.721H581.087M570.834 252.811V260.901M570.834 252.811H581.087M570.834 260.901V268.991M570.834 260.901H581.087M570.834 268.991V277.081M570.834 268.991H581.087M570.834 277.081V285.171M570.834 277.081H581.087M570.834 285.171V293.261M570.834 285.171H581.087M570.834 293.261V301.351M570.834 293.261H581.087M570.834 301.351V309.441M570.834 301.351H581.087M570.834 309.441V317.531M570.834 309.441H581.087M570.834 317.531V325.621M570.834 317.531H581.087M570.834 325.621V333.712M570.834 325.621H581.087M570.834 333.712H581.087M581.087 180V188.09M581.087 180H591.34M581.087 188.09V196.18M581.087 188.09H591.34M581.087 196.18V204.27M581.087 196.18H591.34M581.087 204.27V212.36M581.087 204.27H591.34M581.087 212.36V220.45M581.087 212.36H591.34M581.087 220.45V228.54M581.087 220.45H591.34M581.087 228.54V236.631M581.087 228.54H591.34M581.087 236.631V244.721M581.087 236.631H591.34M581.087 244.721V252.811M581.087 244.721H591.34M581.087 252.811V260.901M581.087 252.811H591.34M581.087 260.901V268.991M581.087 260.901H591.34M581.087 268.991V277.081M581.087 268.991H591.34M581.087 277.081V285.171M581.087 277.081H591.34M581.087 285.171V293.261M581.087 285.171H591.34M581.087 293.261V301.351M581.087 293.261H591.34M581.087 301.351V309.441M581.087 301.351H591.34M581.087 309.441V317.531M581.087 309.441H591.34M581.087 317.531V325.621M581.087 317.531H591.34M581.087 325.621V333.712M581.087 325.621H591.34M581.087 333.712H591.34M591.34 180V188.09M591.34 180H601.593M591.34 188.09V196.18M591.34 188.09H601.593M591.34 196.18V204.27M591.34 196.18H601.593M591.34 204.27V212.36M591.34 204.27H601.593M591.34 212.36V220.45M591.34 212.36H601.593M591.34 220.45V228.54M591.34 220.45H601.593M591.34 228.54V236.631M591.34 228.54H601.593M591.34 236.631V244.721M591.34 236.631H601.593M591.34 244.721V252.811M591.34 244.721H601.593M591.34 252.811V260.901M591.34 252.811H601.593M591.34 260.901V268.991M591.34 260.901H601.593M591.34 268.991V277.081M591.34 268.991H601.593M591.34 277.081V285.171M591.34 277.081H601.593M591.34 285.171V293.261M591.34 285.171H601.593M591.34 293.261V301.351M591.34 293.261H601.593M591.34 301.351V309.441M591.34 301.351H601.593M591.34 309.441V317.531M591.34 309.441H601.593M591.34 317.531V325.621M591.34 317.531H601.593M591.34 325.621V333.712M591.34 325.621H601.593M591.34 333.712H601.593M601.593 180V188.09M601.593 180H611.846M601.593 188.09V196.18M601.593 188.09H611.846M601.593 196.18V204.27M601.593 196.18H611.846M601.593 204.27V212.36M601.593 204.27H611.846M601.593 212.36V220.45M601.593 212.36H611.846M601.593 220.45V228.54M601.593 220.45H611.846M601.593 228.54V236.631M601.593 228.54H611.846M601.593 236.631V244.721M601.593 236.631H611.846M601.593 244.721V252.811M601.593 244.721H611.846M601.593 252.811V260.901M601.593 252.811H611.846M601.593 260.901V268.991M601.593 260.901H611.846M601.593 268.991V277.081M601.593 268.991H611.846M601.593 277.081V285.171M601.593 277.081H611.846M601.593 285.171V293.261M601.593 285.171H611.846M601.593 293.261V301.351M601.593 293.261H611.846M601.593 301.351V309.441M601.593 301.351H611.846M601.593 309.441V317.531M601.593 309.441H611.846M601.593 317.531V325.621M601.593 317.531H611.846M601.593 325.621V333.712M601.593 325.621H611.846M601.593 333.712H611.846M611.846 180V188.09M611.846 180H622.099M611.846 188.09V196.18M611.846 188.09H622.099M611.846 196.18V204.27M611.846 196.18H622.099M611.846 204.27V212.36M611.846 204.27H622.099M611.846 212.36V220.45M611.846 212.36H622.099M611.846 220.45V228.54M611.846 220.45H622.099M611.846 228.54V236.631M611.846 228.54H622.099M611.846 236.631V244.721M611.846 236.631H622.099M611.846 244.721V252.811M611.846 244.721L622.099 244.721M611.846 252.811V260.901M611.846 252.811L622.099 252.811M611.846 260.901V268.991M611.846 260.901H622.099M611.846 268.991V277.081M611.846 268.991H622.099M611.846 277.081V285.171M611.846 277.081H622.099M611.846 285.171V293.261M611.846 285.171H622.099M611.846 293.261V301.351M611.846 293.261H622.099M611.846 301.351V309.441M611.846 301.351H622.099M611.846 309.441V317.531M611.846 309.441H622.099M611.846 317.531V325.621M611.846 317.531H622.099M611.846 325.621V333.712M611.846 325.621H622.099M611.846 333.712H622.099M622.099 180V188.09M622.099 180H632.352M622.099 188.09V196.18M622.099 188.09H632.352M622.099 196.18V204.27M622.099 196.18H632.352M622.099 204.27V212.36M622.099 204.27H632.352M622.099 212.36V220.45M622.099 212.36H632.352M622.099 220.45V228.54M622.099 220.45H632.352M622.099 228.54V236.631M622.099 228.54H632.352M622.099 236.631V244.721M622.099 236.631H632.352M622.099 244.721V252.811M622.099 244.721H632.352M622.099 252.811V260.901M622.099 252.811H632.352M622.099 260.901V268.991M622.099 260.901H632.352M622.099 268.991V277.081M622.099 268.991H632.352M622.099 277.081V285.171M622.099 277.081H632.352M622.099 285.171V293.261M622.099 285.171H632.352M622.099 293.261V301.351M622.099 293.261H632.352M622.099 301.351V309.441M622.099 301.351H632.352M622.099 309.441V317.531M622.099 309.441H632.352M622.099 317.531V325.621M622.099 317.531H632.352M622.099 325.621V333.712M622.099 325.621H632.352M622.099 333.712H632.352M632.352 180V188.09M632.352 180H642.605M632.352 188.09V196.18M632.352 188.09H642.605M632.352 196.18V204.27M632.352 196.18H642.605M632.352 204.27V212.36M632.352 204.27H642.605M632.352 212.36V220.45M632.352 212.36H642.605M632.352 220.45V228.54M632.352 220.45H642.605M632.352 228.54V236.631M632.352 228.54H642.605M632.352 236.631V244.721M632.352 236.631H642.605M632.352 244.721V252.811M632.352 244.721H642.605M632.352 252.811V260.901M632.352 252.811H642.605M632.352 260.901V268.991M632.352 260.901H642.605M632.352 268.991V277.081M632.352 268.991H642.605M632.352 277.081V285.171M632.352 277.081H642.605M632.352 285.171V293.261M632.352 285.171H642.605M632.352 293.261V301.351M632.352 293.261H642.605M632.352 301.351V309.441M632.352 301.351H642.605M632.352 309.441V317.531M632.352 309.441H642.605M632.352 317.531V325.621M632.352 317.531H642.605M632.352 325.621V333.712M632.352 325.621H642.605M632.352 333.712H642.605M642.605 180V188.09M642.605 180H652.859M642.605 188.09V196.18M642.605 188.09H652.859M642.605 196.18V204.27M642.605 196.18H652.859M642.605 204.27V212.36M642.605 204.27H652.859M642.605 212.36V220.45M642.605 212.36H652.859M642.605 220.45V228.54M642.605 220.45H652.859M642.605 228.54V236.631M642.605 228.54H652.859M642.605 236.631V244.721M642.605 236.631H652.859M642.605 244.721V252.811M642.605 244.721H652.859M642.605 252.811V260.901M642.605 252.811H652.859M642.605 260.901V268.991M642.605 260.901H652.859M642.605 268.991V277.081M642.605 268.991H652.859M642.605 277.081V285.171M642.605 277.081H652.859M642.605 285.171V293.261M642.605 285.171H652.859M642.605 293.261V301.351M642.605 293.261H652.859M642.605 301.351V309.441M642.605 301.351H652.859M642.605 309.441V317.531M642.605 309.441H652.859M642.605 317.531V325.621M642.605 317.531H652.859M642.605 325.621V333.712M642.605 325.621H652.859M642.605 333.712H652.859M652.859 180V188.09M652.859 180H663.112M652.859 188.09V196.18M652.859 188.09H663.112M652.859 196.18V204.27M652.859 196.18H663.112M652.859 204.27V212.36M652.859 204.27H663.112M652.859 212.36V220.45M652.859 212.36H663.112M652.859 220.45V228.54M652.859 220.45H663.112M652.859 228.54V236.631M652.859 228.54H663.112M652.859 236.631V244.721M652.859 236.631H663.112M652.859 244.721V252.811M652.859 244.721H663.112M652.859 252.811V260.901M652.859 252.811H663.112M652.859 260.901V268.991M652.859 260.901H663.112M652.859 268.991V277.081M652.859 268.991H663.112M652.859 277.081V285.171M652.859 277.081H663.112M652.859 285.171V293.261M652.859 285.171H663.112M652.859 293.261V301.351M652.859 293.261H663.112M652.859 301.351V309.441M652.859 301.351H663.112M652.859 309.441V317.531M652.859 309.441H663.112M652.859 317.531V325.621M652.859 317.531H663.112M652.859 325.621V333.712M652.859 325.621H663.112M652.859 333.712H663.112M663.112 180V188.09M663.112 180H673.365M663.112 188.09V196.18M663.112 188.09H673.365M663.112 196.18V204.27M663.112 196.18H673.365M663.112 204.27V212.36M663.112 204.27H673.365M663.112 212.36V220.45M663.112 212.36H673.365M663.112 220.45V228.54M663.112 220.45H673.365M663.112 228.54V236.631M663.112 228.54H673.365M663.112 236.631V244.721M663.112 236.631H673.365M663.112 244.721V252.811M663.112 244.721H673.365M663.112 252.811V260.901M663.112 252.811H673.365M663.112 260.901V268.991M663.112 260.901H673.365M663.112 268.991V277.081M663.112 268.991H673.365M663.112 277.081V285.171M663.112 277.081H673.365M663.112 285.171V293.261M663.112 285.171H673.365M663.112 293.261V301.351M663.112 293.261H673.365M663.112 301.351V309.441M663.112 301.351H673.365M663.112 309.441V317.531M663.112 309.441H673.365M663.112 317.531V325.621M663.112 317.531H673.365M663.112 325.621V333.712M663.112 325.621H673.365M663.112 333.712H673.365M673.365 180V188.09M673.365 180H683.618M673.365 188.09V196.18M673.365 188.09H683.618M673.365 196.18V204.27M673.365 196.18H683.618M673.365 204.27V212.36M673.365 204.27H683.618M673.365 212.36V220.45M673.365 212.36H683.618M673.365 220.45V228.54M673.365 220.45H683.618M673.365 228.54V236.631M673.365 228.54H683.618M673.365 236.631V244.721M673.365 236.631H683.618M673.365 244.721V252.811M673.365 244.721H683.618M673.365 252.811V260.901M673.365 252.811H683.618M673.365 260.901V268.991M673.365 260.901H683.618M673.365 268.991V277.081M673.365 268.991H683.618M673.365 277.081V285.171M673.365 277.081H683.618M673.365 285.171V293.261M673.365 285.171H683.618M673.365 293.261V301.351M673.365 293.261H683.618M673.365 301.351V309.441M673.365 301.351H683.618M673.365 309.441V317.531M673.365 309.441H683.618M673.365 317.531V325.621M673.365 317.531H683.618M673.365 325.621V333.712M673.365 325.621H683.618M673.365 333.712H683.618M683.618 180V188.09M683.618 180H693.871M683.618 188.09V196.18M683.618 188.09H693.871M683.618 196.18V204.27M683.618 196.18H693.871M683.618 204.27V212.36M683.618 204.27H693.871M683.618 212.36V220.45M683.618 212.36H693.871M683.618 220.45V228.54M683.618 220.45H693.871M683.618 228.54V236.631M683.618 228.54H693.871M683.618 236.631V244.721M683.618 236.631H693.871M683.618 244.721V252.811M683.618 244.721H693.871M683.618 252.811V260.901M683.618 252.811H693.871M683.618 260.901V268.991M683.618 260.901H693.871M683.618 268.991V277.081M683.618 268.991H693.871M683.618 277.081V285.171M683.618 277.081H693.871M683.618 285.171V293.261M683.618 285.171H693.871M683.618 293.261V301.351M683.618 293.261H693.871M683.618 301.351V309.441M683.618 301.351H693.871M683.618 309.441V317.531M683.618 309.441H693.871M683.618 317.531V325.621M683.618 317.531H693.871M683.618 325.621V333.712M683.618 325.621H693.871M683.618 333.712H693.871M693.871 180V188.09M693.871 180H704.124M693.871 188.09V196.18M693.871 188.09H704.124M693.871 196.18V204.27M693.871 196.18H704.124M693.871 204.27V212.36M693.871 204.27H704.124M693.871 212.36V220.45M693.871 212.36H704.124M693.871 220.45V228.54M693.871 220.45H704.124M693.871 228.54V236.631M693.871 228.54H704.124M693.871 236.631V244.721M693.871 236.631H704.124M693.871 244.721V252.811M693.871 244.721H704.124M693.871 252.811V260.901M693.871 252.811H704.124M693.871 260.901V268.991M693.871 260.901H704.124M693.871 268.991V277.081M693.871 268.991H704.124M693.871 277.081V285.171M693.871 277.081H704.124M693.871 285.171V293.261M693.871 285.171H704.124M693.871 293.261V301.351M693.871 293.261H704.124M693.871 301.351V309.441M693.871 301.351H704.124M693.871 309.441V317.531M693.871 309.441H704.124M693.871 317.531V325.621M693.871 317.531H704.124M693.871 325.621V333.712M693.871 325.621H704.124M693.871 333.712H704.124M704.124 180V188.09M704.124 180H714.377M704.124 188.09V196.18M704.124 188.09H714.377M704.124 196.18V204.27M704.124 196.18H714.377M704.124 204.27V212.36M704.124 204.27H714.377M704.124 212.36V220.45M704.124 212.36H714.377M704.124 220.45V228.54M704.124 220.45H714.377M704.124 228.54V236.631M704.124 228.54H714.377M704.124 236.631V244.721M704.124 236.631H714.377M704.124 244.721V252.811M704.124 244.721H714.377M704.124 252.811V260.901M704.124 252.811H714.377M704.124 260.901V268.991M704.124 260.901H714.377M704.124 268.991V277.081M704.124 268.991H714.377M704.124 277.081V285.171M704.124 277.081H714.377M704.124 285.171V293.261M704.124 285.171H714.377M704.124 293.261V301.351M704.124 293.261H714.377M704.124 301.351V309.441M704.124 301.351H714.377M704.124 309.441V317.531M704.124 309.441H714.377M704.124 317.531V325.621M704.124 317.531H714.377M704.124 325.621V333.712M704.124 325.621H714.377M704.124 333.712H714.377M714.377 180V188.09M714.377 180H724.63M714.377 188.09V196.18M714.377 188.09H724.63M714.377 196.18V204.27M714.377 196.18H724.63M714.377 204.27V212.36M714.377 204.27H724.63M714.377 212.36V220.45M714.377 212.36H724.63M714.377 220.45V228.54M714.377 220.45H724.63M714.377 228.54V236.631M714.377 228.54H724.63M714.377 236.631V244.721M714.377 236.631H724.63M714.377 244.721V252.811M714.377 244.721H724.63M714.377 252.811V260.901M714.377 252.811H724.63M714.377 260.901V268.991M714.377 260.901H724.63M714.377 268.991V277.081M714.377 268.991H724.63M714.377 277.081V285.171M714.377 277.081H724.63M714.377 285.171V293.261M714.377 285.171H724.63M714.377 293.261V301.351M714.377 293.261H724.63M714.377 301.351V309.441M714.377 301.351H724.63M714.377 309.441V317.531M714.377 309.441H724.63M714.377 317.531V325.621M714.377 317.531H724.63M714.377 325.621V333.712M714.377 325.621H724.63M714.377 333.712H724.63M724.63 180V188.09M724.63 180H734.883M724.63 188.09V196.18M724.63 188.09H734.883M724.63 196.18V204.27M724.63 196.18H734.883M724.63 204.27V212.36M724.63 204.27H734.883M724.63 212.36V220.45M724.63 212.36H734.883M724.63 220.45V228.54M724.63 220.45H734.883M724.63 228.54V236.631M724.63 228.54H734.883M724.63 236.631V244.721M724.63 236.631H734.883M724.63 244.721V252.811M724.63 244.721H734.883M724.63 252.811V260.901M724.63 252.811H734.883M724.63 260.901V268.991M724.63 260.901H734.883M724.63 268.991V277.081M724.63 268.991H734.883M724.63 277.081V285.171M724.63 277.081H734.883M724.63 285.171V293.261M724.63 285.171H734.883M724.63 293.261V301.351M724.63 293.261H734.883M724.63 301.351V309.441M724.63 301.351H734.883M724.63 309.441V317.531M724.63 309.441H734.883M724.63 317.531V325.621M724.63 317.531H734.883M724.63 325.621V333.712M724.63 325.621H734.883M724.63 333.712H734.883M734.883 180V188.09M734.883 180H745.136V188.09M734.883 188.09V196.18M734.883 188.09H745.136M734.883 196.18V204.27M734.883 196.18H745.136M734.883 204.27V212.36M734.883 204.27H745.136M734.883 212.36V220.45M734.883 212.36H745.136M734.883 220.45V228.54M734.883 220.45H745.136M734.883 228.54V236.631M734.883 228.54H745.136M734.883 236.631V244.721M734.883 236.631H745.136M734.883 244.721V252.811M734.883 244.721H745.136M734.883 252.811V260.901M734.883 252.811H745.136M734.883 260.901V268.991M734.883 260.901H745.136M734.883 268.991V277.081M734.883 268.991H745.136M734.883 277.081V285.171M734.883 277.081H745.136M734.883 285.171V293.261M734.883 285.171H745.136M734.883 293.261V301.351M734.883 293.261H745.136M734.883 301.351V309.441M734.883 301.351H745.136M734.883 309.441V317.531M734.883 309.441H745.136M734.883 317.531V325.621M734.883 317.531H745.136M734.883 325.621V333.712M734.883 325.621H745.136M734.883 333.712H745.136V325.621M745.136 188.09V196.18M745.136 196.18V204.27M745.136 204.27V212.36M745.136 212.36V220.45M745.136 220.45V228.54M745.136 228.54V236.631M745.136 236.631V244.721M745.136 244.721V252.811M745.136 252.811V260.901M745.136 260.901V268.991M745.136 268.991V277.081M745.136 277.081V285.171M745.136 285.171V293.261M745.136 293.261V301.351M745.136 301.351V309.441M745.136 309.441V317.531M745.136 317.531V325.621" stroke="url(#paint6_radial_1_528)" stroke-width="0.900718" stroke-miterlimit="1.74345"/>
</g>
</mask>
<g mask="url(#mask0_1_528)">
<g filter="url(#filter5_i_1_528)">
<path d="M737 244C753.5 307 341.5 370 292 243C282.018 249.5 297.5 281 292 243C335 215 411 181 514.5 180C621 178.971 710 225 737 244Z" fill="url(#paint7_linear_1_528)"/>
</g>
</g>
<defs>
<filter id="filter0_f_1_528" x="12" y="0" width="1015" height="975" filterUnits="userSpaceOnUse" color-interpolation-filters="sRGB">
<feFlood flood-opacity="0" result="BackgroundImageFix"/>
<feBlend mode="normal" in="SourceGraphic" in2="BackgroundImageFix" result="shape"/>
<feGaussianBlur stdDeviation="65" result="effect1_foregroundBlur_1_528"/>
</filter>
<filter id="filter1_i_1_528" x="142" y="155" width="755" height="821" filterUnits="userSpaceOnUse" color-interpolation-filters="sRGB">
<feFlood flood-opacity="0" result="BackgroundImageFix"/>
<feBlend mode="normal" in="SourceGraphic" in2="BackgroundImageFix" result="shape"/>
<feColorMatrix in="SourceAlpha" type="matrix" values="0 0 0 0 0 0 0 0 0 0 0 0 0 0 0 0 0 0 127 0" result="hardAlpha"/>
<feOffset dy="130"/>
<feGaussianBlur stdDeviation="125"/>
<feComposite in2="hardAlpha" operator="arithmetic" k2="-1" k3="1"/>
<feColorMatrix type="matrix" values="0 0 0 0 0.309804 0 0 0 0 0.45098 0 0 0 0 0.964706 0 0 0 1 0"/>
<feBlend mode="normal" in2="shape" result="effect1_innerShadow_1_528"/>
</filter>
<filter id="filter2_ddddd_1_528" x="90.7253" y="120.331" width="846.114" height="740.763" filterUnits="userSpaceOnUse" color-interpolation-filters="sRGB">
<feFlood flood-opacity="0" result="BackgroundImageFix"/>
<feColorMatrix in="SourceAlpha" type="matrix" values="0 0 0 0 0 0 0 0 0 0 0 0 0 0 0 0 0 0 127 0" result="hardAlpha"/>
<feOffset dy="-10"/>
<feGaussianBlur stdDeviation="5"/>
<feColorMatrix type="matrix" values="0 0 0 0 0.309804 0 0 0 0 0.45098 0 0 0 0 0.964706 0 0 0 0.15 0"/>
<feBlend mode="normal" in2="BackgroundImageFix" result="effect1_dropShadow_1_528"/>
<feColorMatrix in="SourceAlpha" type="matrix" values="0 0 0 0 0 0 0 0 0 0 0 0 0 0 0 0 0 0 127 0" result="hardAlpha"/>
<feOffset dy="-10"/>
<feGaussianBlur stdDeviation="10"/>
<feColorMatrix type="matrix" values="0 0 0 0 0.309804 0 0 0 0 0.45098 0 0 0 0 0.964706 0 0 0 0.15 0"/>
<feBlend mode="normal" in2="effect1_dropShadow_1_528" result="effect2_dropShadow_1_528"/>
<feColorMatrix in="SourceAlpha" type="matrix" values="0 0 0 0 0 0 0 0 0 0 0 0 0 0 0 0 0 0 127 0" result="hardAlpha"/>
<feOffset dy="-10"/>
<feGaussianBlur stdDeviation="15"/>
<feColorMatrix type="matrix" values="0 0 0 0 0.309804 0 0 0 0 0.45098 0 0 0 0 0.964706 0 0 0 0.15 0"/>
<feBlend mode="normal" in2="effect2_dropShadow_1_528" result="effect3_dropShadow_1_528"/>
<feColorMatrix in="SourceAlpha" type="matrix" values="0 0 0 0 0 0 0 0 0 0 0 0 0 0 0 0 0 0 127 0" result="hardAlpha"/>
<feOffset dy="-10"/>
<feGaussianBlur stdDeviation="20"/>
<feColorMatrix type="matrix" values="0 0 0 0 0.309804 0 0 0 0 0.45098 0 0 0 0 0.964706 0 0 0 0.15 0"/>
<feBlend mode="normal" in2="effect3_dropShadow_1_528" result="effect4_dropShadow_1_528"/>
<feColorMatrix in="SourceAlpha" type="matrix" values="0 0 0 0 0 0 0 0 0 0 0 0 0 0 0 0 0 0 127 0" result="hardAlpha"/>
<feOffset dy="-10"/>
<feGaussianBlur stdDeviation="25"/>
<feColorMatrix type="matrix" values="0 0 0 0 0.309804 0 0 0 0 0.45098 0 0 0 0 0.964706 0 0 0 0.15 0"/>
<feBlend mode="normal" in2="effect4_dropShadow_1_528" result="effect5_dropShadow_1_528"/>
<feBlend mode="normal" in="SourceGraphic" in2="effect5_dropShadow_1_528" result="shape"/>
</filter>
<filter id="filter3_i_1_528" x="136.58" y="180" width="755.233" height="797.461" filterUnits="userSpaceOnUse" color-interpolation-filters="sRGB">
<feFlood flood-opacity="0" result="BackgroundImageFix"/>
<feBlend mode="normal" in="SourceGraphic" in2="BackgroundImageFix" result="shape"/>
<feColorMatrix in="SourceAlpha" type="matrix" values="0 0 0 0 0 0 0 0 0 0 0 0 0 0 0 0 0 0 127 0" result="hardAlpha"/>
<feOffset dy="130"/>
<feGaussianBlur stdDeviation="65"/>
<feComposite in2="hardAlpha" operator="arithmetic" k2="-1" k3="1"/>
<feColorMatrix type="matrix" values="0 0 0 0 0.309804 0 0 0 0 0.45098 0 0 0 0 0.964706 0 0 0 1 0"/>
<feBlend mode="normal" in2="shape" result="effect1_innerShadow_1_528"/>
</filter>
<filter id="filter4_f_1_528" x="0" y="63.5268" width="1040" height="915.804" filterUnits="userSpaceOnUse" color-interpolation-filters="sRGB">
<feFlood flood-opacity="0" result="BackgroundImageFix"/>
<feBlend mode="normal" in="SourceGraphic" in2="BackgroundImageFix" result="shape"/>
<feGaussianBlur stdDeviation="60" result="effect1_foregroundBlur_1_528"/>
</filter>
<filter id="filter5_i_1_528" x="288.561" y="179.983" width="448.921" height="236.571" filterUnits="userSpaceOnUse" color-interpolation-filters="sRGB">
<feFlood flood-opacity="0" result="BackgroundImageFix"/>
<feBlend mode="normal" in="SourceGraphic" in2="BackgroundImageFix" result="shape"/>
<feColorMatrix in="SourceAlpha" type="matrix" values="0 0 0 0 0 0 0 0 0 0 0 0 0 0 0 0 0 0 127 0" result="hardAlpha"/>
<feOffset dy="100"/>
<feGaussianBlur stdDeviation="50"/>
<feComposite in2="hardAlpha" operator="arithmetic" k2="-1" k3="1"/>
<feColorMatrix type="matrix" values="0 0 0 0 0.309804 0 0 0 0 0.45098 0 0 0 0 0.964706 0 0 0 1 0"/>
<feBlend mode="normal" in2="shape" result="effect1_innerShadow_1_528"/>
</filter>
<linearGradient id="paint0_linear_1_528" x1="519.5" y1="130" x2="519.5" y2="845" gradientUnits="userSpaceOnUse">
<stop stop-color="#4F73F6"/>
<stop offset="1" stop-color="#040B1B"/>
</linearGradient>
<linearGradient id="paint1_linear_1_528" x1="519.5" y1="155" x2="519.5" y2="846" gradientUnits="userSpaceOnUse">
<stop stop-color="#4F73F6"/>
<stop offset="0.989441" stop-color="#040B1B"/>
</linearGradient>
<linearGradient id="paint2_linear_1_528" x1="513.782" y1="180.331" x2="513.782" y2="821.094" gradientUnits="userSpaceOnUse">
<stop stop-color="#4F73F6"/>
<stop offset="1" stop-color="#4F73F6" stop-opacity="0"/>
</linearGradient>
<linearGradient id="paint3_linear_1_528" x1="513.782" y1="180.331" x2="513.782" y2="821.094" gradientUnits="userSpaceOnUse">
<stop stop-color="#4F73F6"/>
<stop offset="0.909321" stop-color="#4F73F6" stop-opacity="0"/>
</linearGradient>
<linearGradient id="paint4_linear_1_528" x1="514.197" y1="180" x2="514.197" y2="847.461" gradientUnits="userSpaceOnUse">
<stop stop-color="#4F73F6"/>
<stop offset="0.989441" stop-color="#040B1B"/>
</linearGradient>
<linearGradient id="paint5_linear_1_528" x1="520" y1="183.527" x2="520" y2="859.331" gradientUnits="userSpaceOnUse">
<stop stop-color="#040B1B" stop-opacity="0"/>
<stop offset="0.157628" stop-color="#040B1B" stop-opacity="0.55"/>
<stop offset="0.347595" stop-color="#040B1B" stop-opacity="0.7"/>
<stop offset="0.6176" stop-color="#040B1B" stop-opacity="0.8"/>
<stop offset="0.81378" stop-color="#040B1B" stop-opacity="0.9"/>
<stop offset="1" stop-color="#040B1B"/>
</linearGradient>
<radialGradient id="paint6_radial_1_528" cx="0" cy="0" r="1" gradientUnits="userSpaceOnUse" gradientTransform="translate(519.568 256.856) rotate(90) scale(76.8558 182.15)">
<stop stop-color="white"/>
<stop offset="1" stop-color="white" stop-opacity="0.2"/>
</radialGradient>
<linearGradient id="paint7_linear_1_528" x1="514.5" y1="180" x2="514.5" y2="334" gradientUnits="userSpaceOnUse">
<stop stop-color="#4F73F6"/>
<stop offset="0.989441" stop-color="#040B1B"/>
</linearGradient>
</defs>
</svg>
