<svg width="160" height="56" viewBox="0 0 160 56" fill="none" xmlns="http://www.w3.org/2000/svg">
<g clip-path="url(#clip0_1_72)">
<path d="M57.2726 36.4965L57.3096 18.2945L49.6211 11.5935L44.5518 11.5829C44.5518 11.5829 44.4356 37.4153 44.499 37.4153L56.6918 37.4417L57.2673 36.5017L57.2726 36.4965Z" fill="url(#paint0_linear_1_72)"/>
<path d="M32.4013 11.8523C27.8917 22.5031 23.3821 33.1539 18.8673 43.7995C12.6838 45.3466 6.49501 46.8886 0.311523 48.4358L20.9056 1.1856C32.6336 1.25425 37.3069 1.27537 37.3069 1.27009C37.3069 1.27009 34.3815 2.87537 34.5663 3.55128C34.6349 3.81002 35.2 4.05293 37.4442 3.91563C37.9564 4.25359 38.6851 4.76052 39.5089 5.44699C40.5491 6.31827 41.0719 6.75655 41.1247 7.0681C41.2567 7.84434 39.7729 9.21728 32.4118 11.847L32.4013 11.8523Z" fill="url(#paint1_linear_1_72)"/>
<path d="M50.6666 12.507C39.1287 12.449 27.5854 12.3909 16.0475 12.3328C17.6686 8.62057 19.2844 4.90309 20.9056 1.19088C26.6402 1.24897 32.3749 1.31233 38.1095 1.37042C42.297 5.08263 46.4844 8.79483 50.6719 12.507H50.6666Z" fill="url(#paint2_linear_1_72)"/>
<path d="M5.76634 35.7466C22.9333 35.9948 40.1056 36.243 57.2726 36.4965C55.2554 40.8265 53.2436 45.1513 51.2264 49.4813C34.1492 49.3757 17.0772 49.2754 0 49.1697C1.92211 44.6971 3.84422 40.2192 5.76634 35.7466Z" fill="url(#paint3_linear_1_72)"/>
<path d="M106.382 50.5109H109.323C109.339 50.6324 109.37 50.7538 109.376 50.8753C109.423 51.905 110.051 52.4489 111.007 52.6284C111.372 52.6971 111.747 52.7288 112.116 52.7499C113.394 52.8291 114.667 52.8344 115.934 52.6231C116.293 52.5651 116.647 52.4172 116.985 52.2641C117.386 52.0793 117.692 51.7677 117.835 51.34C117.972 50.9387 118.125 50.5215 118.157 50.1043C118.215 49.2383 118.199 48.3618 118.215 47.4905C118.215 47.4694 118.189 47.443 118.152 47.3901C118.015 47.4746 117.872 47.5591 117.735 47.6489C116.61 48.3618 115.348 48.5941 114.049 48.668C112.755 48.7472 111.467 48.6363 110.21 48.2984C108.077 47.7228 106.698 46.3076 106.213 43.9948C105.975 42.8542 105.885 41.703 105.949 40.5413C106.017 39.2951 106.181 38.07 106.746 36.9241C107.263 35.868 108.061 35.1129 109.112 34.5849C110.152 34.0621 111.266 33.9195 112.401 33.8403C113.795 33.7453 115.189 33.7822 116.552 34.1043C118.4 34.5373 119.799 35.5406 120.528 37.3677C120.935 38.3868 121.083 39.443 121.093 40.5149C121.119 43.4298 121.119 46.3499 121.093 49.2647C121.083 50.3367 120.966 51.3981 120.533 52.4119C120.005 53.6528 119.102 54.4554 117.824 54.862C116.71 55.2211 115.564 55.3901 114.397 55.3742C113.325 55.3584 112.248 55.3584 111.176 55.2739C110.273 55.2 109.397 54.9624 108.589 54.5399C107.654 54.0488 107.026 53.3043 106.73 52.2905C106.614 51.8944 106.519 51.4878 106.434 51.0865C106.397 50.9123 106.408 50.7222 106.392 50.5162L106.382 50.5109ZM108.884 41.2119C108.943 41.9301 108.958 42.6165 109.059 43.2925C109.164 44.0106 109.444 44.6654 109.983 45.1829C110.426 45.6053 110.976 45.8007 111.556 45.9274C112.56 46.1545 113.574 46.1281 114.593 46.0542C115.174 46.0119 115.723 45.8799 116.251 45.637C117.032 45.2779 117.56 44.6865 117.83 43.868C118.083 43.1182 118.21 42.3472 118.215 41.5552C118.22 40.4357 118.194 39.3268 117.745 38.2707C117.455 37.5948 116.985 37.1037 116.298 36.8238C116.061 36.7288 115.813 36.6548 115.564 36.5809C114.698 36.3327 113.806 36.3855 112.919 36.3855C112.296 36.3855 111.694 36.5017 111.102 36.6812C110.495 36.8661 109.978 37.1934 109.624 37.7268C109.333 38.1703 109.112 38.6614 109.053 39.1948C108.98 39.876 108.937 40.5571 108.884 41.2119Z" fill="white"/>
<path d="M91.1472 7.88657H88.0211C88.0106 7.81265 87.9683 7.71232 87.9683 7.58558C87.9578 7.02057 87.8152 6.48723 87.6356 5.9539C87.3294 5.06147 86.7274 4.45421 85.8931 4.04233C84.9954 3.59877 84.029 3.48788 83.0521 3.44035C81.732 3.37699 80.4119 3.36114 79.1076 3.58821C77.3597 3.89448 76.0818 4.79217 75.4376 6.50836C75.0785 7.47469 74.9571 8.47271 74.8779 9.48657C74.7459 11.1869 74.7828 12.8872 74.9624 14.5823C75.0733 15.6754 75.3531 16.7209 75.9498 17.6556C76.5413 18.5796 77.4073 19.1235 78.4686 19.3928C80.2904 19.8523 82.128 19.8681 83.9762 19.6252C84.5413 19.5513 85.1115 19.4192 85.6396 19.2186C87.0231 18.7011 87.7148 17.6186 87.9472 16.2087C88.0053 15.8602 88.0211 15.5064 88.0581 15.1262H91.1789C91.1894 15.2423 91.2211 15.3532 91.2106 15.4589C91.0997 16.7315 90.8884 17.9777 90.2706 19.1235C89.6528 20.2589 88.7446 21.0773 87.5723 21.6054C86.0145 22.3077 84.367 22.5559 82.6772 22.5717C81.7743 22.5823 80.8713 22.5981 79.9683 22.5506C78.4845 22.4714 77.0376 22.1968 75.6858 21.542C74.5135 20.977 73.6053 20.1216 72.9822 18.9915C72.2587 17.682 71.8997 16.2615 71.7624 14.7829C71.5934 12.9136 71.604 11.0443 71.6884 9.16974C71.7624 7.5539 72.0792 5.99614 72.7815 4.52814C73.5102 3.01263 74.6825 1.98821 76.235 1.34926C77.4073 0.868732 78.6376 0.699756 79.8838 0.615267C81.8799 0.483254 83.8759 0.493815 85.835 0.932099C87.9049 1.39679 89.7954 3.32946 89.7954 3.32946C89.7954 3.32946 90.2653 4.9189 91.1472 7.87601V7.88657Z" fill="white"/>
<path d="M159.699 15.9076H147.554C147.538 16.9796 147.707 17.9565 148.309 18.8014C148.821 19.5195 149.582 19.8469 150.437 19.9631C151.852 20.1585 153.267 20.1426 154.682 19.9684C155.791 19.8311 156.568 19.2449 156.726 18.0568C156.737 17.9618 156.768 17.8667 156.795 17.7558H159.572C159.625 18.2469 159.541 18.7116 159.414 19.1552C158.97 20.7024 157.93 21.6528 156.409 22.1228C154.851 22.6086 153.246 22.5928 151.636 22.5822C150.606 22.5769 149.608 22.4185 148.636 22.0964C147.142 21.5948 146.007 20.676 145.352 19.208C145.03 18.4845 144.84 17.7294 144.745 16.9426C144.549 15.3585 144.539 13.7743 144.824 12.2007C145.119 10.569 145.817 9.15912 147.269 8.22975C148.256 7.60136 149.354 7.31093 150.511 7.19476C152.063 7.04163 153.605 7.04691 155.131 7.36902C156.98 7.76506 158.294 8.82117 159.028 10.5849C159.546 11.8258 159.636 13.1354 159.688 14.4502C159.704 14.9043 159.688 15.3637 159.688 15.8971L159.699 15.9076ZM156.842 13.5261C156.816 13.2515 156.8 13.0403 156.774 12.8291C156.694 12.2113 156.51 11.6251 156.203 11.0865C155.739 10.2628 154.968 9.86143 154.081 9.69773C152.834 9.46539 151.567 9.46539 150.321 9.70829C149.613 9.84559 148.943 10.1255 148.467 10.7116C147.813 11.5248 147.596 12.4806 147.543 13.5261H156.842Z" fill="white"/>
<path d="M128.38 0.773697H131.248C131.263 2.07271 131.248 3.35588 131.253 4.63376C131.253 5.9011 131.253 7.16314 131.253 8.49384C131.358 8.44103 131.406 8.41991 131.448 8.39351C132.404 7.68064 133.502 7.3374 134.675 7.21067C136.084 7.05225 137.489 7.08922 138.867 7.40605C140.832 7.85489 142.205 8.92156 142.701 11.1077C142.891 11.9473 142.981 12.7922 142.976 13.6582C142.96 16.4041 142.97 19.1447 142.97 21.8905C142.97 22.0437 142.97 22.1968 142.97 22.3763H140.055C140.05 22.2126 140.04 22.049 140.04 21.88C140.04 19.3348 140.045 16.7895 140.024 14.2496C140.024 13.579 139.982 12.9031 139.865 12.2483C139.67 11.1024 138.994 10.3473 137.838 10.0622C136.824 9.81397 135.794 9.80869 134.759 9.9143C134.389 9.95126 134.02 10.0093 133.661 10.0938C132.62 10.3473 131.918 10.9757 131.564 11.9895C131.348 12.6179 131.248 13.2569 131.248 13.9222C131.253 16.5097 131.248 19.0971 131.248 21.6846C131.248 21.8958 131.248 22.1123 131.248 22.3711C130.281 22.4291 129.347 22.3869 128.417 22.3975C128.317 22.0278 128.28 1.49185 128.375 0.773697H128.38Z" fill="white"/>
<path d="M108.473 22.3868H105.737V20.6812C105.595 20.808 105.526 20.8661 105.457 20.9294C104.871 21.4997 104.174 21.8799 103.403 22.1387C101.687 22.7248 99.9287 22.6878 98.1703 22.4397C97.4258 22.334 96.7023 22.0806 96.0211 21.7162C94.738 21.0192 93.967 19.9367 93.5182 18.5796C93.0271 17.101 93.0007 15.575 93.0376 14.0436C93.0588 13.1829 93.1855 12.3433 93.4125 11.509C94.0462 9.15913 95.6145 7.82315 97.9644 7.37431C99.9551 6.98883 101.967 7.01523 103.942 7.4588C105.399 7.78619 106.635 8.5149 107.432 9.82975C107.881 10.569 108.182 11.3769 108.283 12.2377C108.378 13.0298 108.441 13.6106 108.451 14.4555C108.473 16.0925 108.483 16.9109 108.462 18.87C108.451 19.6832 108.446 20.8925 108.462 22.3868H108.473ZM100.779 9.76639C100.182 9.82447 99.5802 9.85616 98.9835 9.94065C97.3307 10.1835 96.4647 11.0179 96.1848 12.6707C95.9208 14.2179 95.9261 15.7703 96.2482 17.3123C96.4964 18.5109 97.1723 19.3189 98.3815 19.6357C99.8073 20.0106 101.249 19.9842 102.685 19.6938C103.588 19.509 104.37 19.0707 104.824 18.2469C105.083 17.7822 105.273 17.2542 105.384 16.7314C105.616 15.6806 105.568 14.6034 105.526 13.5314C105.5 12.8872 105.378 12.2588 105.114 11.6568C104.766 10.8542 104.158 10.3578 103.335 10.1043C102.5 9.85088 101.64 9.82447 100.779 9.76111V9.76639Z" fill="white"/>
<path d="M104.269 41.8457C104.195 42.5163 104.148 43.4668 103.974 44.3856C103.747 45.579 103.261 46.6721 102.358 47.5434C101.56 48.3143 100.599 48.7579 99.5327 49.0061C98.8356 49.1698 98.128 49.2912 97.4099 49.2965C96.3802 49.3018 95.3452 49.3546 94.3208 49.1856C93.0904 48.985 91.9181 48.6312 90.936 47.8232C90.1967 47.216 89.6898 46.4503 89.3624 45.5632C89.0403 44.6866 88.8607 43.7836 88.8026 42.849C88.7287 41.5869 88.7287 40.3302 88.9346 39.0893C89.0931 38.1282 89.4257 37.2094 89.9802 36.3909C90.4924 35.6411 91.163 35.0761 91.9815 34.68C92.6944 34.3368 93.4442 34.1097 94.2363 34.0041C95.9578 33.7718 97.6739 33.7665 99.369 34.115C101.101 34.4688 102.521 35.3242 103.356 36.9506C103.826 37.8642 104.079 38.8411 104.158 39.8655C104.201 40.4358 104.227 41.0061 104.275 41.8457H104.269ZM101.244 41.5975C101.244 41.2384 101.244 40.8846 101.244 40.5256C101.238 39.818 101.075 39.1368 100.821 38.482C100.483 37.6213 99.8495 37.0615 98.9624 36.845C97.3518 36.4437 95.7254 36.449 94.1148 36.8345C93.0376 37.0932 92.33 37.7955 92.0502 38.8622C91.5749 40.6629 91.5644 42.4741 92.0502 44.28C92.3247 45.3097 92.9848 45.9803 94.0145 46.3025C95.2026 46.6721 96.4172 46.6721 97.6317 46.5665C98.1386 46.5242 98.6508 46.4133 99.1366 46.2549C100.045 45.9645 100.61 45.3256 100.921 44.4279C101.244 43.5038 101.259 42.5533 101.249 41.5975H101.244Z" fill="white"/>
<path d="M125.582 12.6338H122.672C122.614 12.3328 122.561 12.053 122.503 11.7784C122.329 10.9176 121.764 10.3685 120.961 10.1467C119.303 9.68728 117.618 9.66616 115.95 10.1203C115.131 10.3421 114.545 10.8648 114.176 11.6305C113.933 12.1374 113.769 12.6708 113.727 13.2305C113.637 14.4556 113.605 15.686 113.795 16.911C113.88 17.4549 114.081 17.9619 114.371 18.4266C114.709 18.9704 115.189 19.3506 115.802 19.5302C116.293 19.678 116.8 19.7995 117.312 19.847C118.342 19.9421 119.377 19.9526 120.396 19.7361C120.576 19.6992 120.755 19.6305 120.929 19.5777C121.88 19.2662 122.429 18.6166 122.572 17.6292C122.603 17.4021 122.635 17.1803 122.672 16.9374H125.55C125.613 17.2279 125.55 17.5077 125.502 17.7823C125.37 18.6008 125.18 19.4035 124.737 20.1269C124.114 21.1407 123.205 21.7744 122.091 22.1229C121.003 22.4662 119.884 22.6246 118.743 22.5876C117.882 22.5559 117.016 22.5718 116.172 22.4609C115.158 22.3289 114.186 22.0067 113.325 21.4312C112 20.544 111.303 19.2556 110.965 17.7295C110.69 16.4886 110.638 15.2371 110.701 13.9751C110.759 12.7553 110.949 11.5619 111.472 10.4371C112.021 9.25427 112.882 8.41995 114.059 7.8655C115.163 7.348 116.341 7.21071 117.529 7.13678C118.807 7.05758 120.079 7.11566 121.336 7.37441C122.176 7.54866 122.957 7.86022 123.649 8.36187C124.415 8.91632 124.932 9.6556 125.217 10.5586C125.423 11.2134 125.571 11.8787 125.582 12.6338Z" fill="white"/>
<path d="M74.9941 46.2813H86.664C86.7696 46.577 86.7855 48.7051 86.6904 49.0747H71.963C71.8733 48.7631 71.8416 28.1532 71.9261 27.5301C72.2957 27.4404 74.4924 27.4245 74.9941 27.5196V46.2813Z" fill="white"/>
<path d="M126.812 49.0957H123.934V34.0356C124.884 34.0092 125.83 34.0251 126.812 34.0251V49.101V49.0957Z" fill="white"/>
<path d="M126.822 27.5143V30.7512H123.939V27.5143H126.822Z" fill="white"/>
<path d="M141.661 43.7307C141.645 43.8575 141.64 43.9842 141.618 44.1109C141.471 45.1723 140.969 45.9697 139.892 46.2865C139.443 46.4185 138.973 46.5347 138.508 46.5664C137.304 46.6562 136.106 46.6667 134.933 46.2918C133.898 45.9644 133.238 45.2938 132.964 44.2694C132.811 43.6938 132.7 43.0971 132.657 42.5004C132.568 41.2278 132.589 39.9552 132.995 38.7248C133.312 37.7585 133.951 37.0984 134.939 36.8291C136.591 36.3802 138.26 36.4066 139.908 36.8397C140.504 36.9981 140.974 37.3571 141.254 37.901L143.314 35.7149C142.886 35.2291 142.347 34.8172 141.666 34.5057C140.879 34.1466 140.055 34.0146 139.216 33.909C137.975 33.7505 136.723 33.7981 135.483 33.9301C134.653 34.0146 133.851 34.2047 133.08 34.5532C131.712 35.171 130.799 36.1901 130.255 37.5736C129.89 38.503 129.753 39.4694 129.7 40.4621C129.626 41.7928 129.653 43.1235 129.927 44.4278C130.144 45.4258 130.524 46.3657 131.195 47.1631C132.23 48.404 133.64 48.9373 135.171 49.1697C136.032 49.3017 136.914 49.27 137.785 49.2964C138.915 49.3334 140.018 49.1644 141.09 48.8265C142.11 48.4991 142.981 47.9446 143.588 47.0311C144.09 46.276 144.364 45.4469 144.47 44.5545C144.502 44.2641 144.523 43.9684 144.549 43.6463H141.703C141.677 43.6991 141.666 43.7096 141.661 43.7202V43.7307Z" fill="white"/>
</g>
<defs>
<linearGradient id="paint0_linear_1_72" x1="50.9027" y1="37.4392" x2="50.9568" y2="11.6121" gradientUnits="userSpaceOnUse">
<stop stop-color="#1AB5E9"/>
<stop offset="1" stop-color="#1D315F"/>
</linearGradient>
<linearGradient id="paint1_linear_1_72" x1="41.123" y1="24.888" x2="0.399631" y2="24.8027" gradientUnits="userSpaceOnUse">
<stop stop-color="#1AB5E9"/>
<stop offset="1" stop-color="#1D315F"/>
</linearGradient>
<linearGradient id="paint2_linear_1_72" x1="50.7132" y1="6.89088" x2="16.0941" y2="6.81838" gradientUnits="userSpaceOnUse">
<stop stop-color="#1AB5E9"/>
<stop offset="1" stop-color="#1D315F"/>
</linearGradient>
<linearGradient id="paint3_linear_1_72" x1="54.814" y1="42.622" x2="-2.24679" y2="42.5623" gradientUnits="userSpaceOnUse">
<stop stop-color="#1D315F"/>
<stop offset="1" stop-color="#1AB5E9"/>
</linearGradient>
<clipPath id="clip0_1_72">
<rect width="160" height="54.9175" fill="white" transform="translate(0 0.541252)"/>
</clipPath>
</defs>
</svg>
