<svg width="29" height="29" viewBox="0 0 29 29" fill="none" xmlns="http://www.w3.org/2000/svg">
<g clip-path="url(#clip0_52_668)">
<path d="M13.7373 7.59542C14.814 6.31768 16.8609 7.07056 16.916 8.69005L16.9138 8.8447L16.816 11.1C16.7934 11.6172 16.8816 12.1332 17.0745 12.6132C17.2674 13.0933 17.5607 13.5262 17.9344 13.8828L18.0899 14.0227L19.8059 15.4804C21.0783 16.5616 20.3286 18.6171 18.7167 18.6728L18.5627 18.6706L16.3169 18.5723C15.8017 18.5495 15.2877 18.638 14.8095 18.8316C14.3313 19.0253 13.9001 19.3198 13.5449 19.6951L13.4059 19.8504L11.9539 21.5745C10.8772 22.8523 8.83034 22.0994 8.77576 20.4811L8.77627 20.3258L8.87494 18.0708C8.89765 17.5535 8.8096 17.0373 8.61672 16.5571C8.42385 16.0769 8.13064 15.6439 7.75689 15.2871L7.6022 15.1476L5.88614 13.6899C4.61291 12.6083 5.36264 10.5528 6.97503 10.4983L7.12968 10.4989L9.37522 10.5979C9.89023 10.6206 10.4041 10.5321 10.8821 10.3383C11.3602 10.1446 11.7913 9.85014 12.1464 9.47487L12.2853 9.31953L13.7373 7.59542ZM23.1732 7.95237C23.3302 8.01408 23.4669 8.11878 23.5676 8.25457C23.6683 8.39037 23.7291 8.55181 23.743 8.72056L23.7449 8.835L23.7016 9.81521L24.4486 10.4489C24.5851 10.5645 24.6843 10.7181 24.7337 10.8903C24.7831 11.0625 24.7805 11.2455 24.7262 11.4163C24.6719 11.587 24.5684 11.7377 24.4287 11.8492C24.289 11.9608 24.1195 12.0282 23.9417 12.0429L23.8269 12.0445L22.8508 12.001L22.2197 12.7512C22.1046 12.8881 21.9516 12.9877 21.7801 13.0372C21.6086 13.0867 21.4263 13.084 21.2563 13.0294C21.0863 12.9747 20.9364 12.8707 20.8253 12.7304C20.7143 12.5901 20.6473 12.4199 20.6327 12.2413L20.6308 12.1268L20.6741 11.1466L19.9271 10.5129C19.7906 10.3973 19.6914 10.2437 19.642 10.0715C19.5926 9.89934 19.5952 9.71628 19.6495 9.54556C19.7038 9.37484 19.8073 9.22415 19.947 9.11259C20.0867 9.00103 20.2562 8.93362 20.434 8.9189L20.5488 8.91736L21.5249 8.96078L22.156 8.21062C22.2775 8.06634 22.4409 7.96386 22.6233 7.91754C22.8058 7.87123 22.998 7.88341 23.1732 7.95237Z" fill="#535968"/>
</g>
<defs>
<clipPath id="clip0_52_668">
<rect width="21.6433" height="21.71" fill="white" transform="matrix(0.930712 0.365753 -0.363104 0.931749 7.883 0)"/>
</clipPath>
</defs>
</svg>
