<svg width="26" height="26" viewBox="0 0 26 26" fill="none" xmlns="http://www.w3.org/2000/svg">
<path d="M20.9896 9.20827C21.651 9.20842 22.299 9.39489 22.8594 9.74632C23.4198 10.0977 23.8698 10.5999 24.158 11.1953C24.4461 11.7907 24.5607 12.4552 24.4887 13.1127C24.4166 13.7702 24.1608 14.3941 23.7505 14.9129C23.3402 15.4318 22.7921 15.8245 22.1689 16.0463C21.5458 16.268 20.8727 16.3097 20.227 16.1665C19.5812 16.0234 18.9888 15.7013 18.5176 15.237C18.0465 14.7728 17.7156 14.1852 17.563 13.5416H14.313C14.231 14.0671 14.0311 14.5672 13.7282 15.0044C13.4254 15.4415 13.0275 15.8045 12.5645 16.066C12.1014 16.3275 11.5851 16.4808 11.0543 16.5143C10.5235 16.5479 9.99206 16.4608 9.49974 16.2597L7.81515 19.2399C8.4759 19.7949 8.90986 20.5731 9.03463 21.4269C9.1594 22.2807 8.96629 23.1506 8.49197 23.8715C8.01765 24.5923 7.29514 25.1138 6.46165 25.337C5.62815 25.5602 4.7417 25.4696 3.97061 25.0824C3.19953 24.6951 2.5975 24.0381 2.27885 23.2363C1.96019 22.4344 1.9471 21.5434 2.24206 20.7325C2.53701 19.9216 3.11947 19.2473 3.87885 18.8375C4.63822 18.4278 5.52163 18.3111 6.36132 18.5098L8.17265 15.3064C7.61691 14.6666 7.31138 13.8474 7.31249 12.9999C7.31249 12.0174 7.7144 11.129 8.36332 10.4909L6.62674 7.41644C6.09868 7.58496 5.53831 7.62655 4.99116 7.53781C4.44401 7.44907 3.9255 7.23252 3.47777 6.90574C3.03003 6.57897 2.6657 6.15118 2.41435 5.65714C2.16301 5.1631 2.03175 4.61674 2.03124 4.06244C2.03124 3.48201 2.17474 2.91059 2.44897 2.39902C2.7232 1.88746 3.11964 1.45163 3.60302 1.13032C4.0864 0.809004 4.64172 0.612181 5.21956 0.557364C5.79739 0.502547 6.37982 0.591437 6.91499 0.816122C7.45017 1.04081 7.9215 1.39432 8.28703 1.84519C8.65256 2.29606 8.90095 2.83031 9.01009 3.40039C9.11924 3.97046 9.08576 4.55868 8.91262 5.11268C8.73949 5.66669 8.43207 6.1693 8.01774 6.57578L9.75432 9.64811C10.6426 9.36198 11.6081 9.44019 12.4387 9.86555C13.2693 10.2909 13.8971 11.0286 14.1841 11.9166H17.563C17.7459 11.1454 18.1837 10.4584 18.8056 9.9669C19.4274 9.47539 20.1969 9.2081 20.9896 9.20827ZM10.8333 11.1041C10.5806 11.098 10.3292 11.1425 10.094 11.2349C9.85872 11.3274 9.64433 11.466 9.46342 11.6425C9.2825 11.8191 9.13872 12.03 9.04052 12.2629C8.94233 12.4959 8.89171 12.7461 8.89163 12.9988C8.89156 13.2516 8.94204 13.5019 9.0401 13.7348C9.13816 13.9678 9.28183 14.1788 9.46264 14.3555C9.64345 14.5321 9.85777 14.6708 10.093 14.7634C10.3282 14.856 10.5795 14.9007 10.8322 14.8947C11.3271 14.883 11.7977 14.6783 12.1436 14.3242C12.4895 13.9702 12.6832 13.4949 12.6833 12.9999C12.6834 12.505 12.49 12.0296 12.1443 11.6753C11.7986 11.3211 11.3281 11.1161 10.8333 11.1041ZM5.55207 2.16661C5.04927 2.16661 4.56705 2.36635 4.21151 2.72189C3.85598 3.07742 3.65624 3.55964 3.65624 4.06244C3.65624 4.56525 3.85598 5.04746 4.21151 5.403C4.56705 5.75854 5.04927 5.95828 5.55207 5.95828C6.05488 5.95828 6.53709 5.75854 6.89263 5.403C7.24817 5.04746 7.4479 4.56525 7.4479 4.06244C7.4479 3.55964 7.24817 3.07742 6.89263 2.72189C6.53709 2.36635 6.05488 2.16661 5.55207 2.16661ZM19.0937 12.7291C19.0937 13.2319 19.2935 13.7141 19.649 14.0697C20.0046 14.4252 20.4868 14.6249 20.9896 14.6249C21.4924 14.6249 21.9746 14.4252 22.3301 14.0697C22.6857 13.7141 22.8854 13.2319 22.8854 12.7291C22.8854 12.2263 22.6857 11.7441 22.3301 11.3886C21.9746 11.033 21.4924 10.8333 20.9896 10.8333C20.4868 10.8333 20.0046 11.033 19.649 11.3886C19.2935 11.7441 19.0937 12.2263 19.0937 12.7291ZM3.65624 21.9374C3.65638 22.4404 3.85632 22.9227 4.21206 23.2782C4.5678 23.6338 5.0502 23.8334 5.55315 23.8333C6.0561 23.8331 6.5384 23.6332 6.89394 23.2775C7.24947 22.9217 7.44913 22.4393 7.44899 21.9364C7.44892 21.6873 7.3998 21.4407 7.30443 21.2107C7.20906 20.9806 7.06931 20.7716 6.89317 20.5956C6.71702 20.4195 6.50793 20.2799 6.27782 20.1847C6.04772 20.0894 5.80111 20.0405 5.55207 20.0405C5.30304 20.0406 5.05645 20.0897 4.8264 20.1851C4.59635 20.2805 4.38733 20.4202 4.21129 20.5963C4.03525 20.7725 3.89562 20.9816 3.80038 21.2117C3.70515 21.4418 3.65617 21.6884 3.65624 21.9374Z" fill="#535968"/>
</svg>
