<svg width="566" height="378" viewBox="0 0 566 378" fill="none" xmlns="http://www.w3.org/2000/svg">
<g clip-path="url(#clip0_38_203)">
<path d="M214.332 86.4032C214.271 99.9734 193.702 99.9734 193.65 86.4032C193.71 72.833 214.279 72.833 214.332 86.4032Z" fill="url(#paint0_linear_38_203)"/>
<path d="M367.559 252.058C367.212 272.553 336.826 272.553 336.479 252.058C336.826 231.563 367.212 231.563 367.559 252.058Z" fill="url(#paint1_linear_38_203)"/>
<path d="M177.842 28.4255L436.793 46.4335L492.073 150.353L520.417 238.594L373.097 347.299C236.558 289.548 260.54 295.997 113.649 299.3L76.6175 118.125L177.842 28.4255Z" stroke="#576F87" stroke-miterlimit="10"/>
<path d="M113.649 299.3L268.738 177.433" stroke="#576F87" stroke-miterlimit="10"/>
<path d="M76.6175 118.133L269.627 175.838L250.075 297.478" stroke="#576F87" stroke-miterlimit="10"/>
<path d="M492.073 150.353L348.633 194.436L373.097 347.299" stroke="#576F87" stroke-miterlimit="10"/>
<path d="M520.417 238.594C520.417 238.594 348.459 192.614 348.64 194.436" stroke="#576F87" stroke-miterlimit="10"/>
<path d="M269.627 175.838L436.793 46.4335L348.633 194.436L269.627 175.838ZM269.627 175.838L177.842 28.4255" stroke="#576F87" stroke-miterlimit="10"/>
<path d="M250.075 299.3L348.633 194.436" stroke="#576F87" stroke-miterlimit="10"/>
<path d="M179.658 28.4256C179.696 30.7919 175.981 30.7919 176.019 28.4256C175.981 26.0593 179.696 26.0593 179.658 28.4256Z" fill="url(#paint2_linear_38_203)"/>
<path d="M350.456 194.436C350.493 196.802 346.779 196.802 346.817 194.436C346.779 192.069 350.493 192.069 350.456 194.436Z" fill="url(#paint3_linear_38_203)"/>
<path d="M438.616 46.4334C438.654 48.7997 434.939 48.7997 434.977 46.4334C434.939 44.0671 438.654 44.0671 438.616 46.4334Z" fill="url(#paint4_linear_38_203)"/>
<path d="M493.889 150.353C493.926 152.72 490.212 152.72 490.249 150.353C490.212 147.987 493.926 147.987 493.889 150.353Z" fill="url(#paint5_linear_38_203)"/>
<path d="M251.891 297.478C251.928 299.845 248.214 299.845 248.252 297.478C248.214 295.112 251.928 295.112 251.891 297.478Z" fill="url(#paint6_linear_38_203)"/>
<path d="M271.442 175.838C271.48 178.204 267.766 178.204 267.803 175.838C267.766 173.472 271.48 173.472 271.442 175.838Z" fill="url(#paint7_linear_38_203)"/>
<path d="M374.913 347.299C374.95 349.665 371.236 349.665 371.273 347.299C371.236 344.933 374.95 344.933 374.913 347.299Z" fill="url(#paint8_linear_38_203)"/>
<path d="M522.233 238.594C522.271 240.96 518.556 240.96 518.594 238.594C518.556 236.227 522.271 236.227 522.233 238.594Z" fill="url(#paint9_linear_38_203)"/>
<path d="M78.4333 118.133C78.471 120.499 74.7565 120.499 74.7942 118.133C74.7565 115.766 78.471 115.766 78.4333 118.133Z" fill="url(#paint10_linear_38_203)"/>
<path d="M115.465 299.3C115.503 301.667 111.788 301.667 111.826 299.3C111.788 296.934 115.503 296.934 115.465 299.3Z" fill="url(#paint11_linear_38_203)"/>
<path d="M288.335 212.678C285.585 209.594 280.936 208.898 277.395 211.022C273.16 213.207 273.831 218.424 270.433 221.191L258.325 204.166L241.358 216.314C244.115 219.724 249.314 219.051 251.491 223.3C253.609 226.853 252.908 231.518 249.841 234.277C245.893 237.823 239.881 237.067 236.89 232.863C234.17 229.454 236.309 225.084 234.019 221.569L217.074 233.71L246.519 275.101L263.486 262.952C260.729 259.543 255.53 260.215 253.352 255.967C251.235 252.413 251.936 247.749 255.002 244.99C258.95 241.444 264.963 242.2 267.954 246.403C270.674 249.813 268.534 254.182 270.825 257.698L287.77 245.557L275.669 228.554C279.173 226.256 283.528 228.403 286.926 225.674C291.115 222.672 291.868 216.64 288.335 212.678Z" fill="url(#paint12_linear_38_203)"/>
<path d="M331.092 196.688C321.426 207.408 303.501 197.271 301.919 217.282C301.919 219.074 300.473 220.525 298.687 220.525C296.901 220.525 295.455 219.074 295.455 217.282C295.221 206.025 305.106 196.106 316.325 196.341C334.694 194.844 327.506 178.499 333.971 178.635C341.482 180.215 334.641 193.475 331.085 196.688H331.092Z" fill="url(#paint13_linear_38_203)"/>
<path d="M197.642 185.054C187.975 195.774 170.051 185.636 168.469 205.648C168.469 207.439 167.022 208.891 165.236 208.891C163.451 208.891 162.004 207.439 162.004 205.648C161.77 194.391 171.656 184.472 182.874 184.706C201.243 183.209 194.055 166.865 200.52 167.001C208.032 168.581 201.191 181.841 197.634 185.054H197.642Z" fill="url(#paint14_linear_38_203)"/>
<path d="M394.642 298.054C384.975 308.774 367.051 298.636 365.469 318.648C365.469 320.439 364.022 321.891 362.236 321.891C360.451 321.891 359.004 320.439 359.004 318.648C358.77 307.391 368.656 297.472 379.874 297.706C398.243 296.209 391.055 279.865 397.52 280.001C405.032 281.581 398.191 294.841 394.634 298.054H394.642Z" fill="url(#paint15_linear_38_203)"/>
<path d="M404.139 130.024C404.139 130.024 394.125 130.123 373.315 122.699C358.269 118.427 336.14 99.3988 349.846 107.76C349.846 107.76 343.773 102.43 344.496 101.395C345.212 100.359 350.93 104.781 350.93 104.781C344.632 99.1266 345.144 97.2139 352.663 102.279C352.663 102.279 348.746 98.7864 349.28 98.0606C350.056 96.9947 356.755 103.058 357.493 102.846C357.493 102.846 356.054 99.6634 356.951 99.3383C357.802 99.0283 359.731 103.7 362.857 104.328C388.701 109.544 407.665 107.942 407.665 107.942L404.146 130.032L404.139 130.024Z" fill="#915975"/>
<path d="M452.796 107.904C452.796 107.904 434.766 109.28 404.267 107.012C404.267 107.012 399.648 118.405 402.112 130.546C402.112 130.546 437.132 137.063 452.638 137.463L452.803 107.904H452.796Z" fill="url(#paint16_linear_38_203)"/>
<path d="M405.269 329.404C405.269 329.404 405.661 323.946 407.785 318.125L392.023 312.802C392.023 312.802 389.477 323.258 389.107 326.841C389.107 326.841 399.543 335.543 405.276 329.412L405.269 329.404Z" fill="#915975"/>
<path d="M405.668 328.813C405.668 328.814 405.667 328.815 405.666 328.815C398.103 330.583 395.669 328.3 389.665 324.392C388.022 323.538 367.898 329.888 367.687 332.708C367.499 335.15 402.021 344.373 404.131 341.266C405.711 338.948 406.66 329.812 405.672 328.811C405.67 328.809 405.668 328.81 405.668 328.813Z" fill="url(#paint17_linear_38_203)"/>
<path d="M520.199 260.344C520.199 260.344 514.759 259.981 508.942 257.887L503.729 273.732C503.729 273.732 514.164 276.227 517.735 276.575C517.735 276.575 526.347 266.059 520.199 260.336V260.344Z" fill="#915975"/>
<path d="M519.609 259.943C519.61 259.943 519.611 259.944 519.612 259.945C521.419 267.526 519.159 269.976 515.294 276.023C514.45 277.679 520.9 297.826 523.71 298.03C526.143 298.204 535.132 263.511 532.028 261.41C529.71 259.839 520.598 258.94 519.607 259.939C519.606 259.941 519.607 259.943 519.609 259.943Z" fill="url(#paint18_linear_38_203)"/>
<path d="M414.129 188.902C414.129 188.902 390.433 257.1 387.48 315.781C387.48 315.781 400.304 322.253 409.948 319.289C409.948 319.289 432.167 265.069 443.423 224.562C432.958 276.567 484.606 279.463 510.509 276.477C510.509 276.477 515.942 267.73 513.229 257.35C513.229 257.35 482.27 242.805 480.507 240.09C478.601 237.165 486.527 203.281 470.69 176.42L414.129 188.902Z" fill="url(#paint19_linear_38_203)"/>
<path d="M427.812 83.7271C427.812 83.7271 426.139 89.5331 425.597 92.5269C423.969 93.608 421.551 96.3674 425.446 97.3426C423.909 104.131 427.292 106.399 433.576 106.762C433.576 106.762 433.854 115.562 434.013 118.238C434.013 118.238 446.166 120.771 450.121 112.41L448.351 97.7509C448.351 97.7509 449.601 91.1434 446.218 86.9703C442.835 82.7972 434.442 80.1285 427.812 83.7271Z" fill="#915975"/>
<path d="M450.852 87.2953C451.492 94.6814 448.976 99.4215 448.976 99.4215C445.796 102.385 439.37 99.7844 440.447 94.4395C440.907 92.7385 438.902 92.1866 438.902 92.1866C437.064 94.9611 435.429 95.9212 435.73 91.4306C416.442 87.1592 412.788 68.8564 433.523 77.3917C433.523 77.3917 430.901 75.2446 432.875 73.8234C434.849 72.4021 441.984 78.2762 441.984 78.2762C441.984 78.2762 440.417 75.9628 442.451 75.222C444.485 74.4811 450.362 81.648 450.852 87.2953Z" fill="url(#paint20_linear_38_203)"/>
<path d="M399.136 144.26C392.408 146.626 344.353 135.619 338.401 125.64C338.619 124.332 342.952 127.212 342.952 127.212C342.952 127.212 336.397 122.495 337.014 121.391C337.632 120.287 343.743 124.143 343.743 124.143C336.924 119.123 337.256 117.172 345.227 121.489C345.227 121.489 340.993 118.39 341.452 117.618C342.123 116.484 349.371 121.867 350.087 121.58C350.087 121.58 348.346 118.548 349.205 118.14C350.019 117.747 352.392 122.207 355.564 122.54C381.784 125.231 400.515 121.935 400.515 121.935L399.136 144.26Z" fill="#915975"/>
<path d="M396.491 121.096C396.487 121.096 396.484 121.093 396.483 121.098C396.465 121.22 395.355 128.492 396.017 137.21C396.392 142.146 400.397 145.853 405.326 146.314C408.222 146.584 411.566 146.812 414.792 146.838C416.789 146.588 411.522 187.647 413.579 189.786C417.11 193.322 459.33 191.559 471.37 184.56C472.79 183.734 473.673 182.302 473.798 180.665C474.844 166.98 465.712 112.714 455.282 108.274C449.481 105.802 439.874 115.789 396.491 121.096Z" fill="url(#paint21_linear_38_203)"/>
<path d="M139.741 313.498C139.741 313.498 142.935 309.068 145.045 303.232L160.528 309.333C160.528 309.333 155.774 318.979 153.762 321.965C153.762 321.965 140.193 321.897 139.741 313.498Z" fill="#FFA9C6"/>
<path d="M139.809 312.788C141.014 312.689 140.69 315.744 145.226 317.792C148.511 319.274 154.056 319.539 154.893 319.728C156.701 320.136 168.033 337.977 166.39 340.283C164.974 342.272 132.628 327.053 132.998 323.311C133.276 320.514 138.415 312.893 139.809 312.78V312.788Z" fill="url(#paint22_linear_38_203)"/>
<path d="M53.4416 233.476C53.4416 233.476 58.5047 235.494 64.6604 236.106L62.5884 252.67C62.5884 252.67 52.093 250.425 48.7175 249.208C48.7175 249.208 45.4401 235.993 53.4341 233.483L53.4416 233.476Z" fill="#FFA9C6"/>
<path d="M54.1498 233.37C54.5416 234.519 51.5053 234.95 50.6539 239.871C50.036 243.432 51.1436 248.89 51.1662 249.752C51.2189 251.612 36.7755 267.034 34.146 265.999C31.8781 265.107 38.5988 229.907 42.3057 229.34C45.0784 228.917 53.7053 232.039 54.1498 233.362V233.37Z" fill="url(#paint23_linear_38_203)"/>
<path d="M168.514 190.505C171.921 190.985 174.944 192.88 176.531 195.932C184.145 210.567 203.284 257.636 167.749 309.184C165.292 312.748 160.963 314.522 156.761 313.484C154.753 312.988 152.505 312.347 150.306 311.544C145.246 309.696 143.812 303.904 145.597 298.822C148.991 289.157 153.774 272.426 153.718 255.019C153.681 243.33 139.02 245.329 130.247 253.053C113.077 268.172 83.3456 265.829 60.8849 257.183C57.1902 255.761 54.6244 252.352 55.0865 248.421C55.3307 246.342 55.8333 243.87 56.8034 241.19C58.3188 237.004 62.7941 234.924 67.2358 235.225C126.832 239.275 88.4047 228.929 108.604 189.366C110.749 185.165 115.476 183.027 120.146 183.686L168.514 190.505Z" fill="url(#paint24_linear_38_203)"/>
<path d="M87.791 160.189C76.64 172.617 76.6476 184.388 75.1181 175.778C74.4325 175.944 71.8029 183.814 70.7029 183.315C69.9495 182.975 71.5091 178.408 71.5091 178.408C67.7494 185.9 66.5213 184.524 69.0001 177.199C69.0001 177.199 66.4234 183.322 65.3836 182.816C64.3439 182.309 66.8001 175.309 66.8001 175.309C66.8001 175.309 65.0521 179.754 64.2083 178.892C63.6356 178.31 68.1864 165.473 73.2496 155.789C88.3033 126.97 106.303 118.556 106.303 118.556L114.493 139.694C114.493 139.694 100.637 144.623 87.791 160.181V160.189Z" fill="#FFA9C6"/>
<path d="M217.624 119.698C233.974 116.326 241.034 107.511 237.161 115.154C237.816 115.426 244.582 110.656 245.17 111.714C245.569 112.44 241.621 115.184 241.621 115.184C249.073 111.389 249.254 113.234 242.925 117.656C242.925 117.656 248.613 114.262 249.156 115.283C249.698 116.303 243.58 120.484 243.58 120.484C243.58 120.484 247.611 117.944 247.784 119.146C247.897 119.955 236.648 127.575 226.846 132.361C197.688 146.604 176.75 143.421 176.75 143.421L182.649 121.527C182.649 121.527 198.072 124.581 217.617 119.698H217.624Z" fill="#FFA9C6"/>
<path d="M192.798 144.51C187.517 145.568 182.016 146.294 176.441 146.483C176.441 146.483 177.458 169.102 174.693 192.599C170.383 196.348 133.887 197.301 110.62 183.194C119.285 161.58 119.76 139.611 119.76 139.611C117.507 140.344 115.224 141.153 113.212 141.985C110.861 138.28 106.092 130.471 102.739 119.312C124.634 105.878 161.297 118.836 192.452 119.312C192.452 119.312 195.804 133.238 192.791 144.502L192.798 144.51Z" fill="url(#paint25_linear_38_203)"/>
<path d="M149.272 107.776C149.272 107.776 146.484 113.294 145.188 116.802C145.188 116.802 151.826 131.695 161.884 119.078L162.427 110.573C169.976 110.671 170.135 105.515 170.451 100.745C171.807 99.4066 172.93 98.5146 170.263 97.5318C170.263 94.6287 169.833 90.5917 169.833 90.5917C158.396 87.3106 145.964 93.4569 149.272 107.776Z" fill="#FFA9C6"/>
<path d="M147.444 89.7541C147.447 89.5244 147.388 89.099 147.357 88.8712C147.126 87.1372 145.659 79.251 138.015 78.0344C129.419 76.6585 130.978 86.804 123.263 84.4529C90.8123 73.8084 96.7645 108.048 124.732 100.389C132.536 97.2559 135.105 88.9478 142.621 90.9553C144.669 91.5022 147.413 91.8734 147.444 89.7541Z" fill="url(#paint26_linear_38_203)"/>
<path d="M149.524 110.573C149.527 110.573 149.529 110.572 149.532 110.572C152.34 110.079 153.762 107.895 154.483 105.821C155.345 103.342 153.519 100.452 153.995 97.8708C154.512 95.0657 157.39 99.4346 160.22 99.0818C163.253 98.7038 167.835 94.7547 169.618 91.9935C170.526 90.5878 170.161 88.7343 169.292 87.3039C164.279 79.0463 144.029 81.0525 141.496 94.0314C139.591 100.275 143.16 111.687 149.517 110.573C149.519 110.573 149.522 110.573 149.524 110.573Z" fill="url(#paint27_linear_38_203)"/>
<path d="M236.716 112.5C241.222 109.393 239.286 113.816 237.025 115.267L236.716 112.5Z" fill="#EF9ABB"/>
<path d="M296.509 144.213C298.577 140.635 297.781 136.002 294.654 133.305C291.253 129.968 286.509 132.239 282.817 129.879L295.191 113.047L278.338 100.74C275.964 104.427 278.232 109.153 274.879 112.552C272.168 115.676 267.519 116.472 263.938 114.424C259.334 111.786 258.168 105.839 261.223 101.682C263.609 98.0306 268.429 98.6936 271.05 95.4171L254.211 83.1291L224.128 124.059L240.981 136.366C243.355 132.679 241.088 127.953 244.44 124.554C247.151 121.43 251.801 120.634 255.382 122.682C259.986 125.32 261.151 131.267 258.097 135.424C255.711 139.075 250.891 138.412 248.27 141.689L265.109 153.977L277.464 137.159C280.745 139.766 280.07 144.575 283.726 146.946C287.889 149.984 293.854 148.81 296.509 144.213Z" fill="url(#paint28_linear_38_203)"/>
<path d="M326.955 56.1819C323.264 58.0399 321.389 62.3502 322.525 66.3206C323.539 70.9761 328.751 71.6785 330.545 75.6769L310.966 82.9657L318.309 102.499C322.316 100.718 323.012 95.5225 327.68 94.5189C331.66 93.3935 335.984 95.2776 337.856 98.9538C340.259 103.685 337.972 109.297 333.138 111.098C329.14 112.843 325.474 109.645 321.485 110.948L328.827 130.458L376.429 112.729L369.085 93.1956C365.078 94.9767 364.382 100.172 359.715 101.176C355.735 102.301 351.411 100.417 349.539 96.7412C347.136 92.01 349.422 86.398 354.257 84.5967C358.254 82.8519 361.921 86.0498 365.909 84.7472L358.567 65.2373L339.012 72.5247C337.699 68.5457 340.9 64.8949 339.144 60.9063C337.329 56.0831 331.696 53.7939 326.955 56.1819Z" fill="url(#paint29_linear_38_203)"/>
</g>
<g opacity="0.37">
<mask id="mask0_38_203" style="mask-type:alpha" maskUnits="userSpaceOnUse" x="222" y="23" width="198" height="290">
<path d="M222.579 312.761L222.579 23.0254L419.254 91.2523L419.254 252.471L222.579 312.761Z" fill="url(#paint30_radial_38_203)" fill-opacity="0.6"/>
</mask>
<g mask="url(#mask0_38_203)">
<path d="M399.586 144.388L404.863 146.307L414.937 146.787L415.416 151.104L413.497 189.959L404.383 220.18L397.188 249.921L214.632 328.781L214.632 31.6599L339.145 127.119L351.617 134.315L368.886 140.071L388.553 143.909L399.586 144.388Z" fill="#1AB5E9"/>
</g>
</g>
<defs>
<linearGradient id="paint0_linear_38_203" x1="203.991" y1="76.2256" x2="203.991" y2="96.5809" gradientUnits="userSpaceOnUse">
<stop stop-color="#1AB5E9"/>
<stop offset="1" stop-color="#4F73F6"/>
</linearGradient>
<linearGradient id="paint1_linear_38_203" x1="352.019" y1="236.687" x2="352.019" y2="267.429" gradientUnits="userSpaceOnUse">
<stop stop-color="#1AB5E9"/>
<stop offset="1" stop-color="#4F73F6"/>
</linearGradient>
<linearGradient id="paint2_linear_38_203" x1="176.727" y1="29.6805" x2="179.11" y2="27.0199" gradientUnits="userSpaceOnUse">
<stop stop-color="#2A3A51"/>
<stop offset="1" stop-color="#FF7352"/>
</linearGradient>
<linearGradient id="paint3_linear_38_203" x1="347.525" y1="195.691" x2="349.9" y2="193.022" gradientUnits="userSpaceOnUse">
<stop stop-color="#2A3A51"/>
<stop offset="1" stop-color="#FF7352"/>
</linearGradient>
<linearGradient id="paint4_linear_38_203" x1="435.685" y1="47.6884" x2="438.06" y2="45.0277" gradientUnits="userSpaceOnUse">
<stop stop-color="#2A3A51"/>
<stop offset="1" stop-color="#FF7352"/>
</linearGradient>
<linearGradient id="paint5_linear_38_203" x1="490.958" y1="151.608" x2="493.332" y2="148.94" gradientUnits="userSpaceOnUse">
<stop stop-color="#2A3A51"/>
<stop offset="1" stop-color="#FF7352"/>
</linearGradient>
<linearGradient id="paint6_linear_38_203" x1="248.96" y1="298.733" x2="251.335" y2="296.065" gradientUnits="userSpaceOnUse">
<stop stop-color="#2A3A51"/>
<stop offset="1" stop-color="#FF7352"/>
</linearGradient>
<linearGradient id="paint7_linear_38_203" x1="268.511" y1="177.093" x2="270.886" y2="174.432" gradientUnits="userSpaceOnUse">
<stop stop-color="#2A3A51"/>
<stop offset="1" stop-color="#FF7352"/>
</linearGradient>
<linearGradient id="paint8_linear_38_203" x1="371.982" y1="348.554" x2="374.356" y2="345.893" gradientUnits="userSpaceOnUse">
<stop stop-color="#2A3A51"/>
<stop offset="1" stop-color="#FF7352"/>
</linearGradient>
<linearGradient id="paint9_linear_38_203" x1="519.302" y1="239.849" x2="521.684" y2="237.188" gradientUnits="userSpaceOnUse">
<stop stop-color="#2A3A51"/>
<stop offset="1" stop-color="#FF7352"/>
</linearGradient>
<linearGradient id="paint10_linear_38_203" x1="75.5024" y1="119.38" x2="77.8772" y2="116.719" gradientUnits="userSpaceOnUse">
<stop stop-color="#2A3A51"/>
<stop offset="1" stop-color="#FF7352"/>
</linearGradient>
<linearGradient id="paint11_linear_38_203" x1="112.534" y1="300.555" x2="114.909" y2="297.895" gradientUnits="userSpaceOnUse">
<stop stop-color="#2A3A51"/>
<stop offset="1" stop-color="#FF7352"/>
</linearGradient>
<linearGradient id="paint12_linear_38_203" x1="301.351" y1="196.693" x2="253.361" y2="260.054" gradientUnits="userSpaceOnUse">
<stop stop-color="#040B1B"/>
<stop offset="1" stop-color="#52C0E5"/>
</linearGradient>
<linearGradient id="paint13_linear_38_203" x1="336.992" y1="179.119" x2="297.319" y2="218.236" gradientUnits="userSpaceOnUse">
<stop stop-color="#FFFDFA"/>
<stop offset="1" stop-color="#202E3F"/>
</linearGradient>
<linearGradient id="paint14_linear_38_203" x1="203.541" y1="167.485" x2="163.868" y2="206.602" gradientUnits="userSpaceOnUse">
<stop stop-color="#FFFDFA"/>
<stop offset="1" stop-color="#202E3F"/>
</linearGradient>
<linearGradient id="paint15_linear_38_203" x1="400.541" y1="280.485" x2="360.868" y2="319.602" gradientUnits="userSpaceOnUse">
<stop stop-color="#FFFDFA"/>
<stop offset="1" stop-color="#202E3F"/>
</linearGradient>
<linearGradient id="paint16_linear_38_203" x1="437.697" y1="121.799" x2="402.789" y2="119.704" gradientUnits="userSpaceOnUse">
<stop offset="0.14" stop-color="#212B38"/>
<stop offset="0.25" stop-color="#314259"/>
<stop offset="0.43" stop-color="#486488"/>
<stop offset="0.6" stop-color="#5A7FAC"/>
<stop offset="0.75" stop-color="#6792C7"/>
<stop offset="0.89" stop-color="#6F9DD7"/>
<stop offset="1" stop-color="#72A2DD"/>
</linearGradient>
<linearGradient id="paint17_linear_38_203" x1="386.881" y1="324.313" x2="386.881" y2="341.898" gradientUnits="userSpaceOnUse">
<stop stop-color="#1AB5E9"/>
<stop offset="1" stop-color="#4F73F6"/>
</linearGradient>
<linearGradient id="paint18_linear_38_203" x1="523.945" y1="259.519" x2="523.945" y2="298.031" gradientUnits="userSpaceOnUse">
<stop stop-color="#1AB5E9"/>
<stop offset="1" stop-color="#4F73F6"/>
</linearGradient>
<linearGradient id="paint19_linear_38_203" x1="491.41" y1="232.296" x2="413.264" y2="253.624" gradientUnits="userSpaceOnUse">
<stop stop-color="#9299A4"/>
<stop offset="0.81" stop-color="#E9E9E8"/>
<stop offset="1" stop-color="#FFFDFA"/>
</linearGradient>
<linearGradient id="paint20_linear_38_203" x1="457.354" y1="93.623" x2="427.661" y2="81.1906" gradientUnits="userSpaceOnUse">
<stop stop-color="#9299A4"/>
<stop offset="0.81" stop-color="#E9E9E8"/>
<stop offset="1" stop-color="#FFFDFA"/>
</linearGradient>
<linearGradient id="paint21_linear_38_203" x1="434.843" y1="107.888" x2="434.843" y2="191.558" gradientUnits="userSpaceOnUse">
<stop stop-color="#1AB5E9"/>
<stop offset="1" stop-color="#4F73F6"/>
</linearGradient>
<linearGradient id="paint22_linear_38_203" x1="129.08" y1="311.926" x2="158.489" y2="331.927" gradientUnits="userSpaceOnUse">
<stop stop-color="#9299A4"/>
<stop offset="0.81" stop-color="#E9E9E8"/>
<stop offset="1" stop-color="#FFFDFA"/>
</linearGradient>
<linearGradient id="paint23_linear_38_203" x1="48.5894" y1="222.4" x2="41.9839" y2="256.692" gradientUnits="userSpaceOnUse">
<stop stop-color="#9299A4"/>
<stop offset="0.81" stop-color="#E9E9E8"/>
<stop offset="1" stop-color="#FFFDFA"/>
</linearGradient>
<linearGradient id="paint24_linear_38_203" x1="121.711" y1="182.604" x2="121.711" y2="314.859" gradientUnits="userSpaceOnUse">
<stop stop-color="#1AB5E9"/>
<stop offset="1" stop-color="#4F73F6"/>
</linearGradient>
<linearGradient id="paint25_linear_38_203" x1="120.234" y1="192.485" x2="157.458" y2="119.437" gradientUnits="userSpaceOnUse">
<stop stop-color="#9299A4"/>
<stop offset="0.81" stop-color="#E9E9E8"/>
<stop offset="1" stop-color="#FFFDFA"/>
</linearGradient>
<linearGradient id="paint26_linear_38_203" x1="124.35" y1="77.9055" x2="124.35" y2="101.517" gradientUnits="userSpaceOnUse">
<stop stop-color="#1AB5E9"/>
<stop offset="1" stop-color="#4F73F6"/>
</linearGradient>
<linearGradient id="paint27_linear_38_203" x1="155.674" y1="82.3665" x2="155.674" y2="110.649" gradientUnits="userSpaceOnUse">
<stop stop-color="#1AB5E9"/>
<stop offset="1" stop-color="#4F73F6"/>
</linearGradient>
<linearGradient id="paint28_linear_38_203" x1="315.768" y1="151.566" x2="240.561" y2="125.842" gradientUnits="userSpaceOnUse">
<stop stop-color="#040B1B"/>
<stop offset="1" stop-color="#52C0E5"/>
</linearGradient>
<linearGradient id="paint29_linear_38_203" x1="314.884" y1="39.4714" x2="363.665" y2="102.226" gradientUnits="userSpaceOnUse">
<stop stop-color="#040B1B"/>
<stop offset="1" stop-color="#52C0E5"/>
</linearGradient>
<radialGradient id="paint30_radial_38_203" cx="0" cy="0" r="1" gradientUnits="userSpaceOnUse" gradientTransform="translate(521.423 168.866) rotate(-180) scale(298.844 95.3931)">
<stop offset="0.36816" stop-color="#1AB5E9"/>
<stop offset="1" stop-color="#1AB5E9" stop-opacity="0"/>
</radialGradient>
<clipPath id="clip0_38_203">
<rect width="565.081" height="378" fill="white"/>
</clipPath>
</defs>
</svg>
