<svg width="440" height="280" viewBox="0 0 440 280" fill="none" xmlns="http://www.w3.org/2000/svg">
<path d="M302 95.4846V136.832H261V84H290.534L302 95.4846Z" fill="#ACB1B8"/>
<path d="M302 95.4847H290.534V84L302 95.4847Z" fill="#467EF4"/>
<path d="M269.459 98.8873H294.948" stroke="#060305" stroke-linecap="round" stroke-linejoin="round"/>
<path d="M269.459 104.076H294.948" stroke="#060305" stroke-linecap="round" stroke-linejoin="round"/>
<path d="M269.459 109.265H294.948" stroke="#060305" stroke-linecap="round" stroke-linejoin="round"/>
<path d="M269.459 114.461H294.948" stroke="#060305" stroke-linecap="round" stroke-linejoin="round"/>
<path d="M269.459 119.65H294.948" stroke="#060305" stroke-linecap="round" stroke-linejoin="round"/>
<path d="M269.459 124.838H294.948" stroke="#060305" stroke-linecap="round" stroke-linejoin="round"/>
<path d="M110.724 24.9937C110.724 21.9228 113.03 19.4284 116 19.0775C115.361 16.3575 114.283 13.813 112.855 11.5066C110.499 13.3492 107.103 13.2113 104.935 11.0554C102.767 8.88694 102.629 5.4901 104.484 3.13362C102.178 1.70469 99.6341 0.639258 96.9148 0C96.5639 2.97067 94.0577 5.27701 91 5.27701C87.9424 5.27701 85.4361 2.97067 85.0852 0C82.3659 0.639258 79.8221 1.71722 77.5163 3.13362C79.3584 5.4901 79.2331 8.88694 77.0652 11.0554C74.8972 13.2239 71.5013 13.3617 69.1454 11.5066C67.7168 13.813 66.6516 16.3575 66 19.0775C68.9699 19.4284 71.2757 21.9353 71.2757 24.9937C71.2757 28.0521 68.9699 30.559 66 30.91C66.6391 33.63 67.7168 36.1745 69.1454 38.4808C71.5013 36.6383 74.8972 36.7761 77.0652 38.9321C79.2331 41.1005 79.3709 44.4974 77.5163 46.8539C79.8221 48.2828 82.3659 49.3482 85.0852 50C85.4361 47.0293 87.9424 44.723 91 44.723C94.0577 44.723 96.5639 47.0293 96.9148 50C99.6341 49.3607 102.178 48.2828 104.484 46.8539C102.642 44.4974 102.779 41.1005 104.935 38.9321C107.09 36.7636 110.499 36.6257 112.855 38.4808C114.283 36.1745 115.348 33.63 116 30.91C113.03 30.559 110.724 28.0521 110.724 24.9937ZM91 33.1913C86.4762 33.1913 82.8045 29.5187 82.8045 24.9937C82.8045 20.4688 86.4762 16.7962 91 16.7962C95.5238 16.7962 99.1955 20.4688 99.1955 24.9937C99.1955 29.5187 95.5238 33.1913 91 33.1913Z" fill="url(#paint0_linear_52_674)"/>
<path d="M413.367 266.351L409.214 253.505C408.692 251.89 406.959 251.004 405.344 251.526C403.73 252.048 402.844 253.781 403.366 255.395L407.519 268.242C408.041 269.857 409.774 270.743 411.389 270.221C413.003 269.699 413.889 267.966 413.367 266.351Z" fill="#535968"/>
<path d="M423.349 263.124L417.527 245.118C417.005 243.503 415.273 242.618 413.658 243.14C412.043 243.662 411.158 245.394 411.68 247.009L417.501 265.015C418.023 266.63 419.756 267.516 421.37 266.994C422.985 266.471 423.871 264.739 423.349 263.124Z" fill="white"/>
<path d="M433.318 259.891L430.69 251.76C430.167 250.145 428.435 249.259 426.82 249.781C425.205 250.304 424.32 252.036 424.842 253.651L427.47 261.781C427.993 263.396 429.725 264.282 431.34 263.76C432.954 263.238 433.84 261.506 433.318 259.891Z" fill="#535968"/>
<path d="M21.5441 217.78L18.1863 214.421L0.960221 231.588L4.3181 234.947L21.5441 217.78Z" fill="#1AB5E9"/>
<path d="M11.8017 224.134C16.2439 228.576 23.4527 228.583 27.9029 224.148C32.353 219.713 32.3594 212.516 27.9172 208.073C23.4749 203.63 16.2661 203.624 11.816 208.059C7.36579 212.494 7.35939 219.691 11.8017 224.134Z" fill="#C8C8C8"/>
<path d="M7.04024 216.09C7.04652 209.032 12.799 203.299 19.8692 203.305C26.9394 203.311 32.6816 209.054 32.6753 216.113C32.6691 223.172 26.9166 228.905 19.8464 228.898C12.7762 228.892 7.03395 223.149 7.04024 216.09ZM29.8199 216.111C29.8248 210.628 25.3586 206.161 19.8666 206.156C14.3747 206.151 9.90056 210.61 9.89568 216.093C9.8908 221.576 14.357 226.043 19.8489 226.047C25.3409 226.052 29.815 221.593 29.8199 216.111Z" fill="#1AB5E9"/>
<path d="M9.98811 224.991C7.80586 227.13 5.63272 229.268 3.45046 231.406" stroke="#060305" stroke-linecap="round" stroke-linejoin="round"/>
<path d="M187.53 238.542C182.914 238.542 178.298 238.311 173.696 237.833C171.83 237.642 170.469 235.965 170.659 234.096C170.85 232.228 172.525 230.864 174.39 231.055C230.41 236.81 287.11 203.763 300.781 157.39C301.312 155.59 303.205 154.553 305.002 155.085C306.799 155.617 307.834 157.513 307.303 159.313C300.481 182.445 282.684 204.131 258.487 218.807C237.204 231.709 212.435 238.542 187.517 238.542H187.53Z" fill="#1FAEEA"/>
<path d="M224.2 226.663C224.663 228.777 225.126 230.891 225.589 233.005" stroke="#C8C8C8" stroke-linecap="round" stroke-linejoin="round"/>
<path d="M229.933 225.326C230.6 226.99 231.267 228.668 231.948 230.332" stroke="#C8C8C8" stroke-linecap="round" stroke-linejoin="round"/>
<path d="M236.523 222.339C237.082 224.344 237.654 226.349 238.212 228.354" stroke="#C8C8C8" stroke-linecap="round" stroke-linejoin="round"/>
<path d="M242.665 219.952C243.441 221.507 244.217 223.076 245.007 224.631" stroke="#C8C8C8" stroke-linecap="round" stroke-linejoin="round"/>
<path d="M249.446 216.393C250.467 218.275 251.488 220.157 252.51 222.039" stroke="#C8C8C8" stroke-linecap="round" stroke-linejoin="round"/>
<path d="M255.219 213.01C256.39 214.824 257.561 216.638 258.732 218.452" stroke="#C8C8C8" stroke-linecap="round" stroke-linejoin="round"/>
<path d="M260.966 208.618C262.409 210.514 263.852 212.41 265.296 214.306" stroke="#C8C8C8" stroke-linecap="round" stroke-linejoin="round"/>
<path d="M266.889 205.331L270.524 210.364" stroke="#C8C8C8" stroke-linecap="round" stroke-linejoin="round"/>
<path d="M292.978 142.196C294.122 136.045 299.16 131.612 305.056 130.944L302.619 143.997L310.558 145.47L312.995 132.417C318.251 135.158 321.356 141.105 320.198 147.256C318.796 154.785 311.565 159.763 304.049 158.372C296.532 156.981 291.576 149.739 292.978 142.196Z" fill="#C8C8C8"/>
<path d="M308.365 154.621C312.723 154.417 316.672 150.762 317.216 146.424" stroke="#C8C8C8" stroke-linecap="round" stroke-linejoin="round"/>
<path d="M121.816 278.232C140.144 282.351 158.513 273.308 165.063 256.928L181.566 215.588L94.501 195.989L91.8049 240.438C90.7428 258.046 103.488 274.113 121.816 278.232Z" fill="#1FAEEA"/>
<path d="M96.3529 245.894C98.5179 258.756 108.785 269.367 120.945 274.031" stroke="#C8C8C8" stroke-linecap="round" stroke-linejoin="round"/>
<path d="M109.123 219.012C109.525 217.222 111.287 216.108 113.076 216.499C114.856 216.889 115.972 218.662 115.568 220.457C115.166 222.246 113.404 223.361 111.615 222.969C109.835 222.58 108.72 220.806 109.123 219.012Z" fill="#C8C8C8" stroke="#C8C8C8"/>
<path d="M108.063 214.824C109.547 213.31 111.808 212.601 113.891 213.024C115.961 213.447 117.786 214.974 118.562 216.952" stroke="#C8C8C8" stroke-linecap="round" stroke-linejoin="round"/>
<path d="M122.508 222.026C122.91 220.237 124.671 219.123 126.46 219.513C128.233 219.917 129.356 221.682 128.954 223.471C128.551 225.26 126.789 226.375 125 225.983C123.22 225.594 122.105 223.82 122.508 222.026Z" fill="#C8C8C8" stroke="#C8C8C8"/>
<path d="M122.211 217.293C123.859 216.093 126.146 215.833 128.025 216.638C129.904 217.443 131.293 219.27 131.566 221.289" stroke="#C8C8C8" stroke-linecap="round" stroke-linejoin="round"/>
<path d="M93.4661 216.543C92.9623 216.543 92.4585 216.434 91.9683 216.188C56.8644 198.948 47.5914 167.892 47.2101 166.583C46.6927 164.769 47.7275 162.887 49.5385 162.368C51.336 161.85 53.2287 162.887 53.7461 164.701C53.8278 165.001 62.6651 194.229 94.9504 210.078C96.6388 210.91 97.3333 212.942 96.5027 214.633C95.9171 215.834 94.7053 216.543 93.4389 216.543H93.4661Z" fill="#1FAEEA"/>
<path d="M58.8251 188.924C61.0447 187.478 63.2778 186.032 65.4974 184.586" stroke="#C8C8C8" stroke-linecap="round" stroke-linejoin="round"/>
<path d="M61.5349 192.633C63.6455 191.079 65.7561 189.51 67.8667 187.955" stroke="#C8C8C8" stroke-linecap="round" stroke-linejoin="round"/>
<path d="M63.4548 195.866C65.3476 194.311 67.2403 192.756 69.133 191.201" stroke="#C8C8C8" stroke-linecap="round" stroke-linejoin="round"/>
<path d="M66.4778 198.566C68.0301 196.671 69.596 194.775 71.1483 192.893" stroke="#C8C8C8" stroke-linecap="round" stroke-linejoin="round"/>
<path d="M73.1636 194.57L69.8275 199.917" stroke="#C8C8C8" stroke-linecap="round" stroke-linejoin="round"/>
<path d="M75.492 197.243C73.9397 199.139 72.3738 201.035 70.8215 202.931" stroke="#C8C8C8" stroke-linecap="round" stroke-linejoin="round"/>
<path d="M31.687 160.186C28.6777 154.703 29.7534 148.075 33.8793 143.819L40.2656 155.453L47.3326 151.553L40.9464 139.918C46.7471 138.691 52.9155 141.323 55.9248 146.806C59.6149 153.517 57.1775 161.959 50.4781 165.655C43.7787 169.352 35.3635 166.91 31.6734 160.2L31.687 160.186Z" fill="#C8C8C8"/>
<path d="M35.3908 160.909C40.0068 164.251 46.9922 163.732 51.0772 159.75" stroke="#C8C8C8" stroke-linecap="round" stroke-linejoin="round"/>
<path d="M216.074 89.0372C213.623 92.3242 211.185 95.6249 208.734 98.9119L216.074 89.0372Z" fill="url(#paint1_linear_52_674)"/>
<path d="M214.358 87.1687C214.031 85.2184 215.352 83.3771 217.299 83.0497C219.247 82.7224 221.085 84.0454 221.412 85.9958C221.738 87.9462 220.418 89.8011 218.47 90.1148C216.523 90.4421 214.685 89.1191 214.358 87.1687Z" fill="url(#paint2_linear_52_674)"/>
<path d="M187.506 110.014C186.321 102.922 191.101 96.2114 198.181 95.0248C205.262 93.8382 211.948 98.6392 213.133 105.731C214.317 112.824 209.538 119.534 202.457 120.721C195.376 121.907 188.691 117.106 187.506 110.014Z" fill="url(#paint3_linear_52_674)"/>
<path d="M144.668 84.1409C184.878 77.4305 224.394 113.574 232.931 164.87L87.3413 189.189C78.8036 137.892 104.471 90.8513 144.668 84.1409Z" fill="url(#paint4_linear_52_674)"/>
<path d="M156.381 115.784L156.381 115.783C155.678 111.568 158.517 107.597 162.711 106.893C166.904 106.189 170.881 109.031 171.571 113.246L171.571 113.247C172.275 117.462 169.436 121.433 165.241 122.137C161.049 122.841 157.072 119.999 156.381 115.784Z" fill="#C8C8C8" stroke="#C8C8C8"/>
<path d="M153.437 109.346C154.622 105.991 157.631 103.345 161.117 102.608C164.603 101.885 168.415 103.099 170.839 105.704" stroke="#C8C8C8" stroke-linecap="round" stroke-linejoin="round"/>
<path d="M135.858 135.069C142.639 141.439 152.007 144.944 161.294 144.589C170.58 144.235 179.663 140.034 185.954 133.173" stroke="#C8C8C8" stroke-width="2" stroke-linecap="round" stroke-linejoin="round"/>
<path d="M115.147 106.714C122.541 96.1979 134.714 89.1874 147.5 88.069" stroke="#C8C8C8" stroke-linecap="round" stroke-linejoin="round"/>
<path d="M91.3174 134.605C89.057 132.682 87.4366 129.982 86.9055 126.817C85.7209 119.725 90.5004 113.015 97.5811 111.828C99.324 111.542 101.04 111.61 102.646 111.978C102.646 111.978 106.446 126.858 91.3174 134.592V134.605Z" fill="url(#paint5_linear_52_674)"/>
<path d="M77.7279 112.469C81.4725 114.542 85.2034 116.602 88.948 118.675L77.7279 112.469Z" fill="url(#paint6_linear_52_674)"/>
<path d="M72.0497 111.992C71.7229 110.041 73.0437 108.2 74.9909 107.873C76.9381 107.546 78.7763 108.869 79.1031 110.819C79.43 112.769 78.1091 114.624 76.1619 114.938C74.2147 115.252 72.3765 113.942 72.0497 111.992Z" fill="url(#paint7_linear_52_674)"/>
<defs>
<linearGradient id="paint0_linear_52_674" x1="123.325" y1="-5.26739" x2="89.19" y2="38.2229" gradientUnits="userSpaceOnUse">
<stop stop-color="#040B1B"/>
<stop offset="1" stop-color="#52C0E5"/>
</linearGradient>
<linearGradient id="paint1_linear_52_674" x1="208.734" y1="93.9746" x2="216.074" y2="93.9746" gradientUnits="userSpaceOnUse">
<stop stop-color="#1AB5E9"/>
<stop offset="0.3" stop-color="#23AAEB"/>
<stop offset="0.6" stop-color="#4382F3"/>
<stop offset="1" stop-color="#4F73F6"/>
</linearGradient>
<linearGradient id="paint2_linear_52_674" x1="214.308" y1="86.5823" x2="221.461" y2="86.5823" gradientUnits="userSpaceOnUse">
<stop stop-color="#1AB5E9"/>
<stop offset="0.3" stop-color="#23AAEB"/>
<stop offset="0.6" stop-color="#4382F3"/>
<stop offset="1" stop-color="#4F73F6"/>
</linearGradient>
<linearGradient id="paint3_linear_52_674" x1="187.326" y1="107.873" x2="213.313" y2="107.873" gradientUnits="userSpaceOnUse">
<stop stop-color="#1AB5E9"/>
<stop offset="0.3" stop-color="#23AAEB"/>
<stop offset="0.6" stop-color="#4382F3"/>
<stop offset="1" stop-color="#4F73F6"/>
</linearGradient>
<linearGradient id="paint4_linear_52_674" x1="85.7025" y1="136.264" x2="232.931" y2="136.264" gradientUnits="userSpaceOnUse">
<stop stop-color="#1AB5E9"/>
<stop offset="0.3" stop-color="#23AAEB"/>
<stop offset="0.6" stop-color="#4382F3"/>
<stop offset="1" stop-color="#4F73F6"/>
</linearGradient>
<linearGradient id="paint5_linear_52_674" x1="86.7253" y1="123.128" x2="103.071" y2="123.128" gradientUnits="userSpaceOnUse">
<stop stop-color="#1AB5E9"/>
<stop offset="0.3" stop-color="#23AAEB"/>
<stop offset="0.6" stop-color="#4382F3"/>
<stop offset="1" stop-color="#4F73F6"/>
</linearGradient>
<linearGradient id="paint6_linear_52_674" x1="77.7279" y1="115.572" x2="88.948" y2="115.572" gradientUnits="userSpaceOnUse">
<stop stop-color="#1AB5E9"/>
<stop offset="0.3" stop-color="#23AAEB"/>
<stop offset="0.6" stop-color="#4382F3"/>
<stop offset="1" stop-color="#4F73F6"/>
</linearGradient>
<linearGradient id="paint7_linear_52_674" x1="72" y1="111.404" x2="79.1528" y2="111.404" gradientUnits="userSpaceOnUse">
<stop stop-color="#1AB5E9"/>
<stop offset="0.3" stop-color="#23AAEB"/>
<stop offset="0.6" stop-color="#4382F3"/>
<stop offset="1" stop-color="#4F73F6"/>
</linearGradient>
</defs>
</svg>
