<svg width="65" height="65" viewBox="0 0 65 65" fill="none" xmlns="http://www.w3.org/2000/svg">
<g clip-path="url(#clip0_52_654)">
<path fill-rule="evenodd" clip-rule="evenodd" d="M18.9029 22.0542C19.086 22.1199 19.2544 22.2211 19.3984 22.3522C19.5425 22.4832 19.6595 22.6415 19.7426 22.818C19.8257 22.9944 19.8733 23.1856 19.8828 23.3806C19.8922 23.5756 19.8633 23.7705 19.7976 23.9543L18.2795 28.2068C17.5754 30.183 17.1039 31.5203 16.8887 32.5546C16.6838 33.5497 16.7731 34.0164 16.9565 34.358C17.1399 34.6996 17.4783 35.0293 18.4188 35.4041C19.3985 35.7937 20.7702 36.133 22.8004 36.6264L27.1745 37.693C27.5557 37.7861 27.8845 38.0274 28.0885 38.3639C28.2925 38.7004 28.355 39.1046 28.2623 39.4874C28.1696 39.8702 27.9293 40.2003 27.5942 40.4052C27.2591 40.61 26.8567 40.6728 26.4755 40.5797L21.9973 39.4863C20.0987 39.0251 18.5253 38.6398 17.3303 38.1665C16.0754 37.665 15.0036 36.9789 14.3532 35.7676C13.7019 34.5546 13.7183 33.2793 13.9933 31.9516C14.2552 30.6872 14.8002 29.1572 15.4588 27.3091L15.4936 27.207L17.0099 22.951C17.0752 22.7672 17.176 22.5981 17.3065 22.4534C17.437 22.3087 17.5947 22.1913 17.7704 22.1078C17.9461 22.0244 18.1365 21.9765 18.3307 21.967C18.5249 21.9575 18.7199 21.9883 18.9029 22.0542ZM28.6096 16.677C28.7985 16.6316 28.9945 16.6241 29.1864 16.6548C29.3782 16.6856 29.5622 16.754 29.7277 16.8561C29.8932 16.9583 30.0371 17.0922 30.1511 17.2502C30.265 17.4082 30.3469 17.5872 30.3919 17.777L37.5093 47.6661C37.6004 48.0493 37.5362 48.4532 37.3307 48.7888C37.1253 49.1245 36.7955 49.3645 36.4139 49.4559C36.0323 49.5474 35.6301 49.4829 35.2959 49.2766C34.9616 49.0704 34.7226 48.7392 34.6315 48.356L27.5142 18.4668C27.469 18.2771 27.4615 18.0803 27.4921 17.8876C27.5227 17.6949 27.5908 17.5102 27.6926 17.344C27.7943 17.1778 27.9276 17.0333 28.085 16.9189C28.2423 16.8044 28.4206 16.7222 28.6096 16.677ZM36.625 26.3357C36.7179 25.9532 36.9583 25.6234 37.2933 25.4188C37.6283 25.2142 38.0305 25.1516 38.4115 25.2447L42.8888 26.3364C44.7883 26.7993 46.3617 27.1847 47.5566 27.6579C48.8106 28.1577 49.8834 28.8456 50.5337 30.0568C51.1841 31.2681 51.1687 32.5452 50.8937 33.8728C50.6308 35.1355 50.0868 36.6672 49.4272 38.5136L47.8771 42.8734C47.7448 43.2445 47.4712 43.5477 47.1163 43.7162C46.7615 43.8847 46.3546 43.9047 45.985 43.7719C45.6154 43.6391 45.3136 43.3643 45.1458 43.008C44.978 42.6517 44.958 42.243 45.0902 41.8719L46.6074 37.6176C47.3106 35.6397 47.783 34.3042 47.9973 33.2681C48.2032 32.2748 48.1129 31.8063 47.9304 31.4664C47.7479 31.1266 47.4078 30.7934 46.4682 30.4203C45.4875 30.029 44.1167 29.6914 42.0856 29.1963L37.7115 28.1297C37.3305 28.0364 37.0021 27.795 36.7984 27.4586C36.5946 27.1222 36.5323 26.7183 36.625 26.3357Z" fill="#535968"/>
</g>
<defs>
<clipPath id="clip0_52_654">
<rect width="47.3669" height="47.4762" fill="white" transform="matrix(0.879367 -0.476144 0.473062 0.881029 0 22.5535)"/>
</clipPath>
</defs>
</svg>
