<svg width="34" height="39" viewBox="0 0 34 39" fill="none" xmlns="http://www.w3.org/2000/svg">
<path d="M32.4143 16.8277C32.4243 20.9299 30.8293 24.6633 28.2373 27.4546L26.9513 28.6808C24.2447 30.9936 20.7356 32.3993 16.9075 32.4092C8.3342 32.4292 1.34592 25.4708 1.32598 16.8975C1.31601 13.0644 2.7067 9.5503 5.00954 6.83375L6.23572 5.54276C9.01209 2.93088 12.7405 1.32088 16.8378 1.3159C25.4111 1.29596 32.3994 8.25433 32.4193 16.8277H32.4143Z" fill="white"/>
<path d="M16.8277 0C7.52665 0.019938 -0.024861 7.60635 6.15125e-05 16.9025C0.0199995 25.2465 6.12602 32.175 14.0962 33.4959L16.0003 38.3757C16.3243 39.2081 17.5056 39.2081 17.8296 38.3757L19.7138 33.4859C27.679 32.1251 33.7501 25.1717 33.7302 16.8327C33.7102 7.53158 26.1288 -0.0149535 16.8277 0.0049845V0ZM32.4143 16.8277C32.4243 20.9299 30.8292 24.6633 28.2373 27.4546L26.9513 28.6808C24.2447 30.9936 20.7356 32.3993 16.9075 32.4092C8.33414 32.4292 1.34586 25.4708 1.32593 16.8975C1.31596 13.0644 2.70664 9.55031 5.00948 6.83375L6.23566 5.54277C9.01203 2.93089 12.7405 1.32089 16.8377 1.31591C25.4111 1.29597 32.3993 8.25434 32.4193 16.8277H32.4143Z" fill="#929394"/>
<path opacity="0.7" d="M32.4143 16.8277C32.4243 20.9299 30.8293 24.6633 28.2373 27.4546L26.9513 28.6808C24.2447 30.9936 20.7356 32.3993 16.9075 32.4092C8.3342 32.4292 1.34592 25.4708 1.32598 16.8975C1.31601 13.0644 2.7067 9.5503 5.00954 6.83375L6.23572 5.54276C9.01209 2.93088 12.7405 1.32088 16.8378 1.3159C25.4111 1.29596 32.3994 8.25433 32.4193 16.8277H32.4143Z" fill="white"/>
<path d="M14.48 26.5773C13.8021 26.5773 13.1491 26.2982 12.6806 25.7997L7.09795 19.8383C6.16585 18.8464 6.22069 17.2862 7.2126 16.3541C8.20452 15.422 9.76466 15.4768 10.6968 16.4688L14.3255 20.3417L22.9038 9.4755C23.7462 8.40882 25.2964 8.22439 26.3631 9.06677C27.4297 9.90915 27.6142 11.4593 26.7718 12.526L16.419 25.6402C15.9754 26.2035 15.3074 26.5424 14.5897 26.5773C14.5548 26.5773 14.5199 26.5773 14.485 26.5773H14.48Z" fill="url(#paint0_linear_54_87)"/>
<defs>
<linearGradient id="paint0_linear_54_87" x1="30.3576" y1="6.63763" x2="18.5767" y2="24.0012" gradientUnits="userSpaceOnUse">
<stop stop-color="#040B1B"/>
<stop offset="1" stop-color="#52C0E5"/>
</linearGradient>
</defs>
</svg>
