<svg width="43" height="117" viewBox="0 0 43 117" fill="none" xmlns="http://www.w3.org/2000/svg">
<path d="M32.7437 0.112754L0.79729 18.5148C0.361574 18.7651 2.28882e-05 19.3863 2.28882e-05 19.8869V37.7234C2.28882e-05 38.2333 0.352303 38.4373 0.79729 38.1777L32.7437 19.7756C33.1794 19.5253 33.5409 18.9042 33.5409 18.4036V0.567017C33.5409 0.0571356 33.1886 -0.146822 32.7437 0.112754Z" fill="#E0E0E0"/>
<path d="M36.4427 1.995L4.4963 20.3971C4.06058 20.6474 3.69903 21.2685 3.69903 21.7691V39.6057C3.69903 40.1156 4.06058 40.7182 4.4963 40.9685L7.64829 42.7577C8.09328 43.008 8.79784 42.9987 9.24282 42.7577L41.1892 24.3556C41.6249 24.1053 41.9865 23.4842 41.9865 22.9836V5.147C41.9865 4.63712 41.6249 4.03453 41.1892 3.78422L38.0372 1.995C37.6015 1.74469 36.8876 1.75396 36.4427 1.995Z" fill="url(#paint0_linear_52_551)"/>
<path opacity="0.4" d="M36.4427 1.995L4.4963 20.3971C4.06058 20.6474 3.69903 21.2685 3.69903 21.7691V39.6057C3.69903 40.1156 4.06058 40.7182 4.4963 40.9685L7.64829 42.7577C8.09328 43.008 8.79784 42.9987 9.24282 42.7577L41.1892 24.3556C41.6249 24.1053 41.9865 23.4842 41.9865 22.9836V5.147C41.9865 4.63712 41.6249 4.03453 41.1892 3.78422L38.0372 1.995C37.6015 1.74469 36.8876 1.75396 36.4427 1.995Z" fill="url(#paint1_linear_52_551)"/>
<path d="M41.9772 4.99827C41.9123 4.59964 41.5878 4.46058 41.1892 4.68308L9.24284 23.0851C9.02035 23.2149 8.82566 23.4281 8.68661 23.6785L3.94935 20.9529C4.08841 20.7119 4.28309 20.5079 4.49631 20.3874L36.4519 1.97607C36.8877 1.72577 37.6015 1.7165 38.0372 1.97607L41.1892 3.76528C41.5878 3.98778 41.9216 4.51621 41.9772 4.98901V4.99827Z" fill="url(#paint2_linear_52_551)"/>
<path d="M41.1892 4.68319L9.24282 23.0853C8.80711 23.3356 8.44556 23.9567 8.44556 24.4573V42.2939C8.44556 42.8037 8.79784 43.0077 9.24282 42.7481L41.1892 24.346C41.6249 24.0957 41.9772 23.4746 41.9772 22.974V5.13744C41.9772 4.62756 41.6249 4.42362 41.1892 4.68319Z" fill="url(#paint3_linear_52_551)"/>
<g opacity="0.2">
<path d="M41.1892 4.68319L9.24282 23.0853C8.80711 23.3356 8.44556 23.9567 8.44556 24.4573V42.2939C8.44556 42.8037 8.79784 43.0077 9.24282 42.7481L41.1892 24.346C41.6249 24.0957 41.9772 23.4746 41.9772 22.974V5.13744C41.9772 4.62756 41.6249 4.42362 41.1892 4.68319Z" fill="url(#paint4_linear_52_551)"/>
</g>
<path d="M16.344 27.6648C16.344 27.8038 16.3348 27.9985 16.3255 28.2396C16.3255 28.4806 16.3255 28.7309 16.3255 28.9905C16.3255 29.2501 16.3255 29.5004 16.3255 29.7414C16.3255 29.9824 16.3255 30.1771 16.344 30.3069C16.3533 30.5387 16.3904 30.7519 16.4367 30.9466C16.4831 31.1413 16.5573 31.2896 16.6592 31.4008C16.7612 31.5121 16.891 31.5677 17.0486 31.577C17.2062 31.577 17.4009 31.5213 17.6326 31.3916C17.8644 31.2618 18.0498 31.1042 18.2074 30.9373C18.3558 30.7704 18.4763 30.5943 18.5782 30.4181C18.671 30.242 18.7451 30.0659 18.8007 29.8897C18.8564 29.7136 18.8934 29.556 18.9213 29.4169C18.9583 29.2315 18.9954 29.0925 19.0325 28.9998C19.0696 28.907 19.153 28.8329 19.2643 28.7587L20.5992 27.9893C20.6641 27.9522 20.7105 27.9614 20.7568 27.9985C20.8032 28.0449 20.8217 28.1098 20.8217 28.2025C20.8217 28.7402 20.729 29.2964 20.5621 29.8619C20.3953 30.4274 20.1728 30.9651 19.8854 31.475C19.598 31.9849 19.2643 32.4577 18.8842 32.8841C18.5041 33.3106 18.0869 33.6536 17.6326 33.9132C17.1413 34.1913 16.7056 34.3396 16.3255 34.3303C15.9454 34.3303 15.6117 34.2098 15.3428 33.978C15.074 33.7463 14.8607 33.4125 14.7124 32.9861C14.5641 32.5504 14.4807 32.0498 14.4621 31.4843C14.4528 31.0671 14.4436 30.6036 14.4436 30.1122C14.4436 29.6209 14.4436 29.1481 14.4621 28.6846C14.4714 28.1005 14.5548 27.5072 14.7032 26.9046C14.8515 26.302 15.0647 25.7273 15.3335 25.1803C15.6024 24.6333 15.9269 24.142 16.3162 23.697C16.7056 23.252 17.1413 22.8812 17.6326 22.6031C18.0776 22.3435 18.4948 22.2044 18.8842 22.1859C19.2643 22.1673 19.6073 22.2508 19.8854 22.4269C20.1728 22.6031 20.3953 22.8905 20.5621 23.2613C20.729 23.6414 20.8125 24.0956 20.8217 24.624C20.8217 24.7168 20.8032 24.8095 20.7568 24.9022C20.7105 24.9949 20.6641 25.0598 20.5992 25.0968L19.2643 25.8663C19.153 25.9312 19.0696 25.9405 19.0325 25.9034C18.9954 25.857 18.9583 25.7643 18.9213 25.616C18.8934 25.5048 18.8564 25.3935 18.8007 25.273C18.7451 25.1525 18.6802 25.069 18.5782 24.9949C18.4855 24.93 18.365 24.9022 18.2074 24.9022C18.0591 24.9022 17.8644 24.9763 17.6326 25.1061C17.4009 25.2359 17.2062 25.4028 17.0486 25.5882C16.891 25.7736 16.7612 25.9868 16.6592 26.2093C16.5573 26.4318 16.4831 26.6728 16.4367 26.9231C16.3904 27.1734 16.3626 27.4145 16.344 27.6648Z" fill="#F0F0F0"/>
<path d="M25.0213 18.3201C25.457 18.0698 25.8556 17.9307 26.2172 17.9215C26.5787 17.9029 26.8939 17.9678 27.1628 18.1254C27.4316 18.2738 27.6356 18.4962 27.7839 18.7744C27.9322 19.0525 28.0157 19.3584 28.0157 19.6922C28.0157 19.7849 27.9971 19.8776 27.9508 19.9703C27.9044 20.063 27.8581 20.1279 27.8025 20.1557L26.4675 20.9251C26.3748 20.9808 26.3006 20.9993 26.2357 20.99C26.1801 20.99 26.1152 20.9529 26.0596 20.9066C26.041 20.8881 26.004 20.851 25.9669 20.8046C25.9205 20.7583 25.8556 20.7212 25.7815 20.6841C25.698 20.6563 25.5961 20.647 25.4755 20.6563C25.355 20.6656 25.2067 20.7305 25.0306 20.8324C24.9008 20.9066 24.7802 20.99 24.6597 21.0827C24.5392 21.1754 24.4372 21.2774 24.3445 21.3887C24.2518 21.4999 24.1777 21.6204 24.122 21.7595C24.0664 21.8985 24.0386 22.0469 24.0386 22.2045C24.0386 22.3621 24.0757 22.4733 24.1406 22.5382C24.2055 22.6031 24.3167 22.6402 24.4651 22.6402C24.6134 22.6402 24.8173 22.6124 25.0676 22.5475C25.3179 22.4826 25.6331 22.4084 26.004 22.3064C26.3748 22.2045 26.7085 22.1674 26.9866 22.1767C27.2648 22.1952 27.4965 22.2786 27.6819 22.4362C27.8673 22.5938 28.0064 22.8256 28.0991 23.1408C28.1918 23.4467 28.2382 23.8454 28.2382 24.346C28.2382 24.8837 28.164 25.4028 28.0064 25.9127C27.8488 26.4226 27.6263 26.9047 27.3482 27.3682C27.0701 27.8317 26.7363 28.2489 26.347 28.629C25.9576 29.0091 25.5404 29.3243 25.0862 29.5931C24.6226 29.862 24.2055 30.0103 23.8254 30.0381C23.4453 30.0659 23.1208 30.0103 22.8427 29.8619C22.5646 29.7136 22.3514 29.4911 22.1938 29.1945C22.0362 28.8978 21.9527 28.5548 21.9527 28.1562C21.9527 28.0635 21.9713 27.9708 22.0176 27.878C22.064 27.7853 22.1103 27.7205 22.166 27.6926L23.5009 26.9232C23.5936 26.8676 23.6678 26.8397 23.7234 26.849C23.779 26.849 23.8347 26.8768 23.8903 26.9232C23.9181 26.951 23.9552 26.9973 24.0108 27.053C24.0664 27.1179 24.1406 27.1735 24.2333 27.2198C24.326 27.2662 24.4372 27.2847 24.5763 27.2755C24.7154 27.2755 24.8915 27.2013 25.0954 27.0901C25.457 26.8861 25.7537 26.6451 25.9947 26.3855C26.2357 26.1259 26.3562 25.8385 26.3562 25.5233C26.3562 25.3657 26.3099 25.2638 26.2265 25.2081C26.1338 25.1525 26.004 25.134 25.8278 25.1432C25.6517 25.1525 25.4292 25.1989 25.1511 25.273C24.873 25.3472 24.5485 25.4306 24.1777 25.5233C23.4731 25.6995 22.9632 25.6068 22.6387 25.2545C22.3143 24.9022 22.1567 24.2718 22.1567 23.3726C22.1567 22.9183 22.2216 22.4548 22.3514 21.9727C22.4812 21.4906 22.6758 21.0178 22.9261 20.5543C23.1764 20.1001 23.4824 19.6736 23.8347 19.2842C24.1962 18.8949 24.5948 18.5704 25.0306 18.3201H25.0213Z" fill="#F0F0F0"/>
<path d="M32.4099 14.0557C32.8456 13.8054 33.2442 13.6663 33.6058 13.6571C33.9674 13.6385 34.2826 13.7034 34.5514 13.861C34.8202 14.0094 35.0242 14.2318 35.1725 14.51C35.3209 14.7881 35.4043 15.094 35.4043 15.4278C35.4043 15.5205 35.3857 15.6132 35.3394 15.7059C35.293 15.7986 35.2467 15.8635 35.1911 15.8913L33.8561 16.6607C33.7634 16.7164 33.6892 16.7349 33.6243 16.7256C33.5687 16.7256 33.5038 16.6885 33.4482 16.6422C33.4297 16.6237 33.3926 16.5866 33.3555 16.5402C33.3091 16.4939 33.2535 16.4568 33.1701 16.4197C33.0866 16.3919 32.9847 16.3826 32.8642 16.3919C32.7436 16.4012 32.5953 16.466 32.4192 16.568C32.2894 16.6422 32.1689 16.7256 32.0483 16.8183C31.9278 16.911 31.8259 17.013 31.7331 17.1243C31.6404 17.2355 31.5663 17.356 31.5107 17.4951C31.455 17.6341 31.4272 17.7825 31.4272 17.9401C31.4272 18.0977 31.4643 18.2089 31.5292 18.2738C31.5941 18.3387 31.7053 18.3758 31.8537 18.3758C32.002 18.3758 32.2059 18.348 32.4562 18.2831C32.7066 18.2182 33.0218 18.144 33.3926 18.042C33.7634 17.9401 34.0971 17.903 34.3753 17.9123C34.6534 17.9308 34.8851 18.0142 35.0705 18.1718C35.256 18.3294 35.395 18.5612 35.4877 18.8764C35.5804 19.1823 35.6268 19.581 35.6268 20.0816C35.6268 20.6193 35.5526 21.1384 35.395 21.6483C35.2374 22.1582 35.0149 22.6402 34.7368 23.1038C34.4587 23.5673 34.125 23.9845 33.7356 24.3646C33.3555 24.7447 32.929 25.0691 32.4748 25.3287C32.0113 25.5976 31.5941 25.7459 31.214 25.7737C30.8339 25.8015 30.5002 25.7459 30.2313 25.5976C29.9532 25.4492 29.74 25.2267 29.5824 24.9301C29.4248 24.6334 29.3413 24.2904 29.3413 23.8918C29.3413 23.7991 29.3599 23.7064 29.4062 23.6137C29.4526 23.521 29.4989 23.4561 29.5546 23.4283L30.8895 22.6588C30.9822 22.6032 31.0564 22.5754 31.112 22.5846C31.1676 22.5846 31.2233 22.6124 31.2789 22.6588C31.3067 22.6866 31.3438 22.733 31.3994 22.7886C31.455 22.8535 31.5292 22.9091 31.6219 22.9554C31.7146 23.0018 31.8259 23.0203 31.9649 23.0111C32.104 23.0111 32.2801 22.9369 32.4841 22.8257C32.8456 22.6217 33.1423 22.3807 33.3833 22.1211C33.6243 21.8615 33.7449 21.5741 33.7449 21.2589C33.7449 21.1013 33.6985 20.9994 33.6151 20.9437C33.5316 20.8881 33.3926 20.8696 33.2164 20.8788C33.0403 20.8881 32.8178 20.9345 32.5397 21.0086C32.2616 21.0828 31.9371 21.1662 31.5663 21.2589C30.8617 21.4351 30.3518 21.3424 30.0274 20.9901C29.7029 20.6378 29.5453 20.0074 29.5453 19.1082C29.5453 18.6539 29.6102 18.1904 29.74 17.7083C29.8698 17.2262 30.0644 16.7534 30.3148 16.2899C30.5651 15.8264 30.871 15.4092 31.2233 15.0198C31.5755 14.6305 31.9834 14.306 32.4192 14.0557H32.4099Z" fill="#F0F0F0"/>
<path d="M32.7436 37.1418L0.797267 55.5439C0.361551 55.7942 0 56.4153 0 56.9159V74.7525C0 75.2624 0.35228 75.4663 0.797267 75.2068L32.7436 56.8047C33.1793 56.5544 33.5409 55.9333 33.5409 55.4326V37.5961C33.5409 37.0862 33.1886 36.8822 32.7436 37.1418Z" fill="#E0E0E0"/>
<path d="M36.7437 39.2007L4.7973 57.6028C4.36158 57.8531 4.00003 58.4742 4.00003 58.9748V76.8114C4.00003 77.3213 4.36158 77.9239 4.7973 78.1742L7.94929 79.9634C8.39428 80.2137 9.09884 80.2044 9.54383 79.9634L41.4902 61.5613C41.9259 61.311 42.2875 60.6899 42.2875 60.1893V42.3527C42.2875 41.8429 41.9259 41.2403 41.4902 40.99L38.3382 39.2007C37.9025 38.9504 37.1886 38.9597 36.7437 39.2007Z" fill="url(#paint5_linear_52_551)"/>
<path opacity="0.4" d="M36.7437 39.2007L4.7973 57.6028C4.36158 57.8531 4.00003 58.4742 4.00003 58.9748V76.8114C4.00003 77.3213 4.36158 77.9239 4.7973 78.1742L7.94929 79.9634C8.39428 80.2137 9.09884 80.2044 9.54383 79.9634L41.4902 61.5613C41.9259 61.311 42.2875 60.6899 42.2875 60.1893V42.3527C42.2875 41.8429 41.9259 41.2403 41.4902 40.99L38.3382 39.2007C37.9025 38.9504 37.1886 38.9597 36.7437 39.2007Z" fill="url(#paint6_linear_52_551)"/>
<path d="M42.2782 42.2042C42.2133 41.8055 41.8888 41.6665 41.4902 41.889L9.54383 60.291C9.32134 60.4208 9.12666 60.634 8.9876 60.8843L4.25034 58.1588C4.3894 57.9178 4.58408 57.7138 4.79731 57.5933L36.7529 39.1912C37.1887 38.9409 37.9025 38.9316 38.3382 39.1912L41.4902 40.9804C41.8888 41.2029 42.2226 41.7314 42.2782 42.2042Z" fill="url(#paint7_linear_52_551)"/>
<path d="M41.4902 41.8889L9.54382 60.291C9.10811 60.5413 8.74656 61.1624 8.74656 61.663V79.4996C8.74656 80.0095 9.09884 80.2134 9.54382 79.9539L41.4902 61.5518C41.9259 61.3015 42.2782 60.6804 42.2782 60.1798V42.3432C42.2782 41.8333 41.9259 41.6294 41.4902 41.8889Z" fill="url(#paint8_linear_52_551)"/>
<g opacity="0.2">
<path d="M41.4902 41.8889L9.54382 60.291C9.10811 60.5413 8.74656 61.1624 8.74656 61.663V79.4996C8.74656 80.0095 9.09884 80.2134 9.54382 79.9539L41.4902 61.5518C41.9259 61.3015 42.2782 60.6804 42.2782 60.1798V42.3432C42.2782 41.8333 41.9259 41.6294 41.4902 41.8889Z" fill="url(#paint9_linear_52_551)"/>
</g>
<path d="M19.5 70.5V57.5L25 54.5V67.2528L23 68.5V57.5L21.5 58.5V64V69.5L19.5 70.5ZM20.771 65.08V63.5L25 61.321L24.5 63L20.771 65.08Z" fill="white"/>
<path d="M26.5 66.5V53.5L28 52.5V65.5L26.5 66.5Z" fill="white"/>
<path d="M32.7436 74.1708L0.797267 92.5729C0.361551 92.8232 0 93.4443 0 93.9449V111.781C0 112.291 0.35228 112.495 0.797267 112.236L32.7436 93.8337C33.1793 93.5834 33.5409 92.9622 33.5409 92.4616V74.625C33.5409 74.1152 33.1886 73.9112 32.7436 74.1708Z" fill="#E0E0E0"/>
<path d="M36.4426 76.053L4.49627 94.455C4.06056 94.7053 3.69901 95.3265 3.69901 95.8271V113.664C3.69901 114.174 4.06056 114.776 4.49627 115.026L7.64827 116.816C8.09325 117.066 8.79781 117.057 9.2428 116.816L41.1892 98.4136C41.6249 98.1633 41.9864 97.5421 41.9864 97.0415V79.205C41.9864 78.6951 41.6249 78.0925 41.1892 77.8422L38.0372 76.053C37.6015 75.8027 36.8876 75.8119 36.4426 76.053Z" fill="url(#paint10_linear_52_551)"/>
<path opacity="0.4" d="M36.4426 76.053L4.49627 94.455C4.06056 94.7053 3.69901 95.3265 3.69901 95.8271V113.664C3.69901 114.174 4.06056 114.776 4.49627 115.026L7.64827 116.816C8.09325 117.066 8.79781 117.057 9.2428 116.816L41.1892 98.4136C41.6249 98.1633 41.9864 97.5421 41.9864 97.0415V79.205C41.9864 78.6951 41.6249 78.0925 41.1892 77.8422L38.0372 76.053C37.6015 75.8027 36.8876 75.8119 36.4426 76.053Z" fill="url(#paint11_linear_52_551)"/>
<path d="M41.9772 79.0563C41.9123 78.6577 41.5878 78.5186 41.1892 78.7411L9.24281 97.1432C9.02032 97.273 8.82563 97.4862 8.68658 97.7365L3.94932 95.011C4.08838 94.7699 4.28306 94.566 4.49628 94.4455L36.4519 76.0434C36.8876 75.7931 37.6015 75.7838 38.0372 76.0434L41.1892 77.8326C41.5878 78.0551 41.9215 78.5835 41.9772 79.0563Z" fill="url(#paint12_linear_52_551)"/>
<path d="M41.1892 78.7413L9.2428 97.1434C8.80708 97.3937 8.44553 98.0148 8.44553 98.5154V116.352C8.44553 116.862 8.79781 117.066 9.2428 116.806L41.1892 98.4042C41.6249 98.1539 41.9772 97.5327 41.9772 97.0321V79.1956C41.9772 78.6857 41.6249 78.4817 41.1892 78.7413Z" fill="url(#paint13_linear_52_551)"/>
<g opacity="0.2">
<path d="M41.1892 78.7413L9.2428 97.1434C8.80708 97.3937 8.44553 98.0148 8.44553 98.5154V116.352C8.44553 116.862 8.79781 117.066 9.2428 116.806L41.1892 98.4042C41.6249 98.1539 41.9772 97.5327 41.9772 97.0321V79.1956C41.9772 78.6857 41.6249 78.4817 41.1892 78.7413Z" fill="url(#paint14_linear_52_551)"/>
</g>
<path d="M16.9651 101.361C16.9651 101.5 16.9558 101.695 16.9466 101.936C16.9466 102.177 16.9466 102.427 16.9466 102.687C16.9466 102.947 16.9466 103.197 16.9466 103.438C16.9466 103.679 16.9466 103.874 16.9651 104.003C16.9744 104.235 17.0115 104.448 17.0578 104.643C17.1042 104.838 17.1783 104.986 17.2803 105.097C17.3823 105.209 17.5121 105.264 17.6697 105.274C17.8273 105.283 18.022 105.218 18.2537 105.088C18.4855 104.958 18.6709 104.801 18.8285 104.634C18.9768 104.467 19.0973 104.291 19.1993 104.115C19.292 103.939 19.3662 103.762 19.4218 103.586C19.4774 103.41 19.5145 103.253 19.5423 103.113C19.5794 102.928 19.6165 102.789 19.6536 102.696C19.6907 102.604 19.7741 102.529 19.8853 102.455L21.2203 101.686C21.2852 101.649 21.3315 101.658 21.3779 101.695C21.4242 101.741 21.4428 101.806 21.4428 101.899C21.4428 102.437 21.3501 102.993 21.1925 103.558C21.0256 104.124 20.8031 104.662 20.5157 105.172C20.2283 105.681 19.8946 106.154 19.5145 106.581C19.1344 107.007 18.7172 107.35 18.263 107.61C17.7716 107.897 17.3359 108.036 16.9558 108.027C16.5757 108.027 16.242 107.906 15.9732 107.675C15.7043 107.443 15.4911 107.109 15.3428 106.683C15.1944 106.247 15.111 105.746 15.0925 105.19C15.0739 104.773 15.0739 104.309 15.0739 103.818C15.0739 103.327 15.0739 102.854 15.0925 102.39C15.1017 101.806 15.1852 101.213 15.3335 100.61C15.4818 100.008 15.695 99.4331 15.9639 98.8861C16.2327 98.3391 16.5572 97.8478 16.9466 97.4028C17.3359 96.9578 17.7716 96.587 18.263 96.3089C18.708 96.0493 19.1252 95.9102 19.5145 95.8917C19.8946 95.8732 20.2376 95.9566 20.5157 96.1327C20.8031 96.3089 21.0256 96.5963 21.1925 96.9671C21.3594 97.3472 21.4428 97.8014 21.4428 98.3299C21.4428 98.4226 21.4242 98.5153 21.3779 98.608C21.3315 98.7007 21.2852 98.7656 21.2203 98.8027L19.8853 99.5721C19.7741 99.637 19.6907 99.6463 19.6536 99.6092C19.6165 99.5628 19.5794 99.4701 19.5423 99.3218C19.5145 99.2106 19.4774 99.0993 19.4218 98.9788C19.3662 98.8583 19.3013 98.7748 19.1993 98.7007C19.1066 98.6358 18.9861 98.608 18.8285 98.608C18.6802 98.608 18.4855 98.6821 18.2537 98.8119C18.022 98.9417 17.8273 99.1086 17.6697 99.294C17.5121 99.4794 17.3823 99.6926 17.2803 99.9151C17.1783 100.138 17.1042 100.379 17.0578 100.629C17.0115 100.879 16.9837 101.12 16.9651 101.371V101.361Z" fill="#F0F0F0"/>
<path d="M26.3284 99.2662V101.862C26.3284 101.973 26.3006 102.094 26.245 102.205C26.1893 102.316 26.1245 102.4 26.0503 102.446L24.7617 103.188C24.6875 103.234 24.6226 103.225 24.567 103.178C24.5114 103.123 24.4836 103.039 24.4836 102.928V100.332L22.8983 101.241C22.8241 101.287 22.7592 101.278 22.7036 101.232C22.648 101.176 22.6202 101.093 22.6202 100.981V99.396C22.6202 99.2848 22.648 99.1643 22.7036 99.053C22.7592 98.9418 22.8241 98.8583 22.8983 98.812L24.4836 97.9035V95.3077C24.4836 95.1965 24.5114 95.0759 24.567 94.9647C24.6226 94.8534 24.6875 94.77 24.7617 94.7237L26.0503 93.982C26.1245 93.9357 26.1893 93.9449 26.245 93.9913C26.3006 94.0469 26.3284 94.1303 26.3284 94.2416V96.8373L27.8951 95.9288C27.9693 95.8825 28.0342 95.8917 28.0898 95.9474C28.1454 96.003 28.1732 96.0864 28.1732 96.1977V97.783C28.1732 97.8942 28.1454 98.0147 28.0898 98.126C28.0342 98.2372 27.9693 98.3206 27.8951 98.367L26.3284 99.2755V99.2662Z" fill="#F0F0F0"/>
<path d="M33.0959 95.3634V97.9591C33.0959 98.0704 33.068 98.1909 33.0124 98.3021C32.9568 98.4134 32.8919 98.4968 32.8177 98.5431L31.5291 99.2848C31.455 99.3312 31.3901 99.3219 31.3345 99.2755C31.2788 99.2199 31.251 99.1365 31.251 99.0252V96.4295L29.6658 97.3473C29.5916 97.3936 29.5267 97.3843 29.4711 97.338C29.4154 97.2823 29.3876 97.1989 29.3876 97.0877V95.5024C29.3876 95.3912 29.4154 95.2706 29.4711 95.1594C29.5267 95.0482 29.5916 94.9647 29.6658 94.9184L31.251 94.0098V91.4141C31.251 91.3028 31.2788 91.1823 31.3345 91.0711C31.3901 90.9598 31.455 90.8764 31.5291 90.83L32.8177 90.0884C32.8919 90.042 32.9568 90.0513 33.0124 90.0977C33.068 90.1533 33.0959 90.2367 33.0959 90.348V92.9437L34.6626 92.0352C34.7367 91.9889 34.8016 91.9981 34.8573 92.0538C34.9129 92.1094 34.9407 92.1928 34.9407 92.3041V93.8893C34.9407 94.0006 34.9129 94.1211 34.8573 94.2323C34.8016 94.3436 34.7367 94.427 34.6626 94.4734L33.0959 95.3819V95.3634Z" fill="#F0F0F0"/>
<defs>
<linearGradient id="paint0_linear_52_551" x1="47.5954" y1="-2.52235" x2="19.103" y2="31.2692" gradientUnits="userSpaceOnUse">
<stop stop-color="#040B1B"/>
<stop offset="1" stop-color="#52C0E5"/>
</linearGradient>
<linearGradient id="paint1_linear_52_551" x1="47.5954" y1="-2.52235" x2="19.103" y2="31.2692" gradientUnits="userSpaceOnUse">
<stop stop-color="#040B1B"/>
<stop offset="1" stop-color="#52C0E5"/>
</linearGradient>
<linearGradient id="paint2_linear_52_551" x1="47.5481" y1="-0.52159" x2="35.9998" y2="25.0346" gradientUnits="userSpaceOnUse">
<stop stop-color="#040B1B"/>
<stop offset="1" stop-color="#52C0E5"/>
</linearGradient>
<linearGradient id="paint3_linear_52_551" x1="46.8894" y1="0.536624" x2="20.1386" y2="30.3833" gradientUnits="userSpaceOnUse">
<stop stop-color="#040B1B"/>
<stop offset="1" stop-color="#52C0E5"/>
</linearGradient>
<linearGradient id="paint4_linear_52_551" x1="46.8894" y1="0.536624" x2="20.1386" y2="30.3833" gradientUnits="userSpaceOnUse">
<stop stop-color="#040B1B"/>
<stop offset="1" stop-color="#52C0E5"/>
</linearGradient>
<linearGradient id="paint5_linear_52_551" x1="47.8964" y1="34.6834" x2="19.404" y2="68.475" gradientUnits="userSpaceOnUse">
<stop stop-color="#040B1B"/>
<stop offset="1" stop-color="#52C0E5"/>
</linearGradient>
<linearGradient id="paint6_linear_52_551" x1="47.8964" y1="34.6834" x2="19.404" y2="68.475" gradientUnits="userSpaceOnUse">
<stop stop-color="#040B1B"/>
<stop offset="1" stop-color="#52C0E5"/>
</linearGradient>
<linearGradient id="paint7_linear_52_551" x1="47.8491" y1="36.6945" x2="36.3089" y2="62.2436" gradientUnits="userSpaceOnUse">
<stop stop-color="#040B1B"/>
<stop offset="1" stop-color="#52C0E5"/>
</linearGradient>
<linearGradient id="paint8_linear_52_551" x1="47.1904" y1="37.7424" x2="20.4396" y2="67.589" gradientUnits="userSpaceOnUse">
<stop stop-color="#040B1B"/>
<stop offset="1" stop-color="#52C0E5"/>
</linearGradient>
<linearGradient id="paint9_linear_52_551" x1="47.1904" y1="37.7424" x2="20.4396" y2="67.589" gradientUnits="userSpaceOnUse">
<stop stop-color="#040B1B"/>
<stop offset="1" stop-color="#52C0E5"/>
</linearGradient>
<linearGradient id="paint10_linear_52_551" x1="47.5953" y1="71.5356" x2="19.103" y2="105.327" gradientUnits="userSpaceOnUse">
<stop stop-color="#040B1B"/>
<stop offset="1" stop-color="#52C0E5"/>
</linearGradient>
<linearGradient id="paint11_linear_52_551" x1="47.5953" y1="71.5356" x2="19.103" y2="105.327" gradientUnits="userSpaceOnUse">
<stop stop-color="#040B1B"/>
<stop offset="1" stop-color="#52C0E5"/>
</linearGradient>
<linearGradient id="paint12_linear_52_551" x1="47.548" y1="73.5467" x2="36.0079" y2="99.0957" gradientUnits="userSpaceOnUse">
<stop stop-color="#040B1B"/>
<stop offset="1" stop-color="#52C0E5"/>
</linearGradient>
<linearGradient id="paint13_linear_52_551" x1="46.8894" y1="74.5947" x2="20.1386" y2="104.441" gradientUnits="userSpaceOnUse">
<stop stop-color="#040B1B"/>
<stop offset="1" stop-color="#52C0E5"/>
</linearGradient>
<linearGradient id="paint14_linear_52_551" x1="46.8894" y1="74.5947" x2="20.1386" y2="104.441" gradientUnits="userSpaceOnUse">
<stop stop-color="#040B1B"/>
<stop offset="1" stop-color="#52C0E5"/>
</linearGradient>
</defs>
</svg>
