<svg width="1066" height="203" viewBox="0 0 1066 203" fill="none" xmlns="http://www.w3.org/2000/svg">
<path fill-rule="evenodd" clip-rule="evenodd" d="M197.518 2.55738C198.847 2.55252 200.182 2.55698 201.523 2.57093C202.076 2.57668 202.528 2.13365 202.534 1.58139C202.54 1.02914 202.096 0.576788 201.544 0.571042C200.194 0.55699 198.849 0.552498 197.511 0.557392C196.959 0.559411 196.513 1.00876 196.515 1.56104C196.517 2.11332 196.966 2.5594 197.518 2.55738ZM193.496 2.60073C194.048 2.59083 194.488 2.13517 194.478 1.58297C194.468 1.03078 194.012 0.591155 193.46 0.60105C192.116 0.625132 190.779 0.658682 189.448 0.701517C188.896 0.719284 188.463 1.18117 188.481 1.73317C188.498 2.28517 188.96 2.71825 189.512 2.70048C190.834 2.65795 192.161 2.62464 193.496 2.60073ZM205.558 0.640652C205.005 0.627256 204.547 1.06398 204.534 1.6161C204.52 2.16822 204.957 2.62667 205.509 2.64006C206.844 2.67245 208.185 2.71423 209.532 2.76558C210.084 2.78662 210.548 2.35628 210.569 1.8044C210.59 1.25251 210.16 0.788069 209.608 0.767031C208.252 0.715331 206.901 0.673261 205.558 0.640652ZM185.506 2.85844C186.057 2.83269 186.484 2.36458 186.458 1.8129C186.432 1.26121 185.964 0.834864 185.412 0.860619C184.058 0.923833 182.711 0.996657 181.371 1.07889C180.82 1.11271 180.4 1.58701 180.434 2.13825C180.468 2.6895 180.942 3.10896 181.493 3.07513C182.824 2.9935 184.161 2.9212 185.506 2.85844ZM213.637 0.948194C213.086 0.919635 212.615 1.3436 212.587 1.89515C212.558 2.44669 212.982 2.91696 213.534 2.94552C214.854 3.01387 216.18 3.09141 217.512 3.17828C218.063 3.21423 218.539 2.79661 218.574 2.2455C218.61 1.69438 218.193 1.21847 217.642 1.18252C216.301 1.09507 214.966 1.01701 213.637 0.948194ZM177.523 3.34786C178.073 3.30599 178.486 2.82562 178.444 2.27492C178.402 1.72423 177.922 1.31174 177.371 1.35361C176.019 1.45644 174.673 1.56883 173.335 1.69059C172.785 1.74064 172.38 2.22709 172.43 2.7771C172.48 3.32711 172.967 3.73241 173.517 3.68236C174.845 3.5615 176.18 3.44993 177.523 3.34786ZM221.681 1.47322C221.13 1.4299 220.649 1.84112 220.606 2.3917C220.562 2.94228 220.973 3.42374 221.524 3.46706C222.852 3.57154 224.185 3.68528 225.524 3.80846C226.074 3.85904 226.561 3.45422 226.612 2.90425C226.662 2.35429 226.258 1.86745 225.708 1.81686C224.36 1.69289 223.017 1.57839 221.681 1.47322ZM169.526 4.0756C170.075 4.01734 170.473 3.52489 170.414 2.97569C170.356 2.42649 169.864 2.0285 169.315 2.08676C167.982 2.22817 166.656 2.37886 165.337 2.53862C164.789 2.60506 164.399 3.10338 164.465 3.65165C164.531 4.19993 165.03 4.59053 165.578 4.5241C166.887 4.36553 168.202 4.21596 169.526 4.0756ZM229.693 2.20953C229.144 2.15184 228.652 2.55034 228.594 3.0996C228.537 3.64887 228.935 4.1409 229.485 4.19859C230.81 4.33781 232.141 4.48625 233.478 4.64406C234.026 4.70882 234.523 4.3167 234.588 3.76822C234.653 3.21975 234.261 2.72262 233.712 2.65786C232.367 2.49905 231.028 2.34965 229.693 2.20953ZM161.577 5.03975C162.125 4.96497 162.508 4.46077 162.433 3.91357C162.358 3.36637 161.854 2.98339 161.307 3.05816C159.969 3.24092 158.639 3.43299 157.317 3.63414C156.771 3.71721 156.396 4.22718 156.479 4.77318C156.562 5.31918 157.072 5.69446 157.618 5.61139C158.93 5.41176 160.25 5.22113 161.577 5.03975ZM237.739 3.15948C237.191 3.08772 236.689 3.47347 236.617 4.02107C236.546 4.56867 236.931 5.07076 237.479 5.14253C238.785 5.31369 240.096 5.49378 241.413 5.68293C241.959 5.76148 242.466 5.382 242.545 4.83533C242.623 4.28866 242.244 3.78182 241.697 3.70326C240.373 3.51294 239.053 3.33172 237.739 3.15948ZM153.68 6.24123C154.225 6.14986 154.592 5.63425 154.501 5.08957C154.409 4.5449 153.894 4.17742 153.349 4.26879C152.009 4.49356 150.677 4.72762 149.354 4.97072C148.811 5.07049 148.451 5.59171 148.551 6.13491C148.651 6.67811 149.172 7.03758 149.715 6.93782C151.029 6.69657 152.35 6.46429 153.68 6.24123ZM245.686 4.30171C245.14 4.2164 244.629 4.58958 244.544 5.13524C244.458 5.6809 244.832 6.1924 245.377 6.2777C246.704 6.48511 248.036 6.7017 249.372 6.92762C249.917 7.01964 250.433 6.65279 250.525 6.10822C250.617 5.56366 250.25 5.0476 249.706 4.95558C248.361 4.7283 247.021 4.51038 245.686 4.30171ZM253.64 5.64468C253.097 5.54618 252.577 5.90685 252.478 6.45028C252.38 6.99371 252.74 7.5141 253.284 7.61261C254.588 7.84907 255.897 8.09438 257.211 8.34867C257.754 8.4536 258.278 8.0991 258.383 7.55688C258.488 7.01465 258.133 6.49003 257.591 6.3851C256.27 6.12931 254.953 5.88255 253.64 5.64468ZM145.799 7.68823C146.34 7.58013 146.692 7.05345 146.584 6.51184C146.476 5.97024 145.949 5.61881 145.407 5.72691C144.08 5.99187 142.761 6.26589 141.45 6.54871C140.91 6.66519 140.567 7.19727 140.683 7.73713C140.8 8.27699 141.332 8.6202 141.872 8.50372C143.172 8.22307 144.481 7.95116 145.799 7.68823ZM261.571 7.17962C261.03 7.06831 260.501 7.41661 260.39 7.95756C260.279 8.49851 260.627 9.02727 261.168 9.13858C261.83 9.27476 262.493 9.41321 263.157 9.55396C263.812 9.69288 264.466 9.83487 265.117 9.97995C265.657 10.1 266.191 9.7603 266.311 9.22122C266.431 8.68214 266.091 8.14782 265.552 8.02777C264.894 7.88119 264.234 7.73774 263.571 7.59739C262.903 7.45584 262.237 7.31659 261.571 7.17962ZM137.958 9.38C138.496 9.25513 138.831 8.71778 138.706 8.1798C138.581 7.64182 138.044 7.30692 137.506 7.4318C136.198 7.73528 134.899 8.04749 133.609 8.36814C133.073 8.50132 132.747 9.04379 132.88 9.57977C133.013 10.1158 133.555 10.4423 134.091 10.3091C135.372 9.99095 136.661 9.68115 137.958 9.38ZM269.482 8.94596C268.946 8.81469 268.405 9.14316 268.273 9.67962C268.142 10.2161 268.471 10.7574 269.007 10.8886C270.305 11.2063 271.597 11.5368 272.882 11.8805C273.416 12.0231 273.964 11.7062 274.107 11.1726C274.249 10.6391 273.932 10.0909 273.399 9.9483C272.099 9.60101 270.794 9.26698 269.482 8.94596ZM130.187 11.312C130.721 11.1704 131.039 10.6228 130.897 10.089C130.755 9.5552 130.208 9.23724 129.674 9.37884C128.371 9.72439 127.078 10.0785 125.793 10.4408C125.261 10.5908 124.952 11.1432 125.102 11.6747C125.252 12.2063 125.804 12.5157 126.336 12.3657C127.611 12.0062 128.894 11.6549 130.187 11.312ZM277.291 11.0331C276.76 10.8792 276.205 11.1843 276.051 11.7147C275.897 12.2451 276.203 12.7999 276.733 12.9539C278.013 13.3253 279.288 13.7102 280.559 14.1088C281.086 14.274 281.647 13.9807 281.813 13.4537C281.978 12.9267 281.685 12.3656 281.158 12.2004C279.872 11.7975 278.584 11.4085 277.291 11.0331ZM122.489 13.4834C123.018 13.3251 123.319 12.7679 123.161 12.2388C123.002 11.7096 122.445 11.409 121.916 11.5672C120.619 11.9552 119.331 12.3516 118.052 12.756C117.525 12.9226 117.234 13.4845 117.4 14.011C117.567 14.5376 118.129 14.8295 118.655 14.6629C119.924 14.2616 121.202 13.8684 122.489 13.4834ZM285.002 13.4502C284.479 13.274 283.912 13.5554 283.735 14.0788C283.559 14.6022 283.84 15.1694 284.364 15.3456C285.623 15.7697 286.881 16.2077 288.137 16.6599C288.657 16.8469 289.23 16.5772 289.417 16.0575C289.604 15.5379 289.334 14.965 288.814 14.778C287.545 14.3212 286.275 13.8787 285.002 13.4502ZM114.87 15.8929C115.394 15.7182 115.677 15.1518 115.502 14.6279C115.327 14.104 114.761 13.8209 114.237 13.9957C112.946 14.4261 111.666 14.8647 110.396 15.311C109.875 15.494 109.601 16.0648 109.784 16.5859C109.967 17.107 110.537 17.381 111.059 17.1979C112.319 16.7551 113.589 16.32 114.87 15.8929ZM292.599 16.183C292.083 15.9857 291.505 16.2438 291.307 16.7596C291.11 17.2755 291.368 17.8536 291.884 18.051C293.125 18.5258 294.366 19.0147 295.609 19.5181C296.121 19.7254 296.704 19.4784 296.911 18.9665C297.119 18.4546 296.872 17.8716 296.36 17.6643C295.105 17.1562 293.852 16.6626 292.599 16.183ZM107.306 18.5492C107.825 18.358 108.09 17.7829 107.898 17.2648C107.707 16.7467 107.132 16.4816 106.614 16.6728C105.342 17.1422 104.08 17.6193 102.829 18.1036C102.314 18.303 102.058 18.8821 102.257 19.3972C102.457 19.9122 103.036 20.1681 103.551 19.9688C104.793 19.4882 106.044 19.0149 107.306 18.5492ZM300.089 19.2149C299.581 18.9982 298.993 19.2343 298.776 19.7423C298.56 20.2503 298.796 20.8378 299.304 21.0545C300.521 21.5739 301.741 22.1072 302.964 22.6547C303.468 22.8803 304.06 22.6545 304.285 22.1504C304.511 21.6463 304.285 21.0548 303.781 20.8292C302.547 20.277 301.317 19.739 300.089 19.2149ZM99.8298 21.4429C100.342 21.2355 100.588 20.6524 100.381 20.1405C100.173 19.6287 99.5904 19.3819 99.0785 19.5894C97.8276 20.0963 96.5874 20.6105 95.3577 21.1315C94.8492 21.3469 94.6116 21.9338 94.827 22.4423C95.0425 22.9509 95.6294 23.1884 96.1379 22.973C97.358 22.4561 98.5886 21.9459 99.8298 21.4429ZM307.454 22.5098C306.953 22.2759 306.358 22.4918 306.124 22.9921C305.89 23.4924 306.106 24.0876 306.606 24.3215C307.808 24.8836 309.015 25.4594 310.227 26.0493C310.723 26.291 311.322 26.0843 311.564 25.5878C311.805 25.0912 311.599 24.4927 311.102 24.251C309.881 23.6567 308.665 23.0764 307.454 22.5098ZM92.4527 24.5688C92.9578 24.3453 93.1861 23.7547 92.9626 23.2497C92.7392 22.7446 92.1486 22.5163 91.6435 22.7398C90.4138 23.2838 89.1951 23.8346 87.9874 24.3916C87.4858 24.6229 87.2668 25.217 87.4981 25.7185C87.7294 26.22 88.3235 26.439 88.825 26.2077C90.0233 25.655 91.2325 25.1086 92.4527 24.5688ZM314.705 26.0371C314.212 25.7883 313.61 25.9862 313.361 26.4793C313.113 26.9723 313.31 27.5738 313.804 27.8226C314.986 28.4195 316.175 29.0298 317.371 29.6535C317.86 29.909 318.464 29.7191 318.72 29.2295C318.975 28.7398 318.785 28.1358 318.296 27.8803C317.092 27.2526 315.896 26.6382 314.705 26.0371ZM85.1807 27.9236C85.6785 27.6844 85.8881 27.0869 85.649 26.5891C85.4097 26.0913 84.8123 25.8817 84.3145 26.1209C83.1018 26.7036 81.9006 27.2925 80.711 27.8871C80.217 28.1341 80.0167 28.7347 80.2636 29.2287C80.5105 29.7227 81.1112 29.923 81.6052 29.6761C82.7856 29.0861 83.9774 28.5018 85.1807 27.9236ZM78.0193 31.5039C78.5093 31.2493 78.7001 30.6455 78.4455 30.1555C78.1908 29.6654 77.5871 29.4746 77.097 29.7293C75.9003 30.3512 74.7158 30.9786 73.5434 31.6113C73.0574 31.8735 72.876 32.4802 73.1383 32.9662C73.4006 33.4522 74.0072 33.6336 74.4932 33.3713C75.6565 32.7436 76.8318 32.121 78.0193 31.5039ZM321.866 29.7716C321.379 29.51 320.773 29.6924 320.512 30.1788C320.25 30.6653 320.432 31.2716 320.919 31.5331C322.08 32.1575 323.249 32.7945 324.425 33.4442C324.908 33.7113 325.517 33.5358 325.784 33.0524C326.051 32.569 325.875 31.9606 325.392 31.6936C324.209 31.0402 323.034 30.3996 321.866 29.7716ZM70.9739 35.3062C71.4558 35.0363 71.6276 34.4269 71.3578 33.9451C71.0879 33.4632 70.4785 33.2913 69.9967 33.5612C68.8177 34.2215 67.6515 34.8867 66.4983 35.5563C66.0207 35.8336 65.8583 36.4456 66.1357 36.9232C66.413 37.4008 67.025 37.5632 67.5026 37.2859C68.6469 36.6214 69.804 35.9614 70.9739 35.3062ZM328.919 33.6665C328.439 33.3945 327.829 33.5635 327.556 34.0441C327.284 34.5247 327.453 35.1349 327.934 35.407C329.084 36.058 330.242 36.7212 331.409 37.3965C331.887 37.6732 332.499 37.5099 332.775 37.0319C333.052 36.5539 332.889 35.9422 332.411 35.6655C331.239 34.9871 330.075 34.3208 328.919 33.6665ZM64.0503 39.3266C64.5235 39.0419 64.6763 38.4274 64.3916 37.9542C64.1068 37.481 63.4924 37.3282 63.0191 37.6129C61.8596 38.3106 60.7137 39.0125 59.5815 39.718C59.1127 40.01 58.9695 40.6268 59.2616 41.0955C59.5536 41.5643 60.1704 41.7075 60.6391 41.4154C61.7626 40.7154 62.8997 40.0189 64.0503 39.3266ZM335.883 37.6956C335.408 37.4148 334.794 37.5728 334.514 38.0483C334.233 38.5239 334.391 39.1371 334.866 39.4179C336.012 40.0943 337.167 40.7823 338.331 41.4821C338.804 41.7666 339.418 41.6136 339.703 41.1402C339.988 40.6669 339.834 40.0525 339.361 39.7679C338.193 39.0656 337.034 38.3749 335.883 37.6956ZM342.784 41.8421C342.312 41.5542 341.697 41.7029 341.409 42.1742C341.121 42.6456 341.27 43.261 341.741 43.5489C342.877 44.2429 344.023 44.9478 345.178 45.6638C345.648 45.9547 346.264 45.81 346.555 45.3405C346.846 44.8711 346.701 44.2547 346.232 43.9638C345.073 43.2456 343.924 42.5384 342.784 41.8421ZM57.2541 43.5614C57.7183 43.262 57.8519 42.6431 57.5525 42.179C57.2532 41.7148 56.6343 41.5812 56.1702 41.8806C55.032 42.6146 53.9083 43.352 52.7991 44.0919C52.3397 44.3985 52.2157 45.0194 52.5223 45.4788C52.8288 45.9382 53.4497 46.0622 53.9091 45.7557C55.0097 45.0214 56.1247 44.2897 57.2541 43.5614ZM349.629 46.0828C349.161 45.7892 348.544 45.9304 348.25 46.3982C347.957 46.866 348.098 47.4832 348.566 47.7768C349.691 48.4831 350.826 49.1996 351.97 49.9265C352.437 50.2225 353.055 50.0846 353.351 49.6183C353.647 49.1521 353.509 48.5342 353.043 48.2381C351.895 47.5094 350.757 46.791 349.629 46.0828ZM50.5916 48.0065C51.0462 47.6929 51.1605 47.0701 50.8468 46.6155C50.5332 46.1609 49.9104 46.0467 49.4558 46.3603C48.3411 47.1294 47.2419 47.9007 46.1581 48.6736C45.7085 48.9942 45.6039 49.6187 45.9246 50.0684C46.2453 50.518 46.8697 50.6226 47.3194 50.3019C48.3947 49.535 49.4855 48.7697 50.5916 48.0065ZM356.426 50.398C355.962 50.0998 355.343 50.2349 355.045 50.6998C354.747 51.1646 354.882 51.7832 355.347 52.0814C356.463 52.7978 357.59 53.5238 358.726 54.2595C359.19 54.5596 359.809 54.4271 360.109 53.9635C360.409 53.4998 360.277 52.8807 359.813 52.5806C358.674 51.8434 357.546 51.1159 356.426 50.398ZM44.0695 52.6581C44.5141 52.3305 44.6088 51.7044 44.2812 51.2599C43.9535 50.8153 43.3274 50.7205 42.8829 51.0482C41.7941 51.8507 40.7219 52.6541 39.6664 53.4578C39.227 53.7924 39.142 54.4198 39.4765 54.8592C39.8111 55.2986 40.4385 55.3836 40.878 55.049C41.9253 54.2516 42.9891 53.4544 44.0695 52.6581ZM363.183 54.771C362.72 54.4692 362.101 54.5994 361.799 55.0619C361.497 55.5245 361.627 56.1441 362.09 56.4459C363.201 57.1709 364.322 57.905 365.453 58.6482C365.914 58.9516 366.534 58.8233 366.837 58.3618C367.141 57.9003 367.013 57.2802 366.551 56.9769C365.418 56.2325 364.296 55.4972 363.183 54.771ZM37.6959 57.5118C38.1299 57.1704 38.205 56.5417 37.8635 56.1076C37.522 55.6735 36.8933 55.5985 36.4593 55.9399C35.3995 56.7737 34.3575 57.6069 33.3336 58.4388C32.9049 58.787 32.8397 59.4168 33.188 59.8455C33.5362 60.2741 34.166 60.3393 34.5947 59.9911C35.6106 59.1658 36.6443 58.3391 37.6959 57.5118ZM369.905 59.1885C369.445 58.8839 368.824 59.0103 368.52 59.471C368.215 59.9316 368.341 60.552 368.802 60.8567C369.91 61.5896 371.028 62.3311 372.156 63.0812C372.616 63.387 373.237 63.2621 373.543 62.8023C373.848 62.3424 373.724 61.7216 373.264 61.4158C372.134 60.6648 371.015 59.9224 369.905 59.1885ZM31.4811 62.5623C31.9041 62.2072 31.9591 61.5765 31.604 61.1535C31.249 60.7305 30.6182 60.6754 30.1952 61.0305C29.1557 61.9031 28.1361 62.7733 27.1364 63.6401C26.7192 64.002 26.6742 64.6335 27.036 65.0508C27.3979 65.468 28.0294 65.513 28.4467 65.1512C29.4383 64.2913 30.4498 63.428 31.4811 62.5623ZM376.601 63.6403C376.141 63.3335 375.52 63.457 375.214 63.9162C374.907 64.3754 375.03 64.9964 375.489 65.3032C376.598 66.0439 377.716 66.7927 378.844 67.5496C379.303 67.8574 379.924 67.735 380.232 67.2764C380.539 66.8178 380.417 66.1966 379.958 65.8889C378.829 65.1312 377.71 64.3817 376.601 63.6403ZM25.4391 67.8023C25.8504 67.4337 25.8851 66.8015 25.5165 66.3902C25.1479 65.9789 24.5157 65.9443 24.1044 66.3129C23.0846 67.2267 22.0874 68.1357 21.1128 69.0386C20.7077 69.414 20.6835 70.0467 21.0589 70.4518C21.4342 70.8569 22.0669 70.8811 22.4721 70.5057C23.4386 69.6103 24.4277 68.7087 25.4391 67.8023ZM383.276 68.1188C382.818 67.8103 382.196 67.9316 381.888 68.3897C381.579 68.8478 381.701 69.4693 382.159 69.7777C383.271 70.5265 384.392 71.283 385.524 72.0473C385.981 72.3564 386.603 72.236 386.912 71.7783C387.221 71.3206 387.101 70.699 386.643 70.3899C385.511 69.6251 384.389 68.8681 383.276 68.1188ZM19.582 73.2284C19.9808 72.8463 19.9944 72.2133 19.6123 71.8145C19.2302 71.4157 18.5972 71.4022 18.1984 71.7842C17.202 72.7388 16.2316 73.6852 15.2872 74.6219C14.8951 75.0109 14.8925 75.644 15.2815 76.0361C15.6704 76.4283 16.3036 76.4308 16.6957 76.0419C17.6318 75.1133 18.594 74.175 19.582 73.2284ZM389.939 72.6188C389.482 72.3091 388.86 72.4288 388.55 72.8861C388.24 73.3434 388.36 73.9652 388.817 74.2748C389.925 75.0246 391.041 75.7817 392.168 76.5462C392.625 76.8563 393.247 76.7372 393.557 76.2802C393.867 75.8232 393.748 75.2014 393.291 74.8912C392.164 74.1265 391.047 73.369 389.939 72.6188ZM396.598 77.1373C396.141 76.8268 395.519 76.9454 395.208 77.4021C394.898 77.8588 395.017 78.4808 395.473 78.7913C396.573 79.5386 397.681 80.2926 398.799 81.0536C399.255 81.3643 399.877 81.2462 400.188 80.7896C400.499 80.3331 400.381 79.7111 399.924 79.4003C398.806 78.6391 397.697 77.8848 396.598 77.1373ZM13.8745 78.8903C14.2596 78.4944 14.2509 77.8613 13.8551 77.4762C13.4592 77.0911 12.8261 77.0998 12.441 77.4956C11.4865 78.4768 10.5619 79.4452 9.6673 80.3992C9.28952 80.8021 9.30985 81.4349 9.71271 81.8127C10.1156 82.1905 10.7484 82.1701 11.1262 81.7673C12.0124 80.8222 12.9286 79.8626 13.8745 78.8903ZM403.261 81.673C402.805 81.362 402.182 81.4798 401.871 81.9362C401.56 82.3926 401.678 83.0147 402.135 83.3257C403.225 84.0688 404.324 84.8183 405.433 85.5742C405.889 85.8853 406.511 85.7677 406.822 85.3114C407.133 84.8551 407.016 84.233 406.56 83.9218L405.345 83.0934C404.646 82.6174 403.952 82.1439 403.261 81.673ZM8.41858 84.7107C8.78849 84.3006 8.75591 83.6683 8.34581 83.2984C7.93571 82.9285 7.30338 82.9611 6.93347 83.3712C5.99902 84.4071 5.10244 85.4226 4.24379 86.4151C3.88245 86.8328 3.92812 87.4643 4.3458 87.8257C4.76348 88.187 5.39499 88.1413 5.75633 87.7236C6.6059 86.7416 7.49333 85.7365 8.41858 84.7107ZM409.912 86.209C409.456 85.8977 408.834 86.0152 408.523 86.4714C408.211 86.9276 408.329 87.5498 408.785 87.861L412.079 90.1087C412.535 90.4201 413.157 90.3027 413.468 89.8465C413.78 89.3903 413.662 88.7682 413.206 88.4568L409.912 86.209ZM3.16917 90.7817C3.52105 90.3561 3.46124 89.7257 3.03557 89.3738C2.6099 89.022 1.97957 89.0818 1.62768 89.5074C1.20039 90.0243 0.784553 90.5335 0.380163 91.0346C0.0333193 91.4644 0.100558 92.094 0.530346 92.4408C0.960134 92.7877 1.58972 92.7204 1.93656 92.2906C2.33598 91.7957 2.74685 91.2926 3.16917 90.7817ZM416.527 90.7233C416.071 90.412 415.449 90.5294 415.137 90.9855C414.826 91.4417 414.943 92.0639 415.399 92.3752L418.746 94.6592C419.202 94.9705 419.824 94.8531 420.136 94.3969C420.447 93.9407 420.33 93.3185 419.873 93.0072L416.527 90.7233ZM423.16 95.25C422.704 94.9388 422.082 95.0563 421.771 95.5126C421.46 95.9688 421.577 96.591 422.033 96.9022C422.733 97.3794 423.436 97.8589 424.142 98.3406L425.371 99.1788C425.828 99.4899 426.45 99.3722 426.761 98.9159C427.072 98.4596 426.954 97.8374 426.498 97.5263L425.301 96.7103L423.16 95.25ZM429.823 99.7925C429.367 99.4815 428.744 99.5994 428.433 100.056C428.122 100.512 428.24 101.134 428.697 101.445C429.789 102.189 430.889 102.939 431.998 103.693C432.454 104.004 433.076 103.886 433.387 103.43C433.698 102.973 433.58 102.351 433.123 102.04C432.015 101.286 430.915 100.536 429.823 99.7925ZM436.473 104.32C436.016 104.009 435.394 104.127 435.083 104.584C434.773 105.041 434.891 105.663 435.348 105.973C436.445 106.719 437.55 107.47 438.662 108.226C439.119 108.537 439.741 108.418 440.052 107.961C440.362 107.504 440.243 106.883 439.786 106.572L438.392 105.625C437.75 105.188 437.11 104.753 436.473 104.32ZM443.095 108.819C442.638 108.509 442.016 108.628 441.706 109.085C441.396 109.542 441.515 110.164 441.972 110.474L443.374 111.425C444.023 111.865 444.675 112.307 445.329 112.751C445.786 113.06 446.408 112.941 446.718 112.484C447.028 112.027 446.908 111.405 446.451 111.095L445.563 110.493L444.53 109.793L443.095 108.819ZM449.765 113.34C449.308 113.03 448.686 113.15 448.376 113.607C448.067 114.065 448.187 114.687 448.644 114.996C449.741 115.739 450.845 116.486 451.957 117.237C452.415 117.547 453.036 117.426 453.345 116.969C453.655 116.511 453.535 115.89 453.077 115.58C451.965 114.829 450.861 114.082 449.765 113.34ZM456.435 117.848C455.977 117.539 455.355 117.66 455.046 118.118C454.737 118.575 454.858 119.197 455.316 119.506C456.418 120.25 457.527 120.998 458.644 121.751C459.102 122.059 459.723 121.938 460.032 121.48C460.341 121.022 460.219 120.401 459.761 120.092L458.325 119.123C457.692 118.697 457.062 118.272 456.435 117.848ZM463.072 122.321C462.614 122.013 461.993 122.135 461.684 122.593C461.376 123.051 461.498 123.673 461.956 123.981C463.067 124.729 464.186 125.481 465.312 126.237C465.77 126.545 466.392 126.423 466.7 125.965C467.008 125.506 466.886 124.885 466.427 124.577C465.775 124.139 465.126 123.702 464.479 123.267C464.009 122.951 463.54 122.636 463.072 122.321ZM469.78 126.827C469.321 126.519 468.7 126.642 468.392 127.1C468.084 127.559 468.207 128.18 468.666 128.488C469.761 129.222 470.863 129.961 471.973 130.704C472.432 131.011 473.053 130.888 473.36 130.429C473.667 129.97 473.544 129.349 473.085 129.042C471.976 128.299 470.875 127.561 469.78 126.827ZM476.433 131.281C475.974 130.974 475.353 131.097 475.046 131.556C474.739 132.016 474.862 132.637 475.322 132.943C476.445 133.694 477.575 134.449 478.713 135.208C479.173 135.514 479.793 135.39 480.1 134.931C480.406 134.471 480.282 133.85 479.823 133.544C478.686 132.785 477.556 132.031 476.433 131.281ZM483.121 135.742C482.661 135.435 482.04 135.56 481.734 136.02C481.428 136.479 481.553 137.1 482.012 137.406C482.76 137.904 483.511 138.404 484.265 138.905L485.351 139.627C485.811 139.932 486.431 139.807 486.737 139.347C487.043 138.887 486.917 138.267 486.457 137.961C485.679 137.443 484.903 136.928 484.131 136.414L483.121 135.742ZM489.835 140.203C489.374 139.898 488.754 140.024 488.449 140.484C488.143 140.944 488.269 141.565 488.729 141.87C489.296 142.246 489.864 142.622 490.434 143C490.998 143.374 491.56 143.744 492.121 144.112C492.583 144.415 493.203 144.286 493.506 143.825C493.809 143.363 493.68 142.743 493.218 142.44C492.66 142.074 492.1 141.705 491.539 141.333C490.969 140.955 490.401 140.579 489.835 140.203ZM496.554 144.604C496.089 144.306 495.47 144.441 495.172 144.906C494.874 145.37 495.009 145.989 495.474 146.287C496.592 147.005 497.705 147.711 498.813 148.407C499.281 148.701 499.898 148.559 500.192 148.092C500.485 147.624 500.344 147.007 499.876 146.713C498.774 146.021 497.666 145.318 496.554 144.604ZM503.271 148.818C502.8 148.53 502.184 148.677 501.896 149.148C501.608 149.619 501.755 150.235 502.226 150.524C503.36 151.217 504.488 151.9 505.612 152.571C506.086 152.854 506.7 152.7 506.983 152.225C507.266 151.751 507.111 151.137 506.637 150.854C505.52 150.187 504.398 149.508 503.271 148.818ZM510.074 152.879C509.596 152.601 508.984 152.764 508.707 153.241C508.429 153.719 508.591 154.331 509.069 154.608C510.222 155.278 511.371 155.937 512.515 156.583C512.996 156.855 513.606 156.685 513.878 156.204C514.149 155.723 513.98 155.113 513.499 154.842C512.362 154.199 511.22 153.545 510.074 152.879ZM516.969 156.773C516.485 156.507 515.877 156.685 515.612 157.169C515.346 157.653 515.524 158.261 516.008 158.527C517.181 159.169 518.35 159.799 519.515 160.417C520.002 160.676 520.608 160.49 520.867 160.003C521.125 159.515 520.94 158.909 520.452 158.651C519.295 158.037 518.134 157.411 516.969 156.773ZM523.964 160.482C523.472 160.23 522.869 160.425 522.617 160.916C522.366 161.407 522.56 162.01 523.051 162.262C524.243 162.873 525.431 163.471 526.615 164.057C527.11 164.302 527.71 164.099 527.955 163.604C528.2 163.109 527.997 162.509 527.502 162.264C526.326 161.683 525.147 161.089 523.964 160.482ZM531.06 163.991C530.562 163.753 529.965 163.965 529.728 164.464C529.491 164.963 529.702 165.559 530.201 165.797C531.411 166.372 532.617 166.935 533.821 167.484C534.323 167.714 534.917 167.493 535.146 166.99C535.375 166.488 535.154 165.895 534.652 165.665C533.458 165.12 532.261 164.562 531.06 163.991ZM902.914 166.409C903.467 166.407 903.912 165.957 903.909 165.404C903.907 164.852 903.457 164.407 902.905 164.409C901.583 164.416 900.264 164.429 898.947 164.45C898.394 164.458 897.954 164.913 897.962 165.465C897.971 166.017 898.425 166.458 898.978 166.449C900.288 166.429 901.6 166.416 902.914 166.409ZM906.862 164.412C906.309 164.408 905.859 164.853 905.855 165.406C905.852 165.958 906.297 166.408 906.849 166.412C908.159 166.42 909.471 166.435 910.787 166.458C911.339 166.468 911.794 166.028 911.804 165.476C911.814 164.924 911.374 164.468 910.822 164.459C909.499 164.436 908.179 164.42 906.862 164.412ZM895.042 166.531C895.594 166.517 896.03 166.057 896.015 165.505C896.001 164.953 895.542 164.517 894.99 164.531C893.671 164.566 892.353 164.606 891.036 164.653C890.484 164.673 890.052 165.136 890.072 165.688C890.092 166.24 890.555 166.672 891.107 166.652C892.418 166.605 893.729 166.565 895.042 166.531ZM914.776 164.551C914.224 164.535 913.764 164.969 913.748 165.521C913.731 166.073 914.166 166.534 914.718 166.55C916.027 166.588 917.339 166.634 918.656 166.688C919.208 166.71 919.673 166.281 919.696 165.729C919.718 165.177 919.289 164.712 918.737 164.689C917.413 164.635 916.093 164.589 914.776 164.551ZM887.171 166.811C887.723 166.786 888.15 166.319 888.125 165.767C888.1 165.215 887.633 164.788 887.081 164.813C885.765 164.873 884.449 164.938 883.132 165.009C882.58 165.039 882.157 165.51 882.187 166.062C882.217 166.613 882.688 167.036 883.24 167.006C884.551 166.935 885.861 166.87 887.171 166.811ZM922.686 164.874C922.134 164.845 921.664 165.268 921.634 165.82C921.605 166.371 922.029 166.842 922.58 166.871C923.888 166.94 925.201 167.017 926.518 167.102C927.07 167.138 927.545 166.72 927.581 166.169C927.616 165.617 927.199 165.142 926.647 165.106C925.322 165.02 924.001 164.943 922.686 164.874ZM879.305 167.236C879.857 167.201 880.276 166.727 880.241 166.175C880.207 165.624 879.732 165.205 879.181 165.24C877.868 165.322 876.553 165.409 875.237 165.502C874.686 165.54 874.271 166.018 874.309 166.569C874.348 167.12 874.826 167.535 875.377 167.497C876.689 167.405 877.998 167.317 879.305 167.236ZM930.585 165.384C930.035 165.342 929.554 165.754 929.512 166.305C929.47 166.856 929.882 167.336 930.432 167.378C931.74 167.479 933.052 167.587 934.371 167.704C934.921 167.753 935.407 167.346 935.456 166.796C935.504 166.246 935.098 165.76 934.548 165.712C933.221 165.594 931.9 165.485 930.585 165.384ZM871.445 167.788C871.996 167.745 872.408 167.264 872.365 166.713C872.322 166.163 871.841 165.751 871.291 165.794C869.981 165.895 868.668 166.002 867.352 166.113C866.802 166.159 866.393 166.643 866.44 167.193C866.486 167.743 866.97 168.152 867.52 168.105C868.832 167.995 870.14 167.889 871.445 167.788ZM938.47 166.083C937.921 166.027 937.43 166.428 937.375 166.978C937.32 167.527 937.721 168.017 938.27 168.073C939.576 168.204 940.888 168.344 942.208 168.492C942.756 168.554 943.251 168.159 943.313 167.61C943.375 167.061 942.98 166.566 942.431 166.505C941.104 166.355 939.784 166.215 938.47 166.083ZM863.592 168.449C864.142 168.399 864.548 167.913 864.498 167.363C864.448 166.813 863.962 166.407 863.412 166.457C862.105 166.575 860.793 166.697 859.478 166.823C858.928 166.876 858.525 167.365 858.578 167.914C858.631 168.464 859.119 168.867 859.669 168.814C860.981 168.688 862.288 168.567 863.592 168.449ZM946.337 166.967C945.789 166.899 945.29 167.288 945.222 167.836C945.154 168.384 945.543 168.883 946.091 168.952C947.39 169.113 948.697 169.283 950.011 169.461C950.559 169.535 951.063 169.152 951.137 168.605C951.211 168.057 950.828 167.554 950.281 167.479C948.959 167.3 947.644 167.129 946.337 166.967ZM538.261 167.279C537.755 167.058 537.166 167.288 536.944 167.794C536.723 168.3 536.954 168.89 537.46 169.111C538.686 169.648 539.91 170.171 541.133 170.682C541.642 170.895 542.228 170.654 542.441 170.144C542.654 169.635 542.413 169.049 541.904 168.836C540.692 168.33 539.478 167.811 538.261 167.279ZM855.745 169.2C856.294 169.145 856.695 168.655 856.64 168.105C856.584 167.556 856.094 167.155 855.544 167.21C854.239 167.342 852.928 167.477 851.613 167.616C851.063 167.673 850.665 168.165 850.723 168.715C850.78 169.264 851.272 169.662 851.822 169.605C853.135 169.467 854.442 169.332 855.745 169.2ZM954.184 168.032C953.638 167.951 953.129 168.329 953.049 168.875C952.969 169.422 953.346 169.93 953.893 170.01C955.184 170.2 956.483 170.399 957.79 170.606C958.336 170.692 958.848 170.32 958.934 169.774C959.021 169.229 958.649 168.717 958.103 168.63C956.789 168.422 955.483 168.223 954.184 168.032ZM847.903 170.024C848.452 169.964 848.849 169.471 848.789 168.922C848.729 168.373 848.236 167.976 847.687 168.036C846.382 168.178 845.071 168.323 843.754 168.471C843.205 168.532 842.81 169.027 842.872 169.576C842.933 170.125 843.428 170.52 843.977 170.458C845.292 170.311 846.601 170.166 847.903 170.024ZM840.066 170.902C840.615 170.839 841.009 170.343 840.946 169.795C840.883 169.246 840.387 168.852 839.838 168.915C838.532 169.065 837.219 169.218 835.9 169.372C835.351 169.436 834.958 169.933 835.022 170.481C835.087 171.03 835.583 171.423 836.132 171.358C837.45 171.204 838.761 171.052 840.066 170.902ZM962.011 169.271C961.466 169.178 960.95 169.545 960.858 170.09C960.766 170.634 961.132 171.15 961.677 171.243C962.958 171.459 964.247 171.685 965.544 171.918C966.088 172.016 966.608 171.655 966.705 171.111C966.803 170.568 966.442 170.048 965.899 169.95C964.595 169.715 963.299 169.489 962.011 169.271ZM832.231 171.818C832.779 171.753 833.171 171.256 833.106 170.707C833.041 170.159 832.544 169.767 831.995 169.832C830.687 169.987 829.371 170.144 828.048 170.303C827.5 170.369 827.109 170.867 827.174 171.415C827.24 171.963 827.738 172.355 828.286 172.289C829.609 172.13 830.923 171.973 832.231 171.818ZM545.565 170.329C545.052 170.125 544.47 170.376 544.266 170.889C544.062 171.402 544.312 171.983 544.826 172.188C546.068 172.682 547.309 173.163 548.549 173.631C549.065 173.827 549.642 173.566 549.838 173.049C550.033 172.533 549.772 171.956 549.255 171.76C548.027 171.296 546.797 170.819 545.565 170.329ZM969.82 170.677C969.277 170.573 968.753 170.929 968.65 171.472C968.547 172.014 968.903 172.538 969.445 172.641C970.714 172.883 971.99 173.133 973.276 173.391C973.817 173.5 974.344 173.149 974.453 172.608C974.562 172.066 974.211 171.539 973.669 171.43C972.378 171.171 971.095 170.92 969.82 170.677ZM824.395 172.757C824.943 172.691 825.334 172.193 825.268 171.645C825.202 171.096 824.703 170.705 824.155 170.772C822.851 170.929 821.539 171.088 820.219 171.247C819.671 171.314 819.28 171.812 819.347 172.36C819.413 172.909 819.911 173.299 820.46 173.233L821.863 173.063C822.71 172.961 823.554 172.859 824.395 172.757ZM816.554 173.706C817.102 173.64 817.493 173.141 817.427 172.593C817.36 172.045 816.862 171.654 816.314 171.72L813.793 172.025L812.392 172.195C811.844 172.261 811.453 172.759 811.52 173.307C811.586 173.855 812.084 174.246 812.632 174.18C813.948 174.021 815.255 173.863 816.554 173.706ZM977.569 172.233C977.029 172.119 976.498 172.465 976.384 173.005C976.27 173.546 976.616 174.076 977.156 174.19C978.426 174.458 979.704 174.733 980.99 175.017C981.529 175.136 982.063 174.795 982.182 174.256C982.301 173.716 981.96 173.183 981.421 173.064C980.128 172.779 978.844 172.502 977.569 172.233ZM808.704 174.653C809.252 174.587 809.643 174.089 809.578 173.541C809.512 172.993 809.014 172.602 808.466 172.667C807.173 172.822 805.872 172.978 804.563 173.134C804.015 173.199 803.623 173.697 803.688 174.245C803.754 174.794 804.251 175.185 804.799 175.12C806.11 174.964 807.411 174.808 808.704 174.653ZM552.968 173.125C552.448 172.939 551.876 173.21 551.69 173.73C551.504 174.25 551.775 174.823 552.295 175.009C553.552 175.458 554.809 175.895 556.065 176.318C556.589 176.495 557.156 176.214 557.332 175.691C557.509 175.167 557.228 174.6 556.704 174.423C555.46 174.004 554.214 173.571 552.968 173.125ZM800.843 175.588C801.391 175.524 801.783 175.027 801.719 174.478C801.654 173.93 801.157 173.538 800.609 173.602C799.323 173.754 798.028 173.905 796.725 174.057C796.176 174.121 795.783 174.617 795.847 175.166C795.911 175.714 796.407 176.107 796.956 176.043C798.26 175.892 799.556 175.74 800.843 175.588ZM985.276 173.932C984.738 173.808 984.201 174.144 984.077 174.682C983.954 175.221 984.29 175.757 984.828 175.881C986.108 176.175 987.397 176.478 988.695 176.788C989.232 176.916 989.771 176.585 989.9 176.048C990.028 175.511 989.697 174.971 989.16 174.843C987.857 174.531 986.562 174.228 985.276 173.932ZM793.02 176.498C793.569 176.435 793.963 175.939 793.9 175.39C793.837 174.842 793.341 174.448 792.792 174.511C791.494 174.659 790.187 174.808 788.871 174.956C788.323 175.018 787.928 175.513 787.99 176.061C788.051 176.61 788.546 177.005 789.095 176.943C790.412 176.795 791.721 176.646 793.02 176.498ZM785.185 177.379C785.734 177.319 786.13 176.825 786.069 176.276C786.008 175.727 785.514 175.331 784.965 175.391C783.654 175.536 782.334 175.681 781.005 175.824C780.456 175.884 780.059 176.377 780.118 176.926C780.177 177.475 780.671 177.872 781.22 177.813C781.926 177.736 782.63 177.66 783.331 177.583C783.951 177.515 784.569 177.447 785.185 177.379ZM560.465 175.654C559.939 175.487 559.377 175.778 559.21 176.305C559.043 176.831 559.334 177.393 559.861 177.56C561.132 177.963 562.404 178.353 563.675 178.731C564.205 178.888 564.761 178.586 564.919 178.057C565.076 177.528 564.774 176.971 564.245 176.814C562.984 176.44 561.725 176.053 560.465 175.654ZM992.965 175.769C992.429 175.636 991.887 175.963 991.754 176.499C991.621 177.035 991.948 177.578 992.484 177.711C993.755 178.026 995.035 178.349 996.324 178.679C996.859 178.816 997.404 178.494 997.541 177.959C997.679 177.424 997.356 176.879 996.821 176.742C995.527 176.41 994.242 176.086 992.965 175.769ZM777.329 178.229C777.878 178.171 778.276 177.678 778.218 177.129C778.16 176.58 777.668 176.182 777.119 176.24C775.818 176.377 774.508 176.514 773.189 176.65C772.64 176.707 772.241 177.198 772.297 177.747C772.354 178.297 772.845 178.696 773.395 178.64C774.715 178.503 776.026 178.366 777.329 178.229ZM769.443 179.042C769.992 178.986 770.393 178.496 770.338 177.947C770.283 177.397 769.792 176.996 769.243 177.052C768.576 177.119 767.906 177.185 767.234 177.252C766.608 177.314 765.98 177.376 765.35 177.437C764.8 177.491 764.398 177.98 764.451 178.53C764.505 179.079 764.994 179.481 765.544 179.428C766.852 179.3 768.152 179.171 769.443 179.042ZM1000.65 177.739C1000.11 177.598 999.565 177.916 999.424 178.45C999.282 178.984 999.6 179.531 1000.13 179.672C1001.39 180.004 1002.65 180.343 1003.92 180.69C1004.45 180.835 1005 180.521 1005.15 179.988C1005.29 179.455 1004.98 178.906 1004.45 178.76C1003.17 178.412 1001.9 178.072 1000.65 177.739ZM761.59 179.808C762.14 179.756 762.544 179.268 762.492 178.718C762.44 178.168 761.952 177.765 761.402 177.817C760.739 177.88 760.074 177.942 759.407 178.004L757.398 178.192C756.848 178.243 756.444 178.73 756.496 179.28C756.547 179.83 757.034 180.234 757.584 180.183L759.593 179.996C759.983 179.959 760.372 179.923 760.761 179.886L761.59 179.808ZM568.049 177.905C567.517 177.758 566.966 178.07 566.818 178.602C566.671 179.134 566.983 179.685 567.515 179.832C568.799 180.188 570.084 180.531 571.37 180.861C571.905 180.999 572.45 180.677 572.588 180.142C572.725 179.607 572.403 179.062 571.868 178.924C570.594 178.597 569.321 178.257 568.049 177.905ZM753.603 180.555C754.153 180.504 754.557 180.016 754.506 179.467C754.454 178.917 753.967 178.513 753.417 178.564C752.097 178.688 750.786 178.811 749.482 178.933C748.933 178.985 748.529 179.472 748.58 180.022C748.632 180.572 749.119 180.976 749.669 180.924L752.35 180.673L753.603 180.555ZM745.711 181.296C746.261 181.244 746.665 180.757 746.613 180.207C746.561 179.657 746.074 179.253 745.524 179.305L741.545 179.678C740.995 179.73 740.591 180.217 740.643 180.767C740.694 181.317 741.182 181.721 741.732 181.669L745.711 181.296ZM1008.3 179.826C1007.76 179.677 1007.21 179.987 1007.06 180.519C1006.91 181.05 1007.22 181.602 1007.76 181.752C1009 182.101 1010.25 182.458 1011.52 182.821C1012.05 182.974 1012.6 182.668 1012.75 182.137C1012.91 181.607 1012.6 181.052 1012.07 180.899C1010.8 180.535 1009.55 180.177 1008.3 179.826ZM575.71 179.874C575.173 179.746 574.634 180.079 574.506 180.616C574.379 181.153 574.711 181.692 575.248 181.82C576.543 182.128 577.84 182.423 579.14 182.707C579.68 182.825 580.212 182.483 580.33 181.943C580.448 181.403 580.106 180.871 579.567 180.753C578.279 180.472 576.993 180.179 575.71 179.874ZM737.801 182.038C738.351 181.986 738.755 181.499 738.703 180.949C738.652 180.399 738.165 179.995 737.615 180.046L735.995 180.198C735.21 180.271 734.427 180.344 733.646 180.417C733.097 180.468 732.692 180.956 732.744 181.506C732.795 182.056 733.282 182.46 733.832 182.409L735.766 182.228L737.801 182.038ZM729.86 182.778C730.41 182.727 730.814 182.24 730.763 181.69C730.712 181.14 730.225 180.735 729.675 180.786C728.36 180.908 727.053 181.029 725.753 181.149C725.203 181.199 724.799 181.686 724.849 182.236C724.9 182.786 725.387 183.191 725.937 183.14L727.62 182.985C728.364 182.916 729.111 182.847 729.86 182.778ZM721.949 183.505C722.499 183.455 722.904 182.969 722.854 182.419C722.804 181.869 722.317 181.463 721.767 181.514C720.439 181.635 719.12 181.754 717.809 181.872C717.258 181.922 716.853 182.408 716.902 182.958C716.952 183.508 717.438 183.914 717.988 183.864C719.3 183.746 720.62 183.626 721.949 183.505ZM583.439 181.562C582.897 181.453 582.37 181.805 582.262 182.347C582.154 182.888 582.506 183.415 583.047 183.523C584.352 183.783 585.66 184.032 586.971 184.27C587.514 184.368 588.034 184.007 588.133 183.464C588.231 182.92 587.871 182.4 587.327 182.302C586.028 182.066 584.732 181.82 583.439 181.562ZM1015.86 182.005C1015.33 181.848 1014.77 182.151 1014.62 182.68C1014.46 183.21 1014.76 183.766 1015.29 183.923C1016.56 184.297 1017.83 184.678 1019.12 185.067C1019.65 185.227 1020.2 184.928 1020.36 184.399C1020.52 183.87 1020.23 183.312 1019.7 183.152C1018.41 182.763 1017.13 182.38 1015.86 182.005ZM714.058 184.215C714.608 184.166 715.015 183.681 714.966 183.131C714.917 182.581 714.432 182.174 713.881 182.223C712.542 182.342 711.211 182.459 709.889 182.574C709.338 182.622 708.931 183.107 708.979 183.658C709.027 184.208 709.512 184.615 710.062 184.567C711.386 184.451 712.718 184.334 714.058 184.215ZM706.118 184.907C706.668 184.86 707.076 184.376 707.029 183.826C706.982 183.276 706.498 182.868 705.947 182.915C704.618 183.028 703.298 183.14 701.986 183.249C701.435 183.295 701.026 183.779 701.072 184.329C701.118 184.879 701.602 185.288 702.152 185.242C703.465 185.133 704.787 185.021 706.118 184.907ZM591.224 182.973C590.679 182.884 590.165 183.254 590.076 183.799C589.987 184.344 590.356 184.858 590.901 184.947C592.213 185.161 593.528 185.365 594.848 185.558C595.394 185.638 595.902 185.259 595.982 184.713C596.062 184.166 595.684 183.659 595.137 183.579C593.829 183.387 592.524 183.186 591.224 182.973ZM698.176 185.57C698.727 185.525 699.137 185.042 699.092 184.492C699.047 183.941 698.565 183.531 698.015 183.576C696.699 183.683 695.391 183.787 694.093 183.889C693.542 183.933 693.131 184.414 693.174 184.965C693.217 185.515 693.699 185.926 694.249 185.883C695.55 185.781 696.859 185.676 698.176 185.57ZM599.056 184.119C598.508 184.048 598.006 184.434 597.935 184.982C597.864 185.53 598.251 186.031 598.798 186.102C600.114 186.273 601.435 186.433 602.761 186.584C603.309 186.646 603.805 186.252 603.867 185.703C603.93 185.155 603.535 184.659 602.987 184.597C601.671 184.447 600.361 184.288 599.056 184.119ZM690.246 186.192C690.796 186.15 691.209 185.67 691.167 185.119C691.126 184.569 690.646 184.156 690.095 184.198C688.771 184.298 687.456 184.395 686.15 184.49C685.599 184.529 685.185 185.008 685.225 185.559C685.264 186.11 685.743 186.524 686.294 186.484C687.603 186.39 688.92 186.292 690.246 186.192ZM1023.43 184.295C1022.9 184.132 1022.34 184.427 1022.18 184.955C1022.02 185.482 1022.31 186.042 1022.84 186.205C1024.09 186.59 1025.34 186.982 1026.6 187.38C1027.13 187.546 1027.69 187.254 1027.85 186.727C1028.02 186.201 1027.73 185.639 1027.2 185.473C1025.94 185.073 1024.68 184.681 1023.43 184.295ZM682.32 186.765C682.871 186.727 683.287 186.25 683.249 185.699C683.211 185.148 682.733 184.732 682.182 184.77C680.851 184.861 679.529 184.95 678.215 185.035C677.664 185.071 677.246 185.546 677.282 186.097C677.318 186.649 677.793 187.066 678.344 187.031C679.661 186.945 680.986 186.857 682.32 186.765ZM606.923 185.014C606.373 184.96 605.884 185.362 605.83 185.911C605.775 186.461 606.177 186.95 606.727 187.004C608.045 187.134 609.369 187.255 610.699 187.366C611.249 187.412 611.733 187.003 611.779 186.453C611.825 185.903 611.416 185.419 610.866 185.373C609.545 185.262 608.231 185.143 606.923 185.014ZM674.393 187.278C674.944 187.245 675.364 186.771 675.33 186.22C675.297 185.668 674.823 185.249 674.272 185.282C672.934 185.363 671.606 185.44 670.286 185.513C669.735 185.544 669.313 186.016 669.343 186.567C669.374 187.119 669.846 187.541 670.397 187.51C671.72 187.437 673.052 187.359 674.393 187.278ZM614.816 185.676C614.265 185.638 613.787 186.053 613.749 186.604C613.71 187.155 614.126 187.633 614.677 187.671C615.996 187.764 617.321 187.847 618.654 187.923C619.205 187.954 619.677 187.532 619.709 186.981C619.74 186.43 619.318 185.957 618.767 185.926C617.443 185.851 616.126 185.768 614.816 185.676ZM666.453 187.719C667.005 187.692 667.429 187.222 667.401 186.67C667.374 186.119 666.904 185.694 666.352 185.722C665.013 185.79 663.682 185.853 662.359 185.912C661.808 185.937 661.38 186.404 661.405 186.955C661.43 187.507 661.897 187.935 662.449 187.91C663.775 187.851 665.11 187.787 666.453 187.719ZM658.488 188.075C659.04 188.053 659.47 187.589 659.449 187.037C659.427 186.485 658.963 186.055 658.411 186.076C657.076 186.127 655.75 186.174 654.432 186.216C653.88 186.233 653.447 186.695 653.465 187.247C653.482 187.799 653.944 188.232 654.496 188.215C655.818 188.173 657.149 188.126 658.488 188.075ZM622.727 186.125C622.175 186.101 621.708 186.529 621.684 187.08C621.659 187.632 622.087 188.099 622.639 188.124C623.958 188.182 625.284 188.232 626.618 188.276C627.17 188.294 627.632 187.861 627.65 187.309C627.667 186.757 627.235 186.295 626.682 186.277C625.357 186.234 624.038 186.183 622.727 186.125ZM650.522 188.326C651.074 188.313 651.511 187.854 651.498 187.302C651.484 186.75 651.026 186.313 650.473 186.327C649.142 186.359 647.819 186.386 646.504 186.408C645.952 186.417 645.512 186.872 645.521 187.424C645.53 187.976 645.985 188.417 646.537 188.407C647.858 188.386 649.186 188.359 650.522 188.326ZM630.649 186.383C630.097 186.371 629.639 186.809 629.628 187.361C629.616 187.914 630.054 188.371 630.606 188.383C631.925 188.411 633.252 188.432 634.586 188.446C635.138 188.452 635.591 188.01 635.597 187.457C635.603 186.905 635.16 186.453 634.608 186.446C633.28 186.432 631.961 186.411 630.649 186.383ZM642.555 188.456C643.107 188.452 643.551 188.001 643.547 187.448C643.542 186.896 643.091 186.452 642.539 186.456C641.21 186.467 639.889 186.472 638.576 186.47C638.024 186.47 637.575 186.917 637.575 187.469C637.574 188.021 638.021 188.47 638.574 188.47C639.893 188.472 641.22 188.467 642.555 188.456ZM1031.02 186.691C1030.49 186.522 1029.93 186.811 1029.76 187.336C1029.59 187.862 1029.88 188.426 1030.41 188.595C1031.63 188.99 1032.87 189.391 1034.11 189.798C1034.63 189.971 1035.2 189.685 1035.37 189.16C1035.54 188.635 1035.26 188.07 1034.73 187.898C1033.49 187.49 1032.25 187.087 1031.02 186.691ZM1038.48 189.139C1037.95 188.964 1037.39 189.246 1037.21 189.77C1037.04 190.294 1037.32 190.86 1037.84 191.035C1039.1 191.454 1040.36 191.879 1041.63 192.311C1042.15 192.489 1042.72 192.209 1042.89 191.686C1043.07 191.163 1042.79 190.595 1042.27 190.417C1041 189.985 1039.73 189.558 1038.48 189.139ZM1045.97 191.687C1045.45 191.507 1044.88 191.784 1044.7 192.306C1044.52 192.828 1044.8 193.397 1045.32 193.578C1045.32 193.578 1045.33 193.579 1045.33 193.579L1045.27 193.692L1042.39 197.716C1040.84 199.886 1042.64 202.686 1045.6 202.686L1062.22 202.688C1065.4 202.69 1067.16 199.494 1065.14 197.367L1054.61 186.258C1052.74 184.283 1049.09 184.847 1048.13 187.259L1046.34 191.729L1046.3 191.801C1046.19 191.763 1046.08 191.725 1045.97 191.687ZM1054.86 197.329C1054.81 197.347 1054.74 197.376 1054.55 197.446C1054.78 197.364 1054.95 197.3 1055.1 197.249L1055.22 197.212C1055.44 197.141 1055.73 197.053 1055.95 196.997C1056.02 196.983 1056.09 196.969 1056.17 196.952C1056.11 196.961 1056.03 196.977 1055.95 196.997C1055.85 197.02 1055.76 197.04 1055.67 197.063C1055.51 197.105 1055.36 197.155 1055.1 197.249C1054.93 197.301 1054.91 197.306 1054.86 197.329Z" fill="#535968"/>
</svg>
