<svg width="69" height="69" viewBox="0 0 69 69" fill="none" xmlns="http://www.w3.org/2000/svg">
<g opacity="0.8" filter="url(#filter0_f_1_454)">
<ellipse cx="34.1429" cy="34.1429" rx="9.14286" ry="9.14286" fill="white"/>
</g>
<g clip-path="url(#clip0_1_454)">
<path d="M45.4625 43.695C46.1175 42.7063 46.5 41.5225 46.5 40.25C46.5 36.8037 43.6963 34 40.25 34C36.8037 34 34 36.8037 34 40.25C34 43.6963 36.8037 46.5 40.25 46.5C41.5225 46.5 42.7063 46.1175 43.695 45.4625L46.8662 48.6338C47.11 48.8775 47.43 49 47.75 49C48.07 49 48.39 48.8775 48.6338 48.6338C49.1225 48.145 49.1225 47.355 48.6338 46.8662L45.4625 43.695ZM36.5 40.25C36.5 38.1825 38.1825 36.5 40.25 36.5C42.3175 36.5 44 38.1825 44 40.25C44 42.3175 42.3175 44 40.25 44C38.1825 44 36.5 42.3175 36.5 40.25ZM26.5 24.625C26.5 25.66 25.66 26.5 24.625 26.5C23.59 26.5 22.75 25.66 22.75 24.625C22.75 23.59 23.59 22.75 24.625 22.75C25.66 22.75 26.5 23.59 26.5 24.625ZM31.5 24.625C31.5 25.66 30.66 26.5 29.625 26.5C28.59 26.5 27.75 25.66 27.75 24.625C27.75 23.59 28.59 22.75 29.625 22.75C30.66 22.75 31.5 23.59 31.5 24.625ZM42.75 19H25.25C21.8038 19 19 21.8038 19 25.25V40.25C19 43.6963 21.8038 46.5 25.25 46.5H31.5C32.1912 46.5 32.75 45.9412 32.75 45.25C32.75 44.5588 32.1912 44 31.5 44H25.25C23.1825 44 21.5 42.3175 21.5 40.25V30.25H46.5V34C46.5 34.69 47.0588 35.25 47.75 35.25C48.4412 35.25 49 34.69 49 34V25.25C49 21.8038 46.1963 19 42.75 19ZM21.5 27.75V25.25C21.5 23.1825 23.1825 21.5 25.25 21.5H42.75C44.8175 21.5 46.5 23.1825 46.5 25.25V27.75H21.5Z" fill="white"/>
</g>
<defs>
<filter id="filter0_f_1_454" x="0" y="0" width="68.2857" height="68.2858" filterUnits="userSpaceOnUse" color-interpolation-filters="sRGB">
<feFlood flood-opacity="0" result="BackgroundImageFix"/>
<feBlend mode="normal" in="SourceGraphic" in2="BackgroundImageFix" result="shape"/>
<feGaussianBlur stdDeviation="12.5" result="effect1_foregroundBlur_1_454"/>
</filter>
<clipPath id="clip0_1_454">
<rect width="30" height="30" fill="white" transform="translate(19 19)"/>
</clipPath>
</defs>
</svg>
