<svg width="1439" height="261" viewBox="0 0 1439 261" fill="none" xmlns="http://www.w3.org/2000/svg">
<g clip-path="url(#clip0_1_2886)">
<rect opacity="0.3" x="1320" y="610.052" width="1200" height="600" transform="rotate(180 1320 610.052)" fill="url(#paint0_radial_1_2886)"/>
<g style="mix-blend-mode:overlay">
<path d="M-36.6041 90.0515H-72.6328V126.08M-36.6041 90.0515V126.08M-36.6041 90.0515H-0.575394M-36.6041 126.08H-72.6328M-36.6041 126.08L-36.6041 162.109M-36.6041 126.08H-0.575394M-72.6328 126.08V162.109M-36.6041 162.109H-72.6328M-36.6041 162.109V198.138M-36.6041 162.109H-0.575394M-72.6328 162.109L-72.6328 198.138M-36.6041 198.138H-72.6328M-36.6041 198.138V234.166M-36.6041 198.138H-0.575394M-72.6328 198.138V234.166M-36.6041 234.166H-72.6328M-36.6041 234.166L-36.6041 270.195M-36.6041 234.166H-0.575394M-72.6328 234.166V270.195M-36.6041 270.195H-72.6328M-36.6041 270.195V306.224M-36.6041 270.195H-0.575394M-72.6328 270.195V306.224M-36.6041 306.224H-72.6328M-36.6041 306.224V342.252M-36.6041 306.224H-0.575394M-72.6328 306.224V342.252M-36.6041 342.252H-72.6328M-36.6041 342.252L-36.6041 378.281M-36.6041 342.252H-0.575394M-72.6328 342.252V378.281M-36.6041 378.281H-72.6328M-36.6041 378.281V414.31M-36.6041 378.281H-0.575394M-72.6328 378.281L-72.6328 414.31M-36.6041 414.31H-72.6328M-36.6041 414.31V450.339M-36.6041 414.31H-0.575394M-72.6328 414.31V450.339M-36.6041 450.339H-72.6328M-36.6041 450.339L-36.6041 486.367M-36.6041 450.339H-0.575394M-72.6328 450.339V486.367M-36.6041 486.367H-72.6328M-36.6041 486.367V522.396M-36.6041 486.367H-0.575394M-72.6328 486.367V522.396M-36.6041 522.396H-72.6328M-36.6041 522.396V558.425M-36.6041 522.396H-0.575394M-72.6328 522.396V558.425M-36.6041 558.425H-72.6328M-36.6041 558.425L-36.6041 594.453M-36.6041 558.425H-0.575394M-72.6328 558.425V594.453M-36.6041 594.453H-72.6328M-36.6041 594.453V630.482M-36.6041 594.453H-0.575394M-72.6328 594.453L-72.6328 630.482M-36.6041 630.482H-72.6328M-36.6041 630.482V666.511M-36.6041 630.482H-0.575394M-72.6328 630.482V666.511M-36.6041 666.511H-72.6328M-36.6041 666.511L-36.6041 702.54M-36.6041 666.511H-0.575394M-72.6328 666.511V702.54M-36.6041 702.54H-72.6328M-36.6041 702.54V738.568M-36.6041 702.54H-0.575394M-72.6328 702.54V738.568M-36.6041 738.568H-72.6328M-36.6041 738.568V774.597M-36.6041 738.568H-0.575394M-72.6328 738.568V774.597H-36.6041M-36.6041 774.597H-0.575394M-0.575394 90.0515V126.08M-0.575394 90.0515L35.4533 90.0515M-0.575394 126.08V162.109M-0.575394 126.08H35.4533M-0.575394 162.109L-0.575394 198.138M-0.575394 162.109H35.4533M-0.575394 198.138V234.166M-0.575394 198.138H35.4533M-0.575394 234.166V270.195M-0.575394 234.166H35.4533M-0.575394 270.195V306.224M-0.575394 270.195H35.4533M-0.575394 306.224V342.252M-0.575394 306.224H35.4533M-0.575394 342.252V378.281M-0.575394 342.252H35.4533M-0.575394 378.281L-0.575394 414.31M-0.575394 378.281H35.4533M-0.575394 414.31V450.339M-0.575394 414.31H35.4533M-0.575394 450.339V486.367M-0.575394 450.339H35.4533M-0.575394 486.367V522.396M-0.575394 486.367H35.4533M-0.575394 522.396V558.425M-0.575394 522.396H35.4533M-0.575394 558.425V594.453M-0.575394 558.425H35.4533M-0.575394 594.453L-0.575394 630.482M-0.575394 594.453H35.4533M-0.575394 630.482V666.511M-0.575394 630.482H35.4533M-0.575394 666.511V702.54M-0.575394 666.511H35.4533M-0.575394 702.54V738.568M-0.575394 702.54H35.4533M-0.575394 738.568V774.597M-0.575394 738.568H35.4533M-0.575394 774.597H35.4533M35.4533 90.0515V126.08M35.4533 90.0515H71.482M35.4533 126.08V162.109M35.4533 126.08H71.482M35.4533 162.109L35.4533 198.138M35.4533 162.109H71.482M35.4533 198.138V234.166M35.4533 198.138H71.482M35.4533 234.166V270.195M35.4533 234.166H71.482M35.4533 270.195V306.224M35.4533 270.195H71.482M35.4533 306.224V342.252M35.4533 306.224H71.482M35.4533 342.252V378.281M35.4533 342.252H71.482M35.4533 378.281L35.4533 414.31M35.4533 378.281H71.482M35.4533 414.31V450.339M35.4533 414.31H71.482M35.4533 450.339V486.367M35.4533 450.339H71.482M35.4533 486.367V522.396M35.4533 486.367H71.482M35.4533 522.396V558.425M35.4533 522.396H71.482M35.4533 558.425V594.453M35.4533 558.425H71.482M35.4533 594.453L35.4533 630.482M35.4533 594.453H71.482M35.4533 630.482V666.511M35.4533 630.482H71.482M35.4533 666.511V702.54M35.4533 666.511H71.482M35.4533 702.54V738.568M35.4533 702.54H71.482M35.4533 738.568V774.597M35.4533 738.568H71.482M35.4533 774.597H71.482M71.482 90.0515V126.08M71.482 90.0515H107.511M71.482 126.08V162.109M71.482 126.08L107.511 126.08M71.482 162.109V198.138M71.482 162.109H107.511M71.482 198.138V234.166M71.482 198.138H107.511M71.482 234.166V270.195M71.482 234.166H107.511M71.482 270.195L71.482 306.224M71.482 270.195H107.511M71.482 306.224V342.252M71.482 306.224H107.511M71.482 342.252V378.281M71.482 342.252H107.511M71.482 378.281V414.31M71.482 378.281H107.511M71.482 414.31V450.339M71.482 414.31H107.511M71.482 450.339V486.367M71.482 450.339H107.511M71.482 486.367V522.396M71.482 486.367H107.511M71.482 522.396V558.425M71.482 522.396H107.511M71.482 558.425V594.453M71.482 558.425H107.511M71.482 594.453V630.482M71.482 594.453H107.511M71.482 630.482V666.511M71.482 630.482H107.511M71.482 666.511V702.54M71.482 666.511H107.511M71.482 702.54L71.482 738.568M71.482 702.54H107.511M71.482 738.568V774.597M71.482 738.568H107.511M71.482 774.597H107.511M107.511 90.0515V126.08M107.511 90.0515H143.539M107.511 126.08V162.109M107.511 126.08H143.539M107.511 162.109V198.138M107.511 162.109H143.539M107.511 198.138V234.166M107.511 198.138H143.539M107.511 234.166V270.195M107.511 234.166L143.539 234.166M107.511 270.195L107.511 306.224M107.511 270.195H143.539M107.511 306.224V342.252M107.511 306.224H143.539M107.511 342.252V378.281M107.511 342.252H143.539M107.511 378.281V414.31M107.511 378.281H143.539M107.511 414.31V450.339M107.511 414.31H143.539M107.511 450.339V486.367M107.511 450.339H143.539M107.511 486.367V522.396M107.511 486.367H143.539M107.511 522.396V558.425M107.511 522.396H143.539M107.511 558.425V594.453M107.511 558.425H143.539M107.511 594.453V630.482M107.511 594.453H143.539M107.511 630.482V666.511M107.511 630.482H143.539M107.511 666.511V702.54M107.511 666.511H143.539M107.511 702.54L107.511 738.568M107.511 702.54H143.539M107.511 738.568V774.597M107.511 738.568H143.539M107.511 774.597H143.539M143.539 90.0515V126.08M143.539 90.0515H179.568M143.539 126.08V162.109M143.539 126.08H179.568M143.539 162.109V198.138M143.539 162.109H179.568M143.539 198.138V234.166M143.539 198.138H179.568M143.539 234.166V270.195M143.539 234.166H179.568M143.539 270.195L143.539 306.224M143.539 270.195H179.568M143.539 306.224V342.252M143.539 306.224H179.568M143.539 342.252V378.281M143.539 342.252H179.568M143.539 378.281V414.31M143.539 378.281H179.568M143.539 414.31V450.339M143.539 414.31H179.568M143.539 450.339V486.367M143.539 450.339H179.568M143.539 486.367V522.396M143.539 486.367H179.568M143.539 522.396V558.425M143.539 522.396H179.568M143.539 558.425V594.453M143.539 558.425H179.568M143.539 594.453V630.482M143.539 594.453H179.568M143.539 630.482V666.511M143.539 630.482H179.568M143.539 666.511V702.54M143.539 666.511H179.568M143.539 702.54L143.539 738.568M143.539 702.54H179.568M143.539 738.568V774.597M143.539 738.568H179.568M143.539 774.597H179.568M179.568 90.0515V126.08M179.568 90.0515H215.597M179.568 126.08V162.109M179.568 126.08L215.597 126.08M179.568 162.109V198.138M179.568 162.109H215.597M179.568 198.138V234.166M179.568 198.138H215.597M179.568 234.166V270.195M179.568 234.166H215.597M179.568 270.195L179.568 306.224M179.568 270.195H215.597M179.568 306.224V342.252M179.568 306.224H215.597M179.568 342.252V378.281M179.568 342.252H215.597M179.568 378.281V414.31M179.568 378.281H215.597M179.568 414.31V450.339M179.568 414.31H215.597M179.568 450.339V486.367M179.568 450.339H215.597M179.568 486.367V522.396M179.568 486.367H215.597M179.568 522.396V558.425M179.568 522.396H215.597M179.568 558.425V594.453M179.568 558.425H215.597M179.568 594.453V630.482M179.568 594.453H215.597M179.568 630.482V666.511M179.568 630.482H215.597M179.568 666.511V702.54M179.568 666.511H215.597M179.568 702.54L179.568 738.568M179.568 702.54H215.597M179.568 738.568V774.597M179.568 738.568H215.597M179.568 774.597H215.597M215.597 90.0515V126.08M215.597 90.0515L251.626 90.0515M215.597 126.08V162.109M215.597 126.08H251.626M215.597 162.109V198.138M215.597 162.109L251.626 162.109M215.597 198.138V234.166M215.597 198.138L251.626 198.138M215.597 234.166V270.195M215.597 234.166H251.626M215.597 270.195V306.224M215.597 270.195H251.626M215.597 306.224V342.252M215.597 306.224H251.626M215.597 342.252V378.281M215.597 342.252H251.626M215.597 378.281V414.31M215.597 378.281H251.626M215.597 414.31V450.339M215.597 414.31H251.626M215.597 450.339V486.367M215.597 450.339H251.626M215.597 486.367L215.597 522.396M215.597 486.367H251.626M215.597 522.396V558.425M215.597 522.396H251.626M215.597 558.425V594.453M215.597 558.425H251.626M215.597 594.453V630.482M215.597 594.453H251.626M215.597 630.482V666.511M215.597 630.482H251.626M215.597 666.511V702.54M215.597 666.511H251.626M215.597 702.54V738.568M215.597 702.54H251.626M215.597 738.568V774.597M215.597 738.568H251.626M215.597 774.597H251.626M251.626 90.0515V126.08M251.626 90.0515H287.654M251.626 126.08V162.109M251.626 126.08H287.654M251.626 162.109V198.138M251.626 162.109H287.654M251.626 198.138V234.166M251.626 198.138H287.654M251.626 234.166V270.195M251.626 234.166H287.654M251.626 270.195V306.224M251.626 270.195H287.654M251.626 306.224V342.252M251.626 306.224H287.654M251.626 342.252V378.281M251.626 342.252H287.654M251.626 378.281V414.31M251.626 378.281H287.654M251.626 414.31V450.339M251.626 414.31H287.654M251.626 450.339V486.367M251.626 450.339H287.654M251.626 486.367L251.626 522.396M251.626 486.367H287.654M251.626 522.396V558.425M251.626 522.396H287.654M251.626 558.425V594.453M251.626 558.425H287.654M251.626 594.453V630.482M251.626 594.453H287.654M251.626 630.482V666.511M251.626 630.482H287.654M251.626 666.511V702.54M251.626 666.511H287.654M251.626 702.54V738.568M251.626 702.54H287.654M251.626 738.568V774.597M251.626 738.568H287.654M251.626 774.597H287.654M287.654 90.0515V126.08M287.654 90.0515H323.683M287.654 126.08V162.109M287.654 126.08H323.683M287.654 162.109V198.138M287.654 162.109H323.683M287.654 198.138V234.166M287.654 198.138H323.683M287.654 234.166V270.195M287.654 234.166H323.683M287.654 270.195V306.224M287.654 270.195H323.683M287.654 306.224V342.252M287.654 306.224H323.683M287.654 342.252V378.281M287.654 342.252H323.683M287.654 378.281V414.31M287.654 378.281H323.683M287.654 414.31V450.339M287.654 414.31H323.683M287.654 450.339V486.367M287.654 450.339H323.683M287.654 486.367L287.654 522.396M287.654 486.367H323.683M287.654 522.396V558.425M287.654 522.396H323.683M287.654 558.425V594.453M287.654 558.425H323.683M287.654 594.453V630.482M287.654 594.453H323.683M287.654 630.482V666.511M287.654 630.482H323.683M287.654 666.511V702.54M287.654 666.511H323.683M287.654 702.54V738.568M287.654 702.54H323.683M287.654 738.568V774.597M287.654 738.568H323.683M287.654 774.597H323.683M323.683 90.0515V126.08M323.683 90.0515H359.712M323.683 126.08V162.109M323.683 126.08H359.712M323.683 162.109V198.138M323.683 162.109H359.712M323.683 198.138V234.166M323.683 198.138H359.712M323.683 234.166V270.195M323.683 234.166H359.712M323.683 270.195V306.224M323.683 270.195H359.712M323.683 306.224V342.252M323.683 306.224H359.712M323.683 342.252V378.281M323.683 342.252H359.712M323.683 378.281V414.31M323.683 378.281L359.712 378.281M323.683 414.31V450.339M323.683 414.31L359.712 414.31M323.683 450.339V486.367M323.683 450.339L359.712 450.339M323.683 486.367L323.683 522.396M323.683 486.367L359.712 486.367M323.683 522.396V558.425M323.683 522.396H359.712M323.683 558.425V594.453M323.683 558.425H359.712M323.683 594.453V630.482M323.683 594.453H359.712M323.683 630.482V666.511M323.683 630.482H359.712M323.683 666.511V702.54M323.683 666.511H359.712M323.683 702.54V738.568M323.683 702.54H359.712M323.683 738.568V774.597M323.683 738.568H359.712M323.683 774.597H359.712M359.712 90.0515V126.08M359.712 90.0515H395.74M359.712 126.08V162.109M359.712 126.08H395.74M359.712 162.109V198.138M359.712 162.109H395.74M359.712 198.138V234.166M359.712 198.138H395.74M359.712 234.166V270.195M359.712 234.166H395.74M359.712 270.195V306.224M359.712 270.195H395.74M359.712 306.224V342.252M359.712 306.224H395.74M359.712 342.252V378.281M359.712 342.252H395.74M359.712 378.281V414.31M359.712 378.281H395.74M359.712 414.31V450.339M359.712 414.31H395.74M359.712 450.339V486.367M359.712 450.339H395.74M359.712 486.367L359.712 522.396M359.712 486.367H395.74M359.712 522.396V558.425M359.712 522.396H395.74M359.712 558.425V594.453M359.712 558.425H395.74M359.712 594.453V630.482M359.712 594.453H395.74M359.712 630.482V666.511M359.712 630.482H395.74M359.712 666.511V702.54M359.712 666.511H395.74M359.712 702.54V738.568M359.712 702.54H395.74M359.712 738.568V774.597M359.712 738.568H395.74M359.712 774.597H395.74M395.74 90.0515V126.08M395.74 90.0515H431.769M395.74 126.08V162.109M395.74 126.08H431.769M395.74 162.109V198.138M395.74 162.109H431.769M395.74 198.138V234.166M395.74 198.138H431.769M395.74 234.166V270.195M395.74 234.166H431.769M395.74 270.195V306.224M395.74 270.195H431.769M395.74 306.224V342.252M395.74 306.224H431.769M395.74 342.252V378.281M395.74 342.252H431.769M395.74 378.281V414.31M395.74 378.281H431.769M395.74 414.31V450.339M395.74 414.31H431.769M395.74 450.339V486.367M395.74 450.339H431.769M395.74 486.367L395.74 522.396M395.74 486.367H431.769M395.74 522.396V558.425M395.74 522.396H431.769M395.74 558.425V594.453M395.74 558.425H431.769M395.74 594.453V630.482M395.74 594.453H431.769M395.74 630.482V666.511M395.74 630.482H431.769M395.74 666.511V702.54M395.74 666.511H431.769M395.74 702.54V738.568M395.74 702.54H431.769M395.74 738.568V774.597M395.74 738.568H431.769M395.74 774.597H431.769M431.769 90.0515V126.08M431.769 90.0515L467.798 90.0515M431.769 126.08V162.109M431.769 126.08H467.798M431.769 162.109V198.138M431.769 162.109L467.798 162.109M431.769 198.138V234.166M431.769 198.138L467.798 198.138M431.769 234.166V270.195M431.769 234.166H467.798M431.769 270.195V306.224M431.769 270.195H467.798M431.769 306.224V342.252M431.769 306.224H467.798M431.769 342.252V378.281M431.769 342.252H467.798M431.769 378.281V414.31M431.769 378.281H467.798M431.769 414.31V450.339M431.769 414.31H467.798M431.769 450.339V486.367M431.769 450.339H467.798M431.769 486.367L431.769 522.396M431.769 486.367H467.798M431.769 522.396V558.425M431.769 522.396H467.798M431.769 558.425V594.453M431.769 558.425H467.798M431.769 594.453V630.482M431.769 594.453H467.798M431.769 630.482V666.511M431.769 630.482H467.798M431.769 666.511V702.54M431.769 666.511H467.798M431.769 702.54V738.568M431.769 702.54H467.798M431.769 738.568V774.597M431.769 738.568H467.798M431.769 774.597H467.798M467.798 90.0515V126.08M467.798 90.0515H503.827M467.798 126.08V162.109M467.798 126.08H503.827M467.798 162.109V198.138M467.798 162.109H503.827M467.798 198.138V234.166M467.798 198.138H503.827M467.798 234.166V270.195M467.798 234.166H503.827M467.798 270.195V306.224M467.798 270.195H503.827M467.798 306.224V342.252M467.798 306.224H503.827M467.798 342.252V378.281M467.798 342.252H503.827M467.798 378.281V414.31M467.798 378.281H503.827M467.798 414.31V450.339M467.798 414.31H503.827M467.798 450.339V486.367M467.798 450.339H503.827M467.798 486.367V522.396M467.798 486.367H503.827M467.798 522.396V558.425M467.798 522.396H503.827M467.798 558.425V594.453M467.798 558.425H503.827M467.798 594.453V630.482M467.798 594.453H503.827M467.798 630.482V666.511M467.798 630.482H503.827M467.798 666.511V702.54M467.798 666.511H503.827M467.798 702.54V738.568M467.798 702.54H503.827M467.798 738.568V774.597M467.798 738.568H503.827M467.798 774.597H503.827M503.827 90.0515V126.08M503.827 90.0515H539.855M503.827 126.08V162.109M503.827 126.08L539.855 126.08M503.827 162.109V198.138M503.827 162.109H539.855M503.827 198.138V234.166M503.827 198.138H539.855M503.827 234.166V270.195M503.827 234.166H539.855M503.827 270.195V306.224M503.827 270.195H539.855M503.827 306.224V342.252M503.827 306.224H539.855M503.827 342.252V378.281M503.827 342.252H539.855M503.827 378.281V414.31M503.827 378.281H539.855M503.827 414.31V450.339M503.827 414.31H539.855M503.827 450.339V486.367M503.827 450.339H539.855M503.827 486.367V522.396M503.827 486.367H539.855M503.827 522.396V558.425M503.827 522.396H539.855M503.827 558.425V594.453M503.827 558.425H539.855M503.827 594.453V630.482M503.827 594.453H539.855M503.827 630.482V666.511M503.827 630.482H539.855M503.827 666.511V702.54M503.827 666.511H539.855M503.827 702.54V738.568M503.827 702.54H539.855M503.827 738.568V774.597M503.827 738.568H539.855M503.827 774.597H539.855M539.855 90.0515V126.08M539.855 90.0515H575.884M539.855 126.08V162.109M539.855 126.08H575.884M539.855 162.109V198.138M539.855 162.109H575.884M539.855 198.138V234.166M539.855 198.138H575.884M539.855 234.166V270.195M539.855 234.166L575.884 234.166M539.855 270.195V306.224M539.855 270.195L575.884 270.195M539.855 306.224V342.252M539.855 306.224L575.884 306.224M539.855 342.252V378.281M539.855 342.252L575.884 342.252M539.855 378.281V414.31M539.855 378.281H575.884M539.855 414.31V450.339M539.855 414.31H575.884M539.855 450.339V486.367M539.855 450.339H575.884M539.855 486.367V522.396M539.855 486.367H575.884M539.855 522.396V558.425M539.855 522.396H575.884M539.855 558.425V594.453M539.855 558.425H575.884M539.855 594.453V630.482M539.855 594.453H575.884M539.855 630.482V666.511M539.855 630.482H575.884M539.855 666.511V702.54M539.855 666.511H575.884M539.855 702.54V738.568M539.855 702.54H575.884M539.855 738.568V774.597M539.855 738.568H575.884M539.855 774.597H575.884M575.884 90.0515V126.08M575.884 90.0515H611.913M575.884 126.08V162.109M575.884 126.08H611.913M575.884 162.109V198.138M575.884 162.109H611.913M575.884 198.138V234.166M575.884 198.138H611.913M575.884 234.166V270.195M575.884 234.166H611.913M575.884 270.195V306.224M575.884 270.195H611.913M575.884 306.224V342.252M575.884 306.224H611.913M575.884 342.252V378.281M575.884 342.252H611.913M575.884 378.281V414.31M575.884 378.281H611.913M575.884 414.31V450.339M575.884 414.31H611.913M575.884 450.339V486.367M575.884 450.339H611.913M575.884 486.367V522.396M575.884 486.367H611.913M575.884 522.396V558.425M575.884 522.396H611.913M575.884 558.425V594.453M575.884 558.425H611.913M575.884 594.453V630.482M575.884 594.453H611.913M575.884 630.482V666.511M575.884 630.482H611.913M575.884 666.511V702.54M575.884 666.511H611.913M575.884 702.54V738.568M575.884 702.54H611.913M575.884 738.568V774.597M575.884 738.568H611.913M575.884 774.597H611.913M611.913 90.0515V126.08M611.913 90.0515H647.941M611.913 126.08V162.109M611.913 126.08L647.941 126.08M611.913 162.109V198.138M611.913 162.109H647.941M611.913 198.138V234.166M611.913 198.138H647.941M611.913 234.166V270.195M611.913 234.166H647.941M611.913 270.195V306.224M611.913 270.195H647.941M611.913 306.224V342.252M611.913 306.224H647.941M611.913 342.252V378.281M611.913 342.252H647.941M611.913 378.281V414.31M611.913 378.281H647.941M611.913 414.31V450.339M611.913 414.31H647.941M611.913 450.339V486.367M611.913 450.339H647.941M611.913 486.367V522.396M611.913 486.367H647.941M611.913 522.396V558.425M611.913 522.396H647.941M611.913 558.425V594.453M611.913 558.425H647.941M611.913 594.453V630.482M611.913 594.453H647.941M611.913 630.482V666.511M611.913 630.482H647.941M611.913 666.511V702.54M611.913 666.511H647.941M611.913 702.54V738.568M611.913 702.54H647.941M611.913 738.568V774.597M611.913 738.568H647.941M611.913 774.597H647.941M647.941 90.0515V126.08M647.941 90.0515L683.97 90.0515M647.941 126.08V162.109M647.941 126.08H683.97M647.941 162.109V198.138M647.941 162.109H683.97M647.941 198.138V234.166M647.941 198.138H683.97M647.941 234.166V270.195M647.941 234.166H683.97M647.941 270.195V306.224M647.941 270.195H683.97M647.941 306.224V342.252M647.941 306.224H683.97M647.941 342.252V378.281M647.941 342.252H683.97M647.941 378.281V414.31M647.941 378.281H683.97M647.941 414.31V450.339M647.941 414.31H683.97M647.941 450.339V486.367M647.941 450.339H683.97M647.941 486.367V522.396M647.941 486.367H683.97M647.941 522.396V558.425M647.941 522.396H683.97M647.941 558.425V594.453M647.941 558.425H683.97M647.941 594.453V630.482M647.941 594.453H683.97M647.941 630.482V666.511M647.941 630.482H683.97M647.941 666.511V702.54M647.941 666.511H683.97M647.941 702.54V738.568M647.941 702.54H683.97M647.941 738.568V774.597M647.941 738.568H683.97M647.941 774.597H683.97M683.97 90.0515V126.08M683.97 90.0515H719.999M683.97 126.08V162.109M683.97 126.08H719.999M683.97 162.109V198.138M683.97 162.109H719.999M683.97 198.138V234.166M683.97 198.138H719.999M683.97 234.166V270.195M683.97 234.166H719.999M683.97 270.195V306.224M683.97 270.195H719.999M683.97 306.224V342.252M683.97 306.224H719.999M683.97 342.252V378.281M683.97 342.252H719.999M683.97 378.281V414.31M683.97 378.281H719.999M683.97 414.31V450.339M683.97 414.31H719.999M683.97 450.339V486.367M683.97 450.339H719.999M683.97 486.367V522.396M683.97 486.367H719.999M683.97 522.396V558.425M683.97 522.396H719.999M683.97 558.425V594.453M683.97 558.425H719.999M683.97 594.453V630.482M683.97 594.453H719.999M683.97 630.482V666.511M683.97 630.482H719.999M683.97 666.511V702.54M683.97 666.511H719.999M683.97 702.54V738.568M683.97 702.54H719.999M683.97 738.568V774.597M683.97 738.568H719.999M683.97 774.597H719.999M719.999 90.0515V126.08M719.999 90.0515H756.028M719.999 126.08V162.109M719.999 126.08H756.028M719.999 162.109V198.138M719.999 162.109H756.028M719.999 198.138V234.166M719.999 198.138H756.028M719.999 234.166V270.195M719.999 234.166H756.028M719.999 270.195V306.224M719.999 270.195H756.028M719.999 306.224V342.252M719.999 306.224H756.028M719.999 342.252V378.281M719.999 342.252H756.028M719.999 378.281V414.31M719.999 378.281H756.028M719.999 414.31V450.339M719.999 414.31H756.028M719.999 450.339V486.367M719.999 450.339H756.028M719.999 486.367V522.396M719.999 486.367H756.028M719.999 522.396V558.425M719.999 522.396H756.028M719.999 558.425V594.453M719.999 558.425H756.028M719.999 594.453V630.482M719.999 594.453H756.028M719.999 630.482V666.511M719.999 630.482H756.028M719.999 666.511V702.54M719.999 666.511H756.028M719.999 702.54V738.568M719.999 702.54H756.028M719.999 738.568V774.597M719.999 738.568H756.028M719.999 774.597H756.028M756.028 90.0515V126.08M756.028 90.0515H792.056M756.028 126.08V162.109M756.028 126.08H792.056M756.028 162.109V198.138M756.028 162.109H792.056M756.028 198.138V234.166M756.028 198.138H792.056M756.028 234.166V270.195M756.028 234.166H792.056M756.028 270.195V306.224M756.028 270.195H792.056M756.028 306.224V342.252M756.028 306.224H792.056M756.028 342.252V378.281M756.028 342.252H792.056M756.028 378.281V414.31M756.028 378.281H792.056M756.028 414.31V450.339M756.028 414.31H792.056M756.028 450.339V486.367M756.028 450.339H792.056M756.028 486.367V522.396M756.028 486.367H792.056M756.028 522.396V558.425M756.028 522.396H792.056M756.028 558.425V594.453M756.028 558.425H792.056M756.028 594.453V630.482M756.028 594.453H792.056M756.028 630.482V666.511M756.028 630.482L792.056 630.482M756.028 666.511V702.54M756.028 666.511L792.056 666.511M756.028 702.54V738.568M756.028 702.54L792.056 702.54M756.028 738.568V774.597M756.028 738.568L792.056 738.568M756.028 774.597L792.056 774.597M792.056 90.0515V126.08M792.056 90.0515H828.085M792.056 126.08V162.109M792.056 126.08H828.085M792.056 162.109V198.138M792.056 162.109H828.085M792.056 198.138V234.166M792.056 198.138H828.085M792.056 234.166V270.195M792.056 234.166H828.085M792.056 270.195V306.224M792.056 270.195H828.085M792.056 306.224V342.252M792.056 306.224H828.085M792.056 342.252V378.281M792.056 342.252H828.085M792.056 378.281V414.31M792.056 378.281H828.085M792.056 414.31V450.339M792.056 414.31H828.085M792.056 450.339V486.367M792.056 450.339H828.085M792.056 486.367V522.396M792.056 486.367H828.085M792.056 522.396V558.425M792.056 522.396H828.085M792.056 558.425V594.453M792.056 558.425H828.085M792.056 594.453V630.482M792.056 594.453H828.085M792.056 630.482V666.511M792.056 630.482H828.085M792.056 666.511V702.54M792.056 666.511H828.085M792.056 702.54V738.568M792.056 702.54H828.085M792.056 738.568V774.597M792.056 738.568H828.085M792.056 774.597H828.085M828.085 90.0515V126.08M828.085 90.0515H864.114M828.085 126.08V162.109M828.085 126.08H864.114M828.085 162.109V198.138M828.085 162.109H864.114M828.085 198.138V234.166M828.085 198.138H864.114M828.085 234.166V270.195M828.085 234.166H864.114M828.085 270.195V306.224M828.085 270.195H864.114M828.085 306.224V342.252M828.085 306.224H864.114M828.085 342.252V378.281M828.085 342.252H864.114M828.085 378.281V414.31M828.085 378.281H864.114M828.085 414.31V450.339M828.085 414.31H864.114M828.085 450.339V486.367M828.085 450.339H864.114M828.085 486.367V522.396M828.085 486.367H864.114M828.085 522.396V558.425M828.085 522.396H864.114M828.085 558.425V594.453M828.085 558.425H864.114M828.085 594.453V630.482M828.085 594.453H864.114M828.085 630.482V666.511M828.085 630.482H864.114M828.085 666.511V702.54M828.085 666.511H864.114M828.085 702.54V738.568M828.085 702.54H864.114M828.085 738.568V774.597M828.085 738.568H864.114M828.085 774.597H864.114M864.114 90.0515V126.08M864.114 90.0515L900.142 90.0515M864.114 126.08V162.109M864.114 126.08H900.142M864.114 162.109V198.138M864.114 162.109H900.142M864.114 198.138V234.166M864.114 198.138H900.142M864.114 234.166V270.195M864.114 234.166H900.142M864.114 270.195V306.224M864.114 270.195H900.142M864.114 306.224V342.252M864.114 306.224H900.142M864.114 342.252V378.281M864.114 342.252H900.142M864.114 378.281V414.31M864.114 378.281H900.142M864.114 414.31V450.339M864.114 414.31H900.142M864.114 450.339V486.367M864.114 450.339H900.142M864.114 486.367V522.396M864.114 486.367H900.142M864.114 522.396V558.425M864.114 522.396H900.142M864.114 558.425V594.453M864.114 558.425H900.142M864.114 594.453V630.482M864.114 594.453H900.142M864.114 630.482V666.511M864.114 630.482H900.142M864.114 666.511V702.54M864.114 666.511H900.142M864.114 702.54V738.568M864.114 702.54H900.142M864.114 738.568V774.597M864.114 738.568H900.142M864.114 774.597H900.142M900.142 90.0515V126.08M900.142 90.0515H936.171M900.142 126.08V162.109M900.142 126.08L936.171 126.08M900.142 162.109V198.138M900.142 162.109H936.171M900.142 198.138V234.166M900.142 198.138H936.171M900.142 234.166V270.195M900.142 234.166H936.171M900.142 270.195V306.224M900.142 270.195H936.171M900.142 306.224V342.252M900.142 306.224H936.171M900.142 342.252V378.281M900.142 342.252H936.171M900.142 378.281V414.31M900.142 378.281H936.171M900.142 414.31V450.339M900.142 414.31H936.171M900.142 450.339V486.367M900.142 450.339H936.171M900.142 486.367V522.396M900.142 486.367H936.171M900.142 522.396V558.425M900.142 522.396H936.171M900.142 558.425V594.453M900.142 558.425H936.171M900.142 594.453V630.482M900.142 594.453H936.171M900.142 630.482V666.511M900.142 630.482H936.171M900.142 666.511V702.54M900.142 666.511H936.171M900.142 702.54V738.568M900.142 702.54H936.171M900.142 738.568V774.597M900.142 738.568H936.171M900.142 774.597H936.171M936.171 90.0515V126.08M936.171 90.0515H972.2M936.171 126.08V162.109M936.171 126.08H972.2M936.171 162.109V198.138M936.171 162.109H972.2M936.171 198.138V234.166M936.171 198.138H972.2M936.171 234.166V270.195M936.171 234.166H972.2M936.171 270.195V306.224M936.171 270.195H972.2M936.171 306.224V342.252M936.171 306.224H972.2M936.171 342.252V378.281M936.171 342.252H972.2M936.171 378.281V414.31M936.171 378.281H972.2M936.171 414.31V450.339M936.171 414.31H972.2M936.171 450.339V486.367M936.171 450.339H972.2M936.171 486.367V522.396M936.171 486.367H972.2M936.171 522.396V558.425M936.171 522.396H972.2M936.171 558.425V594.453M936.171 558.425H972.2M936.171 594.453V630.482M936.171 594.453H972.2M936.171 630.482V666.511M936.171 630.482H972.2M936.171 666.511V702.54M936.171 666.511H972.2M936.171 702.54V738.568M936.171 702.54H972.2M936.171 738.568V774.597M936.171 738.568H972.2M936.171 774.597H972.2M972.2 90.0515V126.08M972.2 90.0515H1008.23M972.2 126.08V162.109M972.2 126.08H1008.23M972.2 162.109V198.138M972.2 162.109H1008.23M972.2 198.138V234.166M972.2 198.138H1008.23M972.2 234.166V270.195M972.2 234.166L1008.23 234.166M972.2 270.195V306.224M972.2 270.195L1008.23 270.195M972.2 306.224V342.252M972.2 306.224L1008.23 306.224M972.2 342.252V378.281M972.2 342.252L1008.23 342.252M972.2 378.281V414.31M972.2 378.281H1008.23M972.2 414.31V450.339M972.2 414.31H1008.23M972.2 450.339V486.367M972.2 450.339H1008.23M972.2 486.367V522.396M972.2 486.367H1008.23M972.2 522.396V558.425M972.2 522.396H1008.23M972.2 558.425V594.453M972.2 558.425H1008.23M972.2 594.453V630.482M972.2 594.453H1008.23M972.2 630.482V666.511M972.2 630.482H1008.23M972.2 666.511V702.54M972.2 666.511H1008.23M972.2 702.54V738.568M972.2 702.54H1008.23M972.2 738.568V774.597M972.2 738.568H1008.23M972.2 774.597H1008.23M1008.23 90.0515V126.08M1008.23 90.0515H1044.26M1008.23 126.08V162.109M1008.23 126.08L1044.26 126.08M1008.23 162.109V198.138M1008.23 162.109H1044.26M1008.23 198.138V234.166M1008.23 198.138H1044.26M1008.23 234.166V270.195M1008.23 234.166H1044.26M1008.23 270.195V306.224M1008.23 270.195H1044.26M1008.23 306.224V342.252M1008.23 306.224H1044.26M1008.23 342.252V378.281M1008.23 342.252H1044.26M1008.23 378.281V414.31M1008.23 378.281H1044.26M1008.23 414.31V450.339M1008.23 414.31H1044.26M1008.23 450.339V486.367M1008.23 450.339H1044.26M1008.23 486.367V522.396M1008.23 486.367H1044.26M1008.23 522.396V558.425M1008.23 522.396H1044.26M1008.23 558.425V594.453M1008.23 558.425H1044.26M1008.23 594.453V630.482M1008.23 594.453H1044.26M1008.23 630.482V666.511M1008.23 630.482H1044.26M1008.23 666.511V702.54M1008.23 666.511H1044.26M1008.23 702.54V738.568M1008.23 702.54H1044.26M1008.23 738.568V774.597M1008.23 738.568H1044.26M1008.23 774.597H1044.26M1044.26 90.0515V126.08M1044.26 90.0515H1080.29M1044.26 126.08V162.109M1044.26 126.08H1080.29M1044.26 162.109V198.138M1044.26 162.109H1080.29M1044.26 198.138V234.166M1044.26 198.138H1080.29M1044.26 234.166V270.195M1044.26 234.166H1080.29M1044.26 270.195V306.224M1044.26 270.195H1080.29M1044.26 306.224V342.252M1044.26 306.224H1080.29M1044.26 342.252V378.281M1044.26 342.252H1080.29M1044.26 378.281V414.31M1044.26 378.281H1080.29M1044.26 414.31V450.339M1044.26 414.31H1080.29M1044.26 450.339V486.367M1044.26 450.339H1080.29M1044.26 486.367V522.396M1044.26 486.367H1080.29M1044.26 522.396V558.425M1044.26 522.396H1080.29M1044.26 558.425V594.453M1044.26 558.425H1080.29M1044.26 594.453V630.482M1044.26 594.453H1080.29M1044.26 630.482V666.511M1044.26 630.482H1080.29M1044.26 666.511V702.54M1044.26 666.511H1080.29M1044.26 702.54V738.568M1044.26 702.54H1080.29M1044.26 738.568V774.597M1044.26 738.568H1080.29M1044.26 774.597H1080.29M1080.29 90.0515V126.08M1080.29 90.0515L1116.31 90.0515M1080.29 126.08V162.109M1080.29 126.08H1116.31M1080.29 162.109V198.138M1080.29 162.109L1116.31 162.109M1080.29 198.138V234.166M1080.29 198.138L1116.31 198.138M1080.29 234.166V270.195M1080.29 234.166H1116.31M1080.29 270.195V306.224M1080.29 270.195H1116.31M1080.29 306.224V342.252M1080.29 306.224H1116.31M1080.29 342.252V378.281M1080.29 342.252H1116.31M1080.29 378.281V414.31M1080.29 378.281H1116.31M1080.29 414.31V450.339M1080.29 414.31H1116.31M1080.29 450.339V486.367M1080.29 450.339H1116.31M1080.29 486.367V522.396M1080.29 486.367H1116.31M1080.29 522.396V558.425M1080.29 522.396H1116.31M1080.29 558.425V594.453M1080.29 558.425H1116.31M1080.29 594.453V630.482M1080.29 594.453H1116.31M1080.29 630.482V666.511M1080.29 630.482H1116.31M1080.29 666.511V702.54M1080.29 666.511H1116.31M1080.29 702.54V738.568M1080.29 702.54H1116.31M1080.29 738.568V774.597M1080.29 738.568H1116.31M1080.29 774.597H1116.31M1116.31 90.0515V126.08M1116.31 90.0515H1152.34M1116.31 126.08V162.109M1116.31 126.08H1152.34M1116.31 162.109V198.138M1116.31 162.109H1152.34M1116.31 198.138V234.166M1116.31 198.138H1152.34M1116.31 234.166V270.195M1116.31 234.166H1152.34M1116.31 270.195V306.224M1116.31 270.195H1152.34M1116.31 306.224V342.252M1116.31 306.224H1152.34M1116.31 342.252V378.281M1116.31 342.252H1152.34M1116.31 378.281V414.31M1116.31 378.281H1152.34M1116.31 414.31V450.339M1116.31 414.31H1152.34M1116.31 450.339V486.367M1116.31 450.339H1152.34M1116.31 486.367V522.396M1116.31 486.367H1152.34M1116.31 522.396V558.425M1116.31 522.396H1152.34M1116.31 558.425V594.453M1116.31 558.425H1152.34M1116.31 594.453V630.482M1116.31 594.453H1152.34M1116.31 630.482V666.511M1116.31 630.482H1152.34M1116.31 666.511V702.54M1116.31 666.511H1152.34M1116.31 702.54V738.568M1116.31 702.54H1152.34M1116.31 738.568V774.597M1116.31 738.568H1152.34M1116.31 774.597H1152.34M1152.34 90.0515V126.08M1152.34 90.0515H1188.37M1152.34 126.08V162.109M1152.34 126.08H1188.37M1152.34 162.109V198.138M1152.34 162.109H1188.37M1152.34 198.138V234.166M1152.34 198.138H1188.37M1152.34 234.166V270.195M1152.34 234.166H1188.37M1152.34 270.195V306.224M1152.34 270.195H1188.37M1152.34 306.224V342.252M1152.34 306.224H1188.37M1152.34 342.252V378.281M1152.34 342.252H1188.37M1152.34 378.281V414.31M1152.34 378.281H1188.37M1152.34 414.31V450.339M1152.34 414.31H1188.37M1152.34 450.339V486.367M1152.34 450.339H1188.37M1152.34 486.367V522.396M1152.34 486.367H1188.37M1152.34 522.396V558.425M1152.34 522.396H1188.37M1152.34 558.425V594.453M1152.34 558.425H1188.37M1152.34 594.453V630.482M1152.34 594.453H1188.37M1152.34 630.482V666.511M1152.34 630.482H1188.37M1152.34 666.511V702.54M1152.34 666.511H1188.37M1152.34 702.54V738.568M1152.34 702.54H1188.37M1152.34 738.568V774.597M1152.34 738.568H1188.37M1152.34 774.597H1188.37M1188.37 90.0515V126.08M1188.37 90.0515H1224.4M1188.37 126.08V162.109M1188.37 126.08H1224.4M1188.37 162.109V198.138M1188.37 162.109H1224.4M1188.37 198.138V234.166M1188.37 198.138H1224.4M1188.37 234.166V270.195M1188.37 234.166H1224.4M1188.37 270.195V306.224M1188.37 270.195H1224.4M1188.37 306.224V342.252M1188.37 306.224H1224.4M1188.37 342.252V378.281M1188.37 342.252H1224.4M1188.37 378.281V414.31M1188.37 378.281L1224.4 378.281M1188.37 414.31V450.339M1188.37 414.31L1224.4 414.31M1188.37 450.339V486.367M1188.37 450.339L1224.4 450.339M1188.37 486.367V522.396M1188.37 486.367L1224.4 486.367M1188.37 522.396V558.425M1188.37 522.396L1224.4 522.396M1188.37 558.425V594.453M1188.37 558.425L1224.4 558.425M1188.37 594.453V630.482M1188.37 594.453L1224.4 594.453M1188.37 630.482V666.511M1188.37 630.482H1224.4M1188.37 666.511V702.54M1188.37 666.511H1224.4M1188.37 702.54V738.568M1188.37 702.54H1224.4M1188.37 738.568V774.597M1188.37 738.568H1224.4M1188.37 774.597H1224.4M1224.4 90.0515V126.08M1224.4 90.0515H1260.43M1224.4 126.08V162.109M1224.4 126.08H1260.43M1224.4 162.109V198.138M1224.4 162.109H1260.43M1224.4 198.138V234.166M1224.4 198.138H1260.43M1224.4 234.166V270.195M1224.4 234.166H1260.43M1224.4 270.195V306.224M1224.4 270.195H1260.43M1224.4 306.224V342.252M1224.4 306.224H1260.43M1224.4 342.252V378.281M1224.4 342.252H1260.43M1224.4 378.281V414.31M1224.4 378.281H1260.43M1224.4 414.31V450.339M1224.4 414.31H1260.43M1224.4 450.339V486.367M1224.4 450.339H1260.43M1224.4 486.367V522.396M1224.4 486.367H1260.43M1224.4 522.396V558.425M1224.4 522.396H1260.43M1224.4 558.425V594.453M1224.4 558.425H1260.43M1224.4 594.453V630.482M1224.4 594.453H1260.43M1224.4 630.482V666.511M1224.4 630.482H1260.43M1224.4 666.511V702.54M1224.4 666.511H1260.43M1224.4 702.54V738.568M1224.4 702.54H1260.43M1224.4 738.568V774.597M1224.4 738.568H1260.43M1224.4 774.597H1260.43M1260.43 90.0515V126.08M1260.43 90.0515H1296.46M1260.43 126.08V162.109M1260.43 126.08H1296.46M1260.43 162.109V198.138M1260.43 162.109H1296.46M1260.43 198.138V234.166M1260.43 198.138H1296.46M1260.43 234.166V270.195M1260.43 234.166H1296.46M1260.43 270.195V306.224M1260.43 270.195H1296.46M1260.43 306.224V342.252M1260.43 306.224H1296.46M1260.43 342.252V378.281M1260.43 342.252H1296.46M1260.43 378.281V414.31M1260.43 378.281H1296.46M1260.43 414.31V450.339M1260.43 414.31H1296.46M1260.43 450.339V486.367M1260.43 450.339H1296.46M1260.43 486.367V522.396M1260.43 486.367H1296.46M1260.43 522.396V558.425M1260.43 522.396H1296.46M1260.43 558.425V594.453M1260.43 558.425H1296.46M1260.43 594.453V630.482M1260.43 594.453H1296.46M1260.43 630.482V666.511M1260.43 630.482H1296.46M1260.43 666.511V702.54M1260.43 666.511H1296.46M1260.43 702.54V738.568M1260.43 702.54H1296.46M1260.43 738.568V774.597M1260.43 738.568H1296.46M1260.43 774.597H1296.46M1296.46 90.0515V126.08M1296.46 90.0515L1332.49 90.0515M1296.46 126.08V162.109M1296.46 126.08H1332.49M1296.46 162.109V198.138M1296.46 162.109L1332.49 162.109M1296.46 198.138V234.166M1296.46 198.138L1332.49 198.138M1296.46 234.166V270.195M1296.46 234.166H1332.49M1296.46 270.195V306.224M1296.46 270.195H1332.49M1296.46 306.224V342.252M1296.46 306.224H1332.49M1296.46 342.252V378.281M1296.46 342.252H1332.49M1296.46 378.281V414.31M1296.46 378.281H1332.49M1296.46 414.31V450.339M1296.46 414.31H1332.49M1296.46 450.339V486.367M1296.46 450.339H1332.49M1296.46 486.367V522.396M1296.46 486.367H1332.49M1296.46 522.396V558.425M1296.46 522.396H1332.49M1296.46 558.425V594.453M1296.46 558.425H1332.49M1296.46 594.453V630.482M1296.46 594.453H1332.49M1296.46 630.482V666.511M1296.46 630.482H1332.49M1296.46 666.511V702.54M1296.46 666.511H1332.49M1296.46 702.54V738.568M1296.46 702.54H1332.49M1296.46 738.568V774.597M1296.46 738.568H1332.49M1296.46 774.597H1332.49M1332.49 90.0515V126.08M1332.49 90.0515H1368.52M1332.49 126.08V162.109M1332.49 126.08L1368.52 126.08M1332.49 162.109V198.138M1332.49 162.109H1368.52M1332.49 198.138V234.166M1332.49 198.138H1368.52M1332.49 234.166V270.195M1332.49 234.166H1368.52M1332.49 270.195V306.224M1332.49 270.195H1368.52M1332.49 306.224V342.252M1332.49 306.224H1368.52M1332.49 342.252V378.281M1332.49 342.252H1368.52M1332.49 378.281V414.31M1332.49 378.281H1368.52M1332.49 414.31V450.339M1332.49 414.31H1368.52M1332.49 450.339V486.367M1332.49 450.339H1368.52M1332.49 486.367V522.396M1332.49 486.367H1368.52M1332.49 522.396V558.425M1332.49 522.396H1368.52M1332.49 558.425V594.453M1332.49 558.425H1368.52M1332.49 594.453V630.482M1332.49 594.453H1368.52M1332.49 630.482V666.511M1332.49 630.482H1368.52M1332.49 666.511V702.54M1332.49 666.511H1368.52M1332.49 702.54V738.568M1332.49 702.54H1368.52M1332.49 738.568V774.597M1332.49 738.568H1368.52M1332.49 774.597H1368.52M1368.52 90.0515V126.08M1368.52 90.0515H1404.54M1368.52 126.08V162.109M1368.52 126.08H1404.54M1368.52 162.109V198.138M1368.52 162.109H1404.54M1368.52 198.138V234.166M1368.52 198.138H1404.54M1368.52 234.166V270.195M1368.52 234.166H1404.54M1368.52 270.195V306.224M1368.52 270.195H1404.54M1368.52 306.224V342.252M1368.52 306.224H1404.54M1368.52 342.252V378.281M1368.52 342.252H1404.54M1368.52 378.281V414.31M1368.52 378.281H1404.54M1368.52 414.31V450.339M1368.52 414.31H1404.54M1368.52 450.339V486.367M1368.52 450.339H1404.54M1368.52 486.367V522.396M1368.52 486.367H1404.54M1368.52 522.396V558.425M1368.52 522.396H1404.54M1368.52 558.425V594.453M1368.52 558.425H1404.54M1368.52 594.453V630.482M1368.52 594.453H1404.54M1368.52 630.482V666.511M1368.52 630.482H1404.54M1368.52 666.511V702.54M1368.52 666.511H1404.54M1368.52 702.54V738.568M1368.52 702.54H1404.54M1368.52 738.568V774.597M1368.52 738.568H1404.54M1368.52 774.597H1404.54M1404.54 90.0515V126.08M1404.54 90.0515H1440.57M1404.54 126.08V162.109M1404.54 126.08H1440.57M1404.54 162.109V198.138M1404.54 162.109H1440.57M1404.54 198.138V234.166M1404.54 198.138H1440.57M1404.54 234.166V270.195M1404.54 234.166L1440.57 234.166M1404.54 270.195V306.224M1404.54 270.195H1440.57M1404.54 306.224V342.252M1404.54 306.224H1440.57M1404.54 342.252V378.281M1404.54 342.252H1440.57M1404.54 378.281V414.31M1404.54 378.281H1440.57M1404.54 414.31V450.339M1404.54 414.31H1440.57M1404.54 450.339V486.367M1404.54 450.339H1440.57M1404.54 486.367V522.396M1404.54 486.367H1440.57M1404.54 522.396V558.425M1404.54 522.396H1440.57M1404.54 558.425V594.453M1404.54 558.425H1440.57M1404.54 594.453V630.482M1404.54 594.453H1440.57M1404.54 630.482V666.511M1404.54 630.482H1440.57M1404.54 666.511V702.54M1404.54 666.511H1440.57M1404.54 702.54V738.568M1404.54 702.54H1440.57M1404.54 738.568V774.597M1404.54 738.568H1440.57M1404.54 774.597H1440.57M1440.57 90.0515V126.08M1440.57 90.0515H1476.6M1440.57 126.08V162.109M1440.57 126.08L1476.6 126.08M1440.57 162.109V198.138M1440.57 162.109H1476.6M1440.57 198.138V234.166M1440.57 198.138H1476.6M1440.57 234.166V270.195M1440.57 234.166H1476.6M1440.57 270.195V306.224M1440.57 270.195H1476.6M1440.57 306.224V342.252M1440.57 306.224H1476.6M1440.57 342.252V378.281M1440.57 342.252H1476.6M1440.57 378.281V414.31M1440.57 378.281H1476.6M1440.57 414.31V450.339M1440.57 414.31H1476.6M1440.57 450.339V486.367M1440.57 450.339H1476.6M1440.57 486.367V522.396M1440.57 486.367H1476.6M1440.57 522.396V558.425M1440.57 522.396H1476.6M1440.57 558.425V594.453M1440.57 558.425H1476.6M1440.57 594.453V630.482M1440.57 594.453H1476.6M1440.57 630.482V666.511M1440.57 630.482H1476.6M1440.57 666.511V702.54M1440.57 666.511H1476.6M1440.57 702.54V738.568M1440.57 702.54H1476.6M1440.57 738.568V774.597M1440.57 738.568H1476.6M1440.57 774.597H1476.6M1476.6 90.0515V126.08M1476.6 90.0515H1512.63V126.08M1476.6 126.08V162.109M1476.6 126.08H1512.63M1476.6 162.109V198.138M1476.6 162.109H1512.63M1476.6 198.138V234.166M1476.6 198.138H1512.63M1476.6 234.166V270.195M1476.6 234.166H1512.63M1476.6 270.195V306.224M1476.6 270.195H1512.63M1476.6 306.224V342.252M1476.6 306.224H1512.63M1476.6 342.252V378.281M1476.6 342.252H1512.63M1476.6 378.281V414.31M1476.6 378.281H1512.63M1476.6 414.31V450.339M1476.6 414.31H1512.63M1476.6 450.339V486.367M1476.6 450.339H1512.63M1476.6 486.367V522.396M1476.6 486.367H1512.63M1476.6 522.396V558.425M1476.6 522.396H1512.63M1476.6 558.425V594.453M1476.6 558.425H1512.63M1476.6 594.453V630.482M1476.6 594.453H1512.63M1476.6 630.482V666.511M1476.6 630.482H1512.63M1476.6 666.511V702.54M1476.6 666.511H1512.63M1476.6 702.54V738.568M1476.6 702.54H1512.63M1476.6 738.568V774.597M1476.6 738.568H1512.63M1476.6 774.597H1512.63V738.568M1512.63 126.08V162.109M1512.63 162.109V198.138M1512.63 198.138V234.166M1512.63 234.166V270.195M1512.63 270.195V306.224M1512.63 306.224V342.252M1512.63 342.252V378.281M1512.63 378.281V414.31M1512.63 414.31V450.339M1512.63 450.339V486.367M1512.63 486.367V522.396M1512.63 522.396V558.425M1512.63 558.425V594.453M1512.63 594.453V630.482M1512.63 630.482V666.511M1512.63 666.511V702.54M1512.63 702.54V738.568" stroke="url(#paint1_radial_1_2886)" stroke-width="0.900718"/>
</g>
</g>
<defs>
<radialGradient id="paint0_radial_1_2886" cx="0" cy="0" r="1" gradientUnits="userSpaceOnUse" gradientTransform="translate(1920 910.052) rotate(26.5651) scale(670.82 536.656)">
<stop stop-color="#1AB5E9"/>
<stop offset="0.7" stop-color="#1AB5E9" stop-opacity="0"/>
</radialGradient>
<radialGradient id="paint1_radial_1_2886" cx="0" cy="0" r="1" gradientUnits="userSpaceOnUse" gradientTransform="translate(719.999 432.324) rotate(90) scale(342.273 640.064)">
<stop stop-color="white"/>
<stop offset="1" stop-color="white" stop-opacity="0.2"/>
</radialGradient>
<clipPath id="clip0_1_2886">
<rect width="1440" height="260" fill="white" transform="translate(0 0.0524902)"/>
</clipPath>
</defs>
</svg>
